<?xml version="1.0" standalone="no"?><!DOCTYPE svg PUBLIC "-//W3C//DTD SVG 1.1//EN" "http://www.w3.org/Graphics/SVG/1.1/DTD/svg11.dtd"><svg t="1604804643961" class="icon" viewBox="0 0 1024 1024" version="1.1" xmlns="http://www.w3.org/2000/svg" p-id="28168" xmlns:xlink="http://www.w3.org/1999/xlink" width="200" height="200"><defs><style type="text/css"></style></defs><path d="M885.6 225.9H410.8l-72.6-99.6H138.9c-41.2 0-74.7 33.5-74.7 74.7v622.3c0 41.2 33.5 74.7 74.7 74.7h746.7c41.2 0 74.7-33.5 74.7-74.7V300.6c0-41.2-33.5-74.7-74.7-74.7z m24.9 597.4c0 13.7-11.2 24.9-24.9 24.9H138.9c-13.7 0-24.9-11.2-24.9-24.9V201c0-13.7 11.2-24.9 24.9-24.9h174l72.6 99.6h500.1c13.7 0 24.9 11.2 24.9 24.9v522.7z" fill="#24BC77" p-id="28169"></path><path d="M644 532.6H538.6V427.2c0-14.6-11.8-26.4-26.4-26.4s-26.4 11.8-26.4 26.4v105.4H380.5c-14.6 0-26.4 11.8-26.4 26.4 0 14.6 11.8 26.4 26.4 26.4h105.4v105.4c0 14.6 11.8 26.4 26.4 26.4s26.4-11.8 26.4-26.4V585.3H644c14.6 0 26.4-11.8 26.4-26.4 0-14.5-11.8-26.3-26.4-26.3z" fill="#24BC77" p-id="28170"></path></svg>