<?xml version="1.0" standalone="no"?><!DOCTYPE svg PUBLIC "-//W3C//DTD SVG 1.1//EN" "http://www.w3.org/Graphics/SVG/1.1/DTD/svg11.dtd"><svg class="icon" width="200px" height="200.00px" viewBox="0 0 1024 1024" version="1.1" xmlns="http://www.w3.org/2000/svg"><path fill="#13227a" d="M76.16 872.32V151.68c0-41.6 33.92-76.16 75.52-76.16h445.76v94.72c0 83.84 68.48 151.68 151.68 151.68h113.92v154.688h75.52V301.44c0-41.6-14.72-80-43.52-108.16L745.28 43.52c-30.08-28.8-68.48-43.52-108.16-43.52H151.68C68.48 0 0 67.84 0 151.68v720.64C0 955.52 68.48 1024 151.68 1024H512v-76.16H151.68c-41.6 0-75.52-33.92-75.52-75.52z m597.44-787.2c5.12 3.84 10.88 7.68 16.64 13.44l147.84 147.84h-88.96c-41.6 0-75.52-33.92-75.52-76.16V85.12z"  /><path fill="#13227a" d="M297.792 284.48c6.4 25.664 26.304 41.536 52.672 41.536 36.8 0 59.072-30.4 59.072-79.36V144H173.184v104.96c0 53.376 24.32 86.08 64.832 86.08 31.744 0.064 54.336-18.88 59.776-50.56z m13.824-100.672h62.144v60.8c0.32 25.344-10.816 40.512-30.4 40.512-20.288 0-31.744-15.168-31.744-40.512v-60.8z m-102.656 60.8v-60.8H276.48v60.8c0.32 31.04-12.48 49.6-33.408 49.6-21.952 0.064-34.432-18.496-34.112-49.6zM173.184 381.824h250.56v38.848H173.184zM263.36 650.304c54.016 0 90.816-38.144 90.816-93.504 0-55.68-36.8-93.888-90.816-93.888-54.336 0-91.52 38.144-91.52 93.888 0 55.36 37.12 93.504 91.52 93.504zM262.656 501.76c34.432 0 58.368 22.656 58.368 55.04 0 32.064-24 54.72-58.368 54.72-34.752 0-58.432-22.656-58.432-54.72 0-32.448 23.68-55.04 58.432-55.04zM423.744 692.608H173.184v38.848h31.04c-20.928 13.184-32.384 34.752-32.384 63.488 0 51.328 36.8 85.056 90.496 85.056 54.72 0 91.84-34.752 91.84-85.76 0-28.032-11.52-49.6-32.384-62.784h101.952v-38.848zM263.68 840.832c-34.432 0-58.752-22.656-58.752-54.72s24-54.656 58.752-54.656c33.792 0 58.112 22.592 58.112 54.656-0.064 32.128-24.704 54.72-58.112 54.72zM855.936 801.536h-30.848c-4.48 0-8.064 3.136-8.064 7.616v113.984c0 4.48-3.584 8.064-8.064 8.064h-50.048a8 8 0 0 1-8.064-8.064v-113.984c0-4.48-3.584-7.616-8.064-7.616h-30.4c-5.824 0-9.856-6.272-7.616-11.2l16.576-34.432 55.424-114.432a7.808 7.808 0 0 1 14.336 0l72 148.864c2.24 4.928-1.344 11.2-7.168 11.2z"  /><path fill="#13227a" d="M784 544c-17.984 0-35.968 1.792-52.8 6.016a251.52 251.52 0 0 0-67.2 25.792A240.448 240.448 0 0 0 544 784 239.936 239.936 0 0 0 784 1024 239.936 239.936 0 0 0 1024 784a239.936 239.936 0 0 0-240-240z m0 423.616a183.616 183.616 0 0 1-183.616-183.616c0-55.168 24.576-105.024 63.616-138.624 19.2-16.768 41.984-30.016 67.2-37.184a183.616 183.616 0 1 1 52.8 359.424z"  /></svg>