<?xml version="1.0" standalone="no"?><!DOCTYPE svg PUBLIC "-//W3C//DTD SVG 1.1//EN" "http://www.w3.org/Graphics/SVG/1.1/DTD/svg11.dtd"><svg class="icon" width="200px" height="200.00px" viewBox="0 0 1024 1024" version="1.1" xmlns="http://www.w3.org/2000/svg"><path d="M0 0h1024v1024H0z" fill="#FFFFFF" /><path d="M832 658.24h21.312a32 32 0 0 0 31.488-26.24l0.512-5.76V214.912a32 32 0 0 0-32-32h-576a32 32 0 0 0-31.488 26.24l-0.512 5.76v96H736a96 96 0 0 1 96 96v251.392zM440.896 640H227.584v73.152h213.312V640z m320-182.848H156.416v73.152h604.48V457.152zM832 800a96 96 0 0 1-96 96H181.312a96 96 0 0 1-96-96V406.848a96 96 0 0 1 96-96H192V224A96 96 0 0 1 288 128h554.688a96 96 0 0 1 96 96v393.152a96 96 0 0 1-96 96L832 713.088V800z" fill="#000000" fill-opacity=".45" /></svg>