<?xml version="1.0" standalone="no"?><!DOCTYPE svg PUBLIC "-//W3C//DTD SVG 1.1//EN" "http://www.w3.org/Graphics/SVG/1.1/DTD/svg11.dtd"><svg class="icon" width="200px" height="200.00px" viewBox="0 0 1024 1024" version="1.1" xmlns="http://www.w3.org/2000/svg"><path fill="#333333" d="M845.17 598V76.54a10 10 0 0 0-10-10H104.11a10 10 0 0 0-10 10v869.92a10 10 0 0 0 10 10h625.26c-1.64 0-3.28 0-4.91-0.06q2.44 0.06 4.92 0.06c109.31 0 197.93-88.62 197.93-197.93A197.64 197.64 0 0 0 845.17 598z m-2.73-1.94l-0.33-0.23zM144.11 116.54h651.07v455.27a197.73 197.73 0 0 0-65.8-11.21c-109.32 0-197.93 88.61-197.93 197.93a197.43 197.43 0 0 0 66.44 147.93H144.11z m689.49 473.7l-0.16-0.1z m-3.07-1.87l-0.16-0.09z m-9.23-5.16l-0.11-0.06zM808.46 577z m-88.89 379.22c1.07 0 2.16 0.08 3.24 0.12-1.08-0.04-2.17-0.07-3.24-0.12z m-86.12-24.54l0.38 0.22z m3.74 2l0.68 0.36z m3.91 2l0.86 0.43z m4 1.95l1 0.46z m4.1 1.88l1.07 0.46z m4.18 1.79l1.09 0.45z m4.24 1.71l1 0.39z m4.3 1.62l0.74 0.26z m12.37 4l0.55 0.17z m3.39 0.94l1.72 0.47z m4.29 1.11l2 0.5z m4.48 1l2.2 0.48z m4.58 1l2.31 0.45z m4.64 0.86l2.41 0.4z m4.7 0.75l2.49 0.35z m4.74 0.64l2.59 0.29z m4.78 0.52l2.71 0.25z m4.82 0.42c1 0.07 1.92 0.12 2.89 0.18-0.97-0.05-1.93-0.05-2.89-0.13zM834 863.13a147.93 147.93 0 1 1 43.33-104.6A147 147 0 0 1 834 863.13zM437.77 270.14h288.07v50H437.77zM268.07 308.14l-36.95-36.94-35.35 35.35 72.3 72.31 114.41-114.41-35.36-35.36-79.05 79.05zM437.77 455.12h138.34v50H437.77zM268.07 493.13l-36.95-36.94-35.35 35.35 72.3 72.3 114.41-114.4-35.36-35.36-79.05 79.05zM754.38 733.53v-87.1h-50v87.1h-87.1v50h87.1v87.1h50v-87.1h87.1v-50h-87.1z" /></svg>