<?xml version="1.0" standalone="no"?><!DOCTYPE svg PUBLIC "-//W3C//DTD SVG 1.1//EN" "http://www.w3.org/Graphics/SVG/1.1/DTD/svg11.dtd"><svg class="icon" width="200px" height="200.00px" viewBox="0 0 1024 1024" version="1.1" xmlns="http://www.w3.org/2000/svg"><path d="M85.333333 0h853.333334c46.933333 0 85.333333 38.4 85.333333 85.333333v853.333334c0 46.933333-38.4 85.333333-85.333333 85.333333H85.333333c-46.933333 0-85.333333-38.4-85.333333-85.333333V85.333333c0-46.933333 38.4-85.333333 85.333333-85.333333z" fill="#536299" /><path d="M181.333333 215.466667c2.133333 2.133333 121.6 2.133333 125.866667 0 2.133333 0 2.133333-2.133333 2.133333-10.666667s0-10.666667-2.133333-10.666667h-64c-49.066667 0-59.733333 0-61.866667 2.133334-2.133333 2.133333-2.133333 4.266667-2.133333 10.666666s2.133333 8.533333 2.133333 8.533334zM418.133333 217.6h89.6c2.133333 0 0-2.133333-2.133333-4.266667-4.266667-4.266667-12.8-8.533333-21.333333-12.8l-8.533334-2.133333h-147.2c-2.133333 2.133333-2.133333 17.066667 0 19.2h89.6zM657.066667 215.466667c2.133333 0 2.133333-2.133333 0-6.4 0-2.133333-2.133333-6.4-2.133334-8.533334 0 0 0-2.133333-2.133333-4.266666s-4.266667-2.133333-51.2-2.133334c-42.666667 0-49.066667 0-51.2 2.133334-2.133333 2.133333 0 17.066667 2.133333 19.2 2.133333 2.133333 102.4 2.133333 104.533334 0zM840.533333 217.6l2.133334-2.133333c2.133333-2.133333 2.133333-4.266667 2.133333-10.666667s0-6.4-2.133333-8.533333c-2.133333-2.133333-98.133333-2.133333-100.266667 0-2.133333 2.133333-6.4 17.066667-6.4 19.2 0 2.133333 6.4 2.133333 53.333333 2.133333h51.2zM245.333333 256h64v-21.333333h-128l-2.133333 2.133333c0 2.133333-2.133333 6.4-2.133333 8.533333 2.133333 10.666667-2.133333 10.666667 68.266666 10.666667zM328.533333 234.666667v2.133333c-2.133333 4.266667-2.133333 12.8 0 14.933333l2.133334 2.133334h102.4c89.6 0 102.4 0 102.4-2.133334s-2.133333-14.933333-4.266667-17.066666h-202.666667zM610.133333 256h59.733334c0-2.133333-2.133333-12.8-4.266667-17.066667l-2.133333-4.266666h-55.466667c-64 0-57.6 0-57.6 10.666666-2.133333 10.666667-8.533333 10.666667 59.733333 10.666667zM842.666667 253.866667c2.133333-2.133333 2.133333-12.8 0-14.933334V234.666667h-113.066667l-2.133333 2.133333c-2.133333 2.133333-2.133333 4.266667-4.266667 14.933333v2.133334h59.733333c57.6 2.133333 59.733333 2.133333 59.733334 0zM217.6 294.4h55.466667v-8.533333-12.8h-27.733334c-21.333333 0-27.733333 0-27.733333 2.133333v19.2zM418.133333 294.4v-21.333333h-25.6c-25.6 0-25.6 0-27.733333 2.133333-2.133333 2.133333-2.133333 14.933333 0 17.066667 0 0 8.533333 2.133333 27.733333 2.133333h25.6zM475.733333 277.333333c-2.133333 2.133333-2.133333 14.933333 0 17.066667s53.333333 2.133333 55.466667 0c2.133333 0 2.133333-4.266667 2.133333-10.666667v-8.533333h-27.733333c-27.733333 0-29.866667 0-29.866667 2.133333zM584.533333 285.866667c0 10.666667-4.266667 10.666667 49.066667 10.666666H682.666667v-4.266666c0-4.266667-2.133333-10.666667-4.266667-14.933334 0-2.133333-6.4-2.133333-44.8-2.133333-53.333333 0-49.066667-2.133333-49.066667 10.666667zM759.466667 294.4h49.066666v-21.333333h-44.8c-36.266667 0-44.8 0-46.933333 2.133333-2.133333 2.133333-6.4 17.066667-4.266667 17.066667-2.133333 2.133333 6.4 2.133333 46.933334 2.133333zM270.933333 313.6c-2.133333 0-51.2-2.133333-53.333333 0v21.333333h53.333333c2.133333-4.266667 2.133333-19.2 0-21.333333zM364.8 332.8c2.133333 2.133333 10.666667 2.133333 70.4 2.133333 51.2 0 70.4 0 72.533333-2.133333 2.133333-2.133333 14.933333-14.933333 14.933334-19.2 0 0-21.333333-2.133333-76.8-2.133333h-78.933334c-4.266667 0-4.266667 2.133333-4.266666 10.666666 0 6.4 0 8.533333 2.133333 10.666667zM780.8 334.933333c21.333333 0 25.6 0 25.6-2.133333 2.133333-2.133333 0-17.066667 0-19.2-2.133333-2.133333-102.4 0-104.533333 0 0 0-2.133333 2.133333-2.133334 4.266667-2.133333 6.4-2.133333 8.533333-4.266666 8.533333s-2.133333 0-4.266667-8.533333c0-2.133333-2.133333-4.266667-4.266667-6.4l-2.133333-2.133334h-49.066667c-38.4 0-49.066667 0-51.2 2.133334v8.533333c0 10.666667 0 10.666667 29.866667 10.666667H640v-4.266667c2.133333-4.266667 2.133333-6.4 2.133333-6.4s2.133333 2.133333 2.133334 4.266667 0 4.266667 2.133333 4.266666 19.2 2.133333 51.2 2.133334H746.666667l2.133333-4.266667c2.133333-4.266667 4.266667-4.266667 4.266667-2.133333 0 0 0 2.133333 2.133333 4.266666 0 6.4 4.266667 6.4 25.6 6.4zM270.933333 354.133333h-55.466666v21.333334h53.333333c2.133333 0 2.133333-4.266667 2.133333-10.666667v-10.666667zM435.2 354.133333H362.666667c-2.133333 2.133333 0 14.933333 0 17.066667 2.133333 2.133333 4.266667 2.133333 78.933333 2.133333 53.333333 0 78.933333 0 78.933333-2.133333s-8.533333-12.8-12.8-17.066667h-72.533333zM640 362.666667v-10.666667h-55.466667c-2.133333 2.133333 0 17.066667 0 19.2 2.133333 2.133333 4.266667 2.133333 27.733334 2.133333h25.6V362.666667zM740.266667 354.133333c0-2.133333-89.6-2.133333-89.6 0s2.133333 8.533333 4.266666 14.933334l2.133334 4.266666h74.666666c4.266667-2.133333 10.666667-17.066667 8.533334-19.2zM808.533333 354.133333h-53.333333v10.666667c0 8.533333 0 8.533333 2.133333 10.666667H808.533333v-10.666667c-2.133333-2.133333 0-10.666667 0-10.666667zM217.6 392.533333c-2.133333 2.133333 0 19.2 0 21.333334h53.333333V405.333333v-10.666666c0-2.133333-6.4-2.133333-27.733333-2.133334h-25.6zM362.666667 411.733333s8.533333 2.133333 27.733333 2.133334h27.733333s2.133333-4.266667 2.133334-10.666667 0-8.533333-2.133334-10.666667h-25.6c-29.866667 0-27.733333 0-27.733333 10.666667-2.133333 2.133333-2.133333 6.4-2.133333 8.533333zM503.466667 392.533333c-29.866667 0-29.866667 0-29.866667 10.666667 0 6.4 0 8.533333 2.133333 8.533333 4.266667 2.133333 53.333333 2.133333 55.466667 0 2.133333-2.133333 2.133333-2.133333 0-8.533333 0-4.266667-2.133333-8.533333-4.266667-10.666667h-23.466666zM584.533333 403.2v8.533333H640v-21.333333h-25.6c-32 0-29.866667 0-29.866667 12.8zM727.466667 392.533333h-32c-34.133333 0-32 0-29.866667 8.533334 0 2.133333 2.133333 6.4 2.133333 6.4s0 2.133333 2.133334 2.133333c2.133333 2.133333 46.933333 2.133333 51.2 2.133333 4.266667 0 8.533333-17.066667 6.4-19.2zM780.8 392.533333h-27.733333s-2.133333 4.266667-2.133334 10.666667c0 8.533333 0 10.666667 2.133334 10.666667h51.2s2.133333-4.266667 0-10.666667v-10.666667h-23.466667zM245.333333 452.266667h64c2.133333 0 2.133333-2.133333 2.133334-10.666667s0-8.533333-2.133334-10.666667c-2.133333 0-121.6-2.133333-123.733333 0-2.133333 0-4.266667 4.266667-4.266667 10.666667-2.133333 10.666667-6.4 10.666667 64 10.666667zM531.2 433.066667s-21.333333-2.133333-100.266667-2.133334h-100.266666c-2.133333 0-6.4 0-6.4 2.133334v17.066666c2.133333 2.133333 12.8 2.133333 100.266666 2.133334 93.866667 0 98.133333 0 100.266667-2.133334 4.266667-2.133333 8.533333-14.933333 6.4-17.066666zM550.4 430.933333c-2.133333 2.133333-2.133333 17.066667 0 19.2 2.133333 0 12.8 2.133333 44.8 2.133334H640v-21.333334h-89.6zM710.4 448c2.133333-2.133333 4.266667-8.533333 4.266667-14.933333v-2.133334H678.4c-2.133333 0-2.133333 2.133333 0 6.4 2.133333 8.533333 4.266667 12.8 6.4 12.8h12.8c10.666667 2.133333 10.666667 2.133333 12.8-2.133333zM755.2 450.133333h44.8c49.066667 0 46.933333 0 44.8-10.666666 0-4.266667 0-8.533333-2.133333-8.533334 0 0-85.333333-2.133333-87.466667 0-2.133333 0-2.133333 2.133333-2.133333 10.666667 0 6.4 0 8.533333 2.133333 8.533333zM309.333333 482.133333c0-6.4 0-8.533333-2.133333-10.666666-2.133333-2.133333-125.866667-2.133333-128 0-2.133333 2.133333-2.133333 14.933333 0 17.066666 2.133333 2.133333 6.4 2.133333 64 2.133334h64l2.133333-8.533334zM326.4 471.466667c-2.133333 2.133333-2.133333 14.933333 0 17.066666 2.133333 2.133333 4.266667 2.133333 72.533333 2.133334 74.666667 0 78.933333 0 91.733334-4.266667 6.4-2.133333 21.333333-12.8 19.2-12.8 0-4.266667-181.333333-4.266667-183.466667-2.133333zM550.4 471.466667c-2.133333 2.133333-2.133333 12.8 0 17.066666v2.133334H640v-21.333334h-44.8c-32 0-42.666667 2.133333-44.8 2.133334zM691.2 477.866667c0 2.133333 2.133333 4.266667 2.133333 6.4 0 2.133333 4.266667 8.533333 6.4 6.4l2.133334-2.133334s0-4.266667 2.133333-6.4c0-2.133333 2.133333-6.4 2.133333-6.4 0-2.133333-2.133333-2.133333-6.4-2.133333-10.666667-4.266667-10.666667-2.133333-8.533333 4.266667zM753.066667 471.466667v19.2h44.8c40.533333 0 44.8 0 44.8-2.133334 2.133333-2.133333 2.133333-14.933333 0-17.066666-2.133333-2.133333-87.466667-2.133333-89.6 0zM748.8 791.466667s-17.066667-2.133333-40.533333-2.133334c-32 0-38.4 0-38.4-2.133333l4.266666-8.533333c4.266667-6.4 10.666667-14.933333 42.666667-42.666667 21.333333-19.2 27.733333-29.866667 32-46.933333 2.133333-10.666667 2.133333-34.133333 0-44.8-6.4-21.333333-19.2-32-40.533333-38.4-8.533333-2.133333-42.666667-2.133333-51.2 0-19.2 6.4-34.133333 19.2-40.533334 38.4 0 2.133333-2.133333 10.666667-2.133333 19.2v12.8h42.666667c2.133333 0 2.133333-4.266667 2.133333-12.8 2.133333-17.066667 6.4-25.6 17.066667-27.733334 12.8-4.266667 23.466667 2.133333 25.6 14.933334 2.133333 8.533333 2.133333 19.2 0 29.866666-2.133333 10.666667-8.533333 21.333333-21.333334 32-21.333333 19.2-42.666667 42.666667-51.2 53.333334l-10.666666 21.333333c-2.133333 8.533333-6.4 23.466667-6.4 32 0 6.4 0 6.4 2.133333 8.533333 2.133333 0 27.733333 2.133333 66.133333 2.133334 61.866667 0 64 0 66.133334-2.133334 2.133333-2.133333 2.133333-4.266667 2.133333-17.066666 2.133333-14.933333 0-17.066667 0-19.2zM413.866667 640c-6.4-12.8-19.2-25.6-32-29.866667-2.133333 0-10.666667-2.133333-14.933334-4.266666-8.533333-2.133333-19.2-2.133333-49.066666-2.133334H277.333333c-2.133333 0 0 2.133333 0 2.133334v219.733333l2.133334 2.133333c4.266667 2.133333 68.266667 2.133333 83.2 0 21.333333-2.133333 38.4-10.666667 46.933333-27.733333 6.4-10.666667 12.8-27.733333 14.933333-44.8 2.133333-14.933333 2.133333-64 0-76.8-4.266667-21.333333-6.4-29.866667-10.666666-38.4z m-36.266667 83.2c-2.133333 57.6-8.533333 68.266667-40.533333 70.4h-12.8c-2.133333-2.133333-2.133333-151.466667 0-153.6 2.133333-2.133333 25.6 0 32 2.133333 4.266667 2.133333 10.666667 8.533333 14.933333 12.8 4.266667 10.666667 8.533333 38.4 6.4 68.266667zM571.733333 714.666667l-8.533333-4.266667s2.133333-2.133333 4.266667-2.133333c6.4-4.266667 12.8-8.533333 17.066666-17.066667 12.8-21.333333 8.533333-53.333333-6.4-70.4-8.533333-8.533333-14.933333-10.666667-29.866666-14.933333-10.666667-2.133333-93.866667-4.266667-96-2.133334-2.133333 2.133333-2.133333 219.733333 0 221.866667 2.133333 2.133333 68.266667 2.133333 87.466666 0 23.466667-2.133333 42.666667-12.8 51.2-32 2.133333-6.4 6.4-25.6 6.4-32 0-8.533333-4.266667-23.466667-8.533333-29.866667-2.133333-8.533333-6.4-12.8-17.066667-17.066666zM499.2 640c0-2.133333 23.466667 0 29.866667 2.133333 10.666667 4.266667 14.933333 10.666667 14.933333 25.6 0 12.8-2.133333 17.066667-8.533333 23.466667-4.266667 4.266667-19.2 6.4-29.866667 6.4h-6.4v-27.733333V640z m29.866667 151.466667c-4.266667 2.133333-27.733333 2.133333-29.866667 2.133333-2.133333 0-2.133333-8.533333-2.133333-32v-32h14.933333c12.8 0 14.933333 0 19.2 2.133333 10.666667 4.266667 14.933333 14.933333 14.933333 27.733334 4.266667 19.2-2.133333 27.733333-17.066666 32z" fill="#FFFFFF" /></svg>