<?xml version="1.0" encoding="UTF-8"?>
<svg width="16px" height="16px" viewBox="0 0 16 16" version="1.1" xmlns="http://www.w3.org/2000/svg" xmlns:xlink="http://www.w3.org/1999/xlink">
    <title>新增任务弹窗</title>
    <defs>
        <filter id="filter-1">
            <feColorMatrix in="SourceGraphic" type="matrix" values="0 0 0 0 0.572549 0 0 0 0 0.713725 0 0 0 0 0.000000 0 0 0 1.000000 0"></feColorMatrix>
        </filter>
    </defs>
    <g id="设计图" stroke="none" stroke-width="1" fill="none" fill-rule="evenodd">
        <g id="新增任务弹窗" transform="translate(-24.000000, -259.000000)">
            <g id="定位备份-6" transform="translate(24.000000, 259.000000)" filter="url(#filter-1)">
                <g>
                    <path d="M14,3 C14.5522847,3 15,3.44771525 15,4 L15,12 C15,12.5522847 14.5522847,13 14,13 L2,13 C1.44771525,13 1,12.5522847 1,12 L1,4 C1,3.44771525 1.44771525,3 2,3 L14,3 Z M14,4 L2,4 L2,12 L14,12 L14,4 Z" id="形状结合" fill="#333333"></path>
                    <path d="M4.696,11.728 C5.352,10.672 5.696,9.264 5.736,7.504 L5.736,6.8 L8.32,6.8 C8.272,7.056 8.216,7.304 8.152,7.56 L6.528,7.56 L6.528,10.312 L7.08,10.312 L7.08,8.088 L10.24,8.088 L10.24,10.28 L10.792,10.28 L10.792,7.56 L8.736,7.56 C8.8,7.32 8.856,7.072 8.904,6.8 L11.528,6.8 L11.528,6.272 L8.992,6.272 C9.024,6.064 9.056,5.84 9.08,5.616 L8.504,5.544 C8.48,5.784 8.448,6.032 8.408,6.272 L5.736,6.272 L5.736,5.488 C7.744,5.456 9.56,5.304 11.176,5.032 L10.888,4.512 C9.2,4.816 7.296,4.984 5.184,5 L5.184,7.504 C5.136,9.12 4.84,10.392 4.296,11.304 L4.696,11.728 Z M5.952,11.8 C6.968,11.512 7.728,11.112 8.224,10.616 C8.704,10.12 8.992,9.392 9.088,8.448 L8.528,8.408 C8.44,9.216 8.176,9.84 7.728,10.272 C7.28,10.704 6.584,11.032 5.64,11.272 L5.952,11.8 Z M11.224,11.792 L11.544,11.304 C10.816,10.832 10.008,10.432 9.12,10.096 L8.832,10.528 C9.648,10.84 10.448,11.264 11.224,11.792 Z" id="质" fill="#333333" fill-rule="nonzero"></path>
                </g>
            </g>
        </g>
    </g>
</svg>