<?xml version="1.0" standalone="no"?><!DOCTYPE svg PUBLIC "-//W3C//DTD SVG 1.1//EN" "http://www.w3.org/Graphics/SVG/1.1/DTD/svg11.dtd"><svg class="icon" width="200px" height="200.00px" viewBox="0 0 1024 1024" version="1.1" xmlns="http://www.w3.org/2000/svg"><path d="M841.142857 292.571429a36.571429 36.571429 0 0 1 36.571429 36.571428v365.860572a36.571429 36.571429 0 0 1-64.073143 24.576l-3.876572-5.339429L658.285714 461.897143V694.857143a36.571429 36.571429 0 0 1-73.142857 0v-365.714286a36.571429 36.571429 0 0 1 70.070857-14.701714L804.571429 563.492571V329.142857a36.571429 36.571429 0 0 1 36.571428-36.571428z m-512 0a36.571429 36.571429 0 0 1 36.571429 36.571428V438.857143h109.714285a36.571429 36.571429 0 0 1 0 73.142857H365.714286v109.714286a36.571429 36.571429 0 0 1-73.142857 0V512H182.857143a36.571429 36.571429 0 0 1 0-73.142857H292.571429V329.142857a36.571429 36.571429 0 0 1 36.571428-36.571428z" fill="#1476BB" /><path d="M914.285714 804.571429a36.571429 36.571429 0 0 1 36.571429 36.571428v36.571429a73.142857 73.142857 0 0 1-73.142857 73.142857H146.285714a73.142857 73.142857 0 0 1-73.142857-73.142857v-36.571429l0.585143-6.582857A36.571429 36.571429 0 0 1 146.285714 841.142857v36.571429h731.428572v-36.571429l0.585143-6.582857A36.571429 36.571429 0 0 1 914.285714 804.571429zM877.714286 73.142857a73.142857 73.142857 0 0 1 73.142857 73.142857v36.571429a36.571429 36.571429 0 0 1-72.557714 6.582857L877.714286 182.857143V146.285714H146.285714v36.571429a36.571429 36.571429 0 0 1-72.557714 6.582857L73.142857 182.857143V146.285714a73.142857 73.142857 0 0 1 73.142857-73.142857h731.428572z" fill="#4C5D7C" /></svg>