<?xml version="1.0" standalone="no"?><!DOCTYPE svg PUBLIC "-//W3C//DTD SVG 1.1//EN" "http://www.w3.org/Graphics/SVG/1.1/DTD/svg11.dtd"><svg class="icon" width="200px" height="200.00px" viewBox="0 0 1024 1024" version="1.1" xmlns="http://www.w3.org/2000/svg"><path fill="#ffffff" d="M94.576 726.416a23.344 23.344 0 1 0 46.704 0c0-83.632 68.032-151.664 151.664-151.664 83.632 0 151.68 68.048 151.68 151.664a23.344 23.344 0 1 0 46.704 0c0-80.976-48.784-150.72-118.48-181.504A140.784 140.784 0 0 0 433.68 429.12c0-77.6-63.136-140.736-140.736-140.736S152.208 351.52 152.208 429.12a140.736 140.736 0 0 0 60.832 115.792c-69.68 30.784-118.464 100.56-118.464 181.504zM292.96 335.12a94.112 94.112 0 0 1 94.016 94.016 94.144 94.144 0 0 1-94.016 94.032 94.144 94.144 0 0 1-94.016-94.032 94.128 94.128 0 0 1 94.016-94.016z m280.192 66.736h333.696a23.36 23.36 0 0 0 0-46.704H573.152a23.344 23.344 0 1 0 0 46.704z m0 143.488h333.696a23.36 23.36 0 1 0 0-46.704H573.152a23.36 23.36 0 1 0 0 46.704z m0 143.504h333.696a23.36 23.36 0 0 0 0.048-46.72H573.152a23.36 23.36 0 1 0-0.048 46.72h0.048zM1023.776 959.088H1.024v-880h1022.752v880zM49.024 901.776h926.752V136.384H49.024v765.392z" /></svg>