<?xml version="1.0" standalone="no"?><!DOCTYPE svg PUBLIC "-//W3C//DTD SVG 1.1//EN" "http://www.w3.org/Graphics/SVG/1.1/DTD/svg11.dtd"><svg class="icon" width="200px" height="200.00px" viewBox="0 0 1024 1024" version="1.1" xmlns="http://www.w3.org/2000/svg"><path fill="#333333" d="M1012.882 509.44a502.93 502.93 0 0 1-509.22 503.15A506.222 506.222 0 1 1 549.157 1.975a502.491 502.491 0 0 1 463.798 507.392zM72.12 504.466A433.737 433.737 0 0 0 260.754 860.38a100.937 100.937 0 0 0 140.361-16.164c31.232-38.985 62.099-78.702 89.381-120.32A1135.69 1135.69 0 0 1 710.51 475.209a1288.63 1288.63 0 0 0 132.023-129.243 81.554 81.554 0 0 0 1.316-107.74 426.203 426.203 0 0 0-540.38-112.42A426.642 426.642 0 0 0 72.12 504.174z m0 0"  /><path fill="#333333" d="M300.544 527.214a209.042 209.042 0 0 1 333.312-186.076c32.622 23.406 31.378 48.494 1.317 75.41-43.886 39.205-88.723 77.605-128.878 120.467a865.646 865.646 0 0 0-63.342 91.575 109.275 109.275 0 0 1-32.036 34.011 39.205 39.205 0 0 1-51.2-8.119 212.553 212.553 0 0 1-59.32-127.195z m0 0"  /></svg>