<?xml version="1.0" standalone="no"?><!DOCTYPE svg PUBLIC "-//W3C//DTD SVG 1.1//EN" "http://www.w3.org/Graphics/SVG/1.1/DTD/svg11.dtd"><svg class="icon" width="200px" height="200.00px" viewBox="0 0 1024 1024" version="1.1" xmlns="http://www.w3.org/2000/svg"><path d="M0.605091 369.245091a234.589091 234.589091 0 0 0 47.243636-4.421818c15.313455-2.513455 28.811636-7.586909 41.658182-13.917091a103.796364 103.796364 0 0 0 31.883636-25.274182c8.610909-10.100364 14.754909-22.760727 17.221819-37.282909H201.076364V774.981818H116.503273V431.802182H0.605091V369.245091zM621.149091 775.028364h-322.56c0.651636-40.448 9.821091-75.217455 28.253091-105.518546 18.385455-30.347636 43.52-56.32 75.403636-78.382545 15.36-11.403636 31.278545-22.807273 47.802182-33.512728 16.570182-10.752 31.883636-22.760727 45.986909-34.769454 14.103273-12.660364 25.134545-25.925818 34.350546-40.494546 9.216-14.522182 13.498182-31.557818 14.103272-50.548363 0-8.843636-1.210182-18.292364-3.072-27.787637a78.801455 78.801455 0 0 0-11.636363-27.834181 69.026909 69.026909 0 0 0-24.529455-21.457455c-10.426182-5.725091-23.924364-8.843636-40.494545-8.843636-15.313455 0-28.16 3.118545-37.981091 9.448727-9.774545 6.330182-18.385455 14.568727-24.529455 25.925818-6.144 10.705455-10.426182 24.017455-13.498182 38.539637a235.380364 235.380364 0 0 0-4.887272 48.034909H307.805091c0-26.530909 3.723636-51.805091 10.426182-74.565819a160.581818 160.581818 0 0 1 31.278545-59.438545 150.388364 150.388364 0 0 1 50.874182-39.191273c20.247273-9.448727 42.961455-14.522182 69.911273-14.522182 28.858182 0 52.736 5.073455 72.378182 14.522182 18.990545 9.495273 34.909091 22.155636 46.545454 36.677818 11.682909 14.522182 20.293818 30.999273 25.181091 48.03491 4.887273 17.082182 7.354182 34.164364 7.354182 49.943272 0 19.595636-3.072 37.282909-8.564364 52.456728-6.144 15.825455-13.498182 30.347636-23.272727 43.61309-9.867636 13.265455-20.898909 25.274182-33.745455 36.677819a446.184727 446.184727 0 0 1-39.284363 30.952727c-13.498182 9.495273-26.996364 18.990545-40.494546 27.834182-13.451636 8.843636-25.693091 17.687273-37.376 26.530909-11.636364 8.843636-21.410909 17.687273-30.021818 27.182545a85.457455 85.457455 0 0 0-17.780364 30.347637h229.934546v70.144z" fill="#8A919F" /><path d="M821.061818 489.984c12.241455 0.605091 25.134545-0.651636 37.981091-2.56 12.288-2.513455 23.924364-6.283636 33.745455-12.008727 9.774545-5.678545 17.780364-13.870545 23.924363-24.017455 6.097455-10.100364 9.169455-22.760727 9.169455-37.236363 0-20.898909-6.749091-37.329455-20.852364-49.989819-13.498182-12.613818-31.278545-18.944-52.736-18.944-13.498182 0-25.134545 2.513455-34.909091 8.192-9.821091 5.725091-17.826909 13.312-24.529454 22.807273-6.749091 9.448727-11.636364 20.200727-14.754909 32.209455a146.199273 146.199273 0 0 0-4.282182 36.677818h-76.660364c0.651636-23.412364 4.933818-45.521455 12.893091-65.768727 7.354182-20.200727 17.780364-37.934545 31.278546-52.456728 13.498182-14.522182 29.416727-26.530909 48.407272-34.769454 19.037091-8.192 40.494545-12.613818 63.767273-12.613818a171.333818 171.333818 0 0 1 101.794909 32.256c14.149818 10.705455 25.786182 23.970909 33.745455 40.401454 8.610909 16.430545 12.893091 35.374545 12.893091 56.925091 0 24.669091-5.538909 46.08-15.965091 64.465455-11.031273 18.338909-27.601455 31.604364-50.269091 39.796363v1.256727c26.996364 5.725091 47.848727 19.595636 63.162182 41.099637 15.36 22.109091 22.667636 48.686545 22.667636 80.290909 0 23.365818-4.282182 43.613091-13.498182 61.905454-9.169455 18.385455-20.805818 33.512727-36.165818 46.824728-15.36 12.613818-33.093818 22.760727-53.341091 29.696-20.247273 6.981818-41.704727 10.100364-63.767273 10.100363-27.601455 0-51.525818-3.770182-71.726545-12.008727a148.573091 148.573091 0 0 1-51.525818-34.117818 153.413818 153.413818 0 0 1-31.278546-53.76 225.512727 225.512727 0 0 1-11.636363-69.492364h76.660363c-0.605091 29.696 6.097455 54.365091 21.410909 73.960728 15.36 19.549091 37.422545 29.696 67.490909 29.696 25.739636 0 47.197091-7.586909 64.372364-22.807273 17.175273-15.127273 25.739636-36.631273 25.739636-64.418909 0-18.990545-3.677091-34.164364-11.031272-44.869818a68.654545 68.654545 0 0 0-28.206546-25.320728 109.521455 109.521455 0 0 0-39.237818-10.705454 349.742545 349.742545 0 0 0-44.730182-1.303273v-59.392z" fill="#3C8CFF" /></svg>