<?xml version="1.0" standalone="no"?><!DOCTYPE svg PUBLIC "-//W3C//DTD SVG 1.1//EN" "http://www.w3.org/Graphics/SVG/1.1/DTD/svg11.dtd"><svg class="icon" width="200px" height="166.78px" viewBox="0 0 1228 1024" version="1.1" xmlns="http://www.w3.org/2000/svg"><path d="M857.174016 993.348267a129.024 129.024 0 0 0-128.887467-127.5904h-192.512a129.024 129.024 0 0 0-128.887466 127.5904v29.354666h450.56z" fill="#808080" /><path d="M0.086016 835.242667V5.3248h1224.157867v829.917867H0.086016z" fill="#808080" fill-opacity="0" /><path d="M292.813483 246.237867a26.624 26.624 0 1 1-53.248 0V85.6064h53.248c0.4096 58.231467-0.6144 102.4 0 160.631467M161.468416 374.306133c1.979733 0-28.330667-2.2528-28.330667-20.957866V85.6064h53.248l0.682667 263.645867a24.917333 24.917333 0 0 1-25.6 25.053866M1112.832683 5.3248H111.497216A111.4112 111.4112 0 0 0 0.086016 116.462933v604.5696a109.909333 109.909333 0 0 0 106.427733 114.210134h1011.3024a109.841067 109.841067 0 0 0 106.427734-114.210134V116.462933A111.479467 111.479467 0 0 0 1112.832683 5.3248" fill="#808080" /></svg>