<?xml version="1.0" standalone="no"?><!DOCTYPE svg PUBLIC "-//W3C//DTD SVG 1.1//EN" "http://www.w3.org/Graphics/SVG/1.1/DTD/svg11.dtd"><svg class="icon" width="200px" height="198.07px" viewBox="0 0 1034 1024" version="1.1" xmlns="http://www.w3.org/2000/svg"><path fill="#333333" d="M14.756747 689.478958c22.391875 20.109508 52.494451 4.441364 67.854167 6.723731s46.881061-18.999167 60.883693-20.664678S275.56349 663.75606 339.284721 634.763825l-40.774186-40.774186s-4.996534-18.999167 6.723731-27.388409 32.384943-5.551705 47.497917-13.385776 63.104375-55.517046 101.596194-54.159963 85.434565 27.326724 101.657879 27.326724 35.715966-47.436231 175.927348-47.436231 202.698902 170.313959 202.698902 170.313958l-13.385776 27.38841s-10.054754 35.160796 0 40.774185 40.774186-12.892292 60.883693 20.664678 34.050455 54.159962 34.050455 54.159963 27.388409-67.854167 13.385776-108.936781-47.436231-44.105208-60.883693-74.82464-37.936648-216.701534-182.589394-319.963239-269.257671-89.382443-284.308959-102.76822-20.109508-43.179924-20.109508-74.824641S501.764608 1.992877 501.764608 1.992877 436.439551-19.226972 407.138888 76.817517s-25.722898 132.377311-54.159962 149.710966a1191.457483 1191.457483 0 0 0-182.959508 142.92555C95.194777 440.94765 51.644739 482.277007 34.866255 525.827045S-1.404882 633.098314 0.8158 648.149602s-8.944413 21.219849 13.940947 41.329356z m87.716932-272.527008l87.655246-81.548372-6.723731-54.159962s-53.851534 23.44053-67.545739 54.159962-13.385777 81.548371-13.385776 81.548372z m216.639849 163.651913c0.55517 0 50.273769 64.214716 165.317424 64.769886s166.551137-78.217349 166.551137-78.217348-100.547538-19.554337-115.043655-27.326724-30.842803-31.274602-67.854167-27.388409-72.048788 22.330189-74.022728 34.050455-74.948012 34.11214-74.948011 34.11214z m-108.319925-61.685606c14.496117-10.054754 27.94358-25.167727 56.380644-30.164262s47.497917 2.220682 51.939281 10.054754-6.662045 27.881894-26.771553 46.881061a89.505815 89.505815 0 0 1-48.053087 21.219848c-42.439697 7.834072-40.219015 5.61339-47.436232 0s-0.55517-37.689905 13.940947-47.744659z m-26.771553 67.854166h20.047822l6.723731 6.723731-26.771553 6.662046V587.265908z m26.771553 40.774186c29.053921-10.609924 59.218182-43.179924 74.022728-34.050455s40.774186 40.774186 40.774185 40.774186l-182.589394 34.050455S43.193811 693.920321 40.479645 685.592765s14.496117-10.054754 39.108674-13.447463 15.606458-18.999167 60.822008-26.216382 41.329356-7.278902 70.383276-17.888826z m325.021459-115.105341s96.044489-112.267803 189.313126-115.598826 154.214015 81.548371 159.148864 104.433731c1.727197 7.834072-72.048788-48.053087-91.54144-53.604792-16.778485-4.503049-42.439697 2.775852-42.439697 2.775853s40.15733 8.944413 62.549205 21.775019 43.550038 42.439697 43.550038 42.439697-80.191288-47.991402-131.822141-50.273769a267.838902 267.838902 0 0 0-93.823807 14.002632s-54.715133 29.609091-67.854167 34.050455a57.059186 57.059186 0 0 1-27.388409 0z m270.306327 203.5625s14.496117-40.7125 34.050454-34.050454 47.497917 13.385777 47.497917 13.385776 26.771553-8.882727 26.771553-27.326723-20.109508-67.854167-20.109508-67.854167-76.490152 28.49875-87.655246 61.685606-0.55517 54.715133-0.55517 54.715133zM840.171843 641.549242c28.49875-22.330189 47.497917-27.326724 47.497917-27.326724a255.748523 255.748523 0 0 1 13.385776 39.602159c2.775852 14.557803-3.331023 28.49875-13.385776 28.49875-12.337121 0-36.332822-4.441364-53.604792-5.551704a23.008731 23.008731 0 0 0-20.664678 12.337121c-0.55517 0.55517-1.727197-24.674242 26.771553-47.497917zM889.890442 900.011932v27.388409h126.76392V962.314394h-126.76392v27.388409h133.487652v34.050455h-167.538107v-157.791781h171.4243v34.050455z m-201.588561 27.388409h116.153996s34.050455 13.940947 34.050455 47.991401-34.050455 48.053087-34.050455 48.053088h-147.428599v-34.050455h140.149698a16.963542 16.963542 0 0 0 3.331022-24.057386l-3.331022-3.331023H681.022979s-30.842803-8.944413-30.842803-48.053087 30.842803-47.991402 30.842803-47.991402h150.759622v30.842803h-144.035891a20.109508 20.109508 0 0 0-6.723731 17.27197c0 11.720265 7.278902 13.447462 7.278902 13.447462z m-99.437197-64.831572H475.486539c-30.842803 0-41.329356 37.443163-41.329356 37.443163v123.371212h37.998334v-51.38411H592.195706v51.38411h37.443163v-126.702235s-13.940947-34.11214-40.774185-34.11214zM592.195706 906.797348v27.326724H472.155517V906.797348a13.75589 13.75589 0 0 1 10.609924-6.723731h99.437197A15.359716 15.359716 0 0 1 592.195706 906.797348z m-424.39697 55.517046H41.034815v61.685606H6.182448v-161.431231h34.852367v64.831572H167.798736v-64.831572h34.050454v160.876061H167.798736z m234.405303-18.999167a62.05572 62.05572 0 0 0 12.337122-37.011364c0-22.391875-24.674242-43.611724-24.674243-43.611723H223.069039v160.876061h166.982936a38.615189 38.615189 0 0 0 25.722898-37.443163c0-29.979205-13.447462-43.118239-13.447462-43.118239z m-24.674242 49.348485H253.788471v-24.674242h123.371212a13.077349 13.077349 0 0 1 6.168561 11.22678 18.505682 18.505682 0 0 1-5.551705 12.953977z m0-67.854167H253.788471v-24.674242h123.371212a12.953977 12.953977 0 0 1 6.168561 11.165095 20.602992 20.602992 0 0 1-5.551705 13.262405z"  /></svg>