<?xml version="1.0" standalone="no"?><!DOCTYPE svg PUBLIC "-//W3C//DTD SVG 1.1//EN" "http://www.w3.org/Graphics/SVG/1.1/DTD/svg11.dtd"><svg class="icon" width="200px" height="141.63px" viewBox="0 0 1446 1024" version="1.1" xmlns="http://www.w3.org/2000/svg"><path d="M291.326108 587.155471c7.094151 18.275769 23.617375 39.143788 51.575482 69.030508 41.210546 44.381109 85.5903 69.740194 175.406212 98.272552 17.962911 5.282014 26.415488 48.604011 8.452577 48.604011-35.925823 0-144.762403-46.49256-193.369123-82.418383l-58.1157-42.265594c-1.053694-34.379141-0.037922-49.954311 12.186555-117.039954-1.447814 14.293943 3.863997 25.81686 3.863997 25.81686zM414.753236 482.893928c12.679543 52.832331 91.930071 203.934505 114.119948 219.784611 11.62314 8.453931 19.019314 19.022023 14.792349 22.191232-8.452577 8.453931-115.174997-61.288972-147.931611-96.158392-27.473246-29.584697-46.493914-68.681083-54.946492-113.062191-6.339771-34.86942-4.226966-39.095031 23.24628-48.605366 42.266949-15.850106 42.266949-15.850106 50.719526 15.850106z" fill="#FFF200" /><path d="M868.062467 240.918085l-29.587406-57.059297" fill="#FAED23" /><path d="M388.336393 56.002894c99.326246 41.209191 209.220583 100.382648 246.204163 133.139263 24.302683 22.189877 41.209191 50.719526 53.888734 94.042877 11.62314 36.982226 25.36044 62.342666 33.813017 62.342666 12.680897 0 12.680897-3.170563 0-16.906509-8.452577-9.510334-19.019314-39.096386-23.24628-64.456826-7.396174-46.49256-50.719526-104.609614-88.759508-118.345559-12.678188-5.283369-11.62314-10.566737 8.453931-30.643809 20.075717-21.13212 33.813017-25.359086 79.249174-23.24628 49.663123 1.056403 58.117054 5.283369 88.759509 42.266949 19.020669 22.189877 42.266949 54.946491 50.719525 73.965805 14.793703 31.700211 14.793703 39.096386-4.226965 95.09928l-21.13212 61.286263 36.982225 71.853c39.096386 79.249174 43.323351 97.212086 20.077072 88.758154-8.453931-4.224257-17.964266-2.11416-21.133474 3.171917-4.226966 6.338417-1.055048 10.565383 5.283368 10.565383s9.50898 4.226966 6.339772 9.50898c-4.226966 5.282014 0 12.680897 6.341125 14.795057 7.397529 3.169209-2.11416 3.169209-20.075717 0-22.189877-3.169209-34.870774-1.057757-34.870774 5.282014 0 7.396174 8.453931 9.50898 19.020669 5.282014 15.850106-6.338417 16.906509-5.282014 2.112805 12.680898-14.792349 17.964266-14.792349 19.019314 8.453932 6.338417 25.36044-13.734591 28.529649-9.507626 12.679542 21.134828-7.396174 12.678188-7.396174 20.074363-1.056402 20.074363 5.283369 0 15.850106-16.905154 23.24628-36.98358 12.679543-34.86942 30.643809-49.661768 30.643808-26.415488 0 15.850106 24.302683 12.680897 48.605366-5.282015 19.022023-13.7373 19.022023-14.795057-6.339772-9.50898-23.24628 4.226966-23.24628 3.169209-5.283368-5.284723 11.62314-5.282014 25.361794-5.282014 30.645163-1.055048 14.792349 14.792349-14.795057 113.062191-47.550317 157.4433-31.698857 45.437511-79.249174 63.399068-127.855895 48.60672-35.924468-11.62314-115.176351-79.249174-107.778822-91.931426 4.226966-6.341126 1.056403-9.50898-6.339772-6.341126-8.453931 2.11416-16.906509 10.568091-19.020668 19.023378-3.169209 7.396174 0 10.565383 7.397528 6.341125 17.962911-11.62314 13.735946 21.130766-4.226965 35.924469-9.50898 7.396174-14.793703 20.077071-11.62314 28.528294 3.169209 8.453931 1.056403 11.62314-4.226966 8.453931-6.339771-3.169209-10.566737-12.678188-10.566737-21.133474 0-7.396174-12.679543-28.528294-27.473246-47.550317-23.24628-26.416843-26.416843-39.09774-22.189877-71.854354 6.339771-35.924468 4.226966-40.151434-27.4746-54.943783-32.756614-14.795057-33.813017-19.022023-36.98358-85.5903l-3.169209-70.796597-39.096385 9.510334c-21.133474 4.226966-81.363334 22.189877-134.195666 40.152789-124.686686 41.210546-185.972948 36.98358-203.93586-13.735946-7.396174-17.962911-33.813017-57.059297-60.229859-85.5903-62.345374-68.681083-77.139077-119.400608-50.722235-172.234294C52.319028 148.988014 61.828008 142.648243 93.528219 139.479034c21.133474-2.11416 63.400423 6.339771 94.042877 17.962911 71.853 27.473246 80.306931 21.133474 15.850106-9.510334l-48.60672-23.24628 29.587406-33.813017C256.253533 9.50898 273.161396 6.339771 388.336393 56.002894z" fill="#FFF200" /><path d="M190.741659 54.946491C146.361905 99.326246 127.341236 110.949386 90.359011 115.174997c-41.210546 6.341126-47.550317 10.566737-69.740195 56.002894C-12.137798 236.69112-4.740269 267.334928 60.771605 342.357137c28.529649 32.756614 61.286263 80.306931 72.909403 106.723774l21.133474 47.548963h58.117054c31.698857 0 69.73884-4.226966 84.532543-10.566738 32.756614-12.679543 32.756614-10.566737 5.283369 35.925823s-21.133474 68.683791 40.152788 134.195666c41.210546 44.381109 85.5903 69.740194 175.406211 98.272551 17.962911 5.282014 26.415488 48.604011 8.452577 48.604012-35.925823 0-144.762403-46.49256-193.369122-82.418383l-58.1157-42.265594 10.566737 47.547608c4.806633 19.22924 8.739702 31.241082 15.976061 40.911232 8.669275 11.585218 22.082882 19.808908 47.423007 33.054574 28.529649 13.7373 85.5903 32.759323 127.855895 41.210545 70.796597 14.795057 96.158391 29.587406 84.533897 48.60672-9.510334 14.795057-73.96716 9.50898-143.706-12.678188-47.000446-14.461884-67.540709-20.677054-70.441754-18.449128-2.187296 1.67941 5.643629 8.153263 19.720874 19.504176 46.022596 37.197569 80.385484 56.337422 116.778562 61.23886 24.601997 3.312771 50.131732 0.119184 80.817526-8.405174 26.416843-7.396174 34.870774-6.341126 40.154143 7.396174 4.226966 10.568091-1.056403 23.24628-11.62314 30.642454-8.267029 6.10953-12.86509 10.01822-13.175239 11.769412-0.598628 3.398096 14.954872-1.329984 51.213868-13.880863 24.301328-8.453931 46.493914-15.850106 48.60672-15.850106s4.226966 16.905154 4.226965 38.038629c0 32.756614 3.169209 36.98358 23.24628 33.814371 21.133474-3.171917 24.302683-8.453931 21.133474-41.210545-2.11416-22.191231 1.056403-42.265594 7.396175-46.49256 7.397529-4.226966 11.62314 10.565383 11.62314 42.265594 0 44.379754 2.11416 48.60672 24.302683 45.437511 22.189877-3.171917 23.247634-8.453931 25.36044-110.949385l3.171917-108.837934H774.018236c-24.302683 0-26.416843 4.226966-26.416843 43.323351 0 25.36044-4.225611 40.154143-10.566737 35.927177-5.282014-3.169209-10.566737-23.24628-10.566738-43.323351 0-28.528294-4.226966-35.927177-21.133474-35.927177-19.019314 0-21.13212 7.398883-21.13212 59.173457v58.118408l-33.813017-3.171917c-19.020669-2.11416-32.757969-7.396174-31.700211-12.678188 2.112806-5.284723-3.170563-13.740009-12.679543-19.022023-24.302683-13.7373-21.133474-38.038628 7.396174-43.323352 21.133474-4.224257 21.133474-4.224257-3.170563-6.338417-32.756614-1.057757-52.832331-19.019314-52.832331-46.49256 0-17.964266 1.056403-17.964266 16.907863-3.171917 8.451223 9.50898 23.24628 16.905154 32.756614 16.905154 12.679543 0 9.50898-7.396174-10.566737-27.470537-15.850106-15.850106-25.361794-31.700211-22.189877-36.98358 11.62314-19.022023 44.379754-8.453931 62.341311 17.961557 15.850106 24.304037 22.191231 26.418197 56.004249 21.134829 50.719526-9.511689 69.740194-9.511689 135.250714-1.057757 49.665832 7.396174 56.005603 5.284723 91.930071-25.36044 36.984934-32.756614 62.342666-87.70446 76.08132-171.1806 8.452577-46.49256-12.679543-70.795243-46.493914-52.833686-29.587406 15.850106-43.321997 14.792349-43.321997-5.282014 0-9.50898-16.905154-49.661768-38.039983-88.758154l-38.039983-71.853 19.019314-60.22986 19.020669-60.22986-29.587406-57.059297c-43.321997-81.363334-80.305577-109.892983-143.704645-109.892983-40.152789 0-58.117054 6.339771-83.477494 27.473246L578.537662 128.912297l-94.044232-48.60672c-80.306931-41.209191-190.199914-80.305577-228.239897-80.305577-6.339771 0-35.925823 24.302683-65.511874 54.946491z m197.594734 1.056403c99.326246 41.209191 209.220583 100.382648 246.204163 133.139263 24.302683 22.189877 41.209191 50.719526 53.888734 94.042877 11.62314 36.982226 25.36044 62.342666 33.813017 62.342666 12.680897 0 12.680897-3.170563 0-16.906509-8.452577-9.510334-19.019314-39.096386-23.24628-64.456826-7.396174-46.49256-50.719526-104.609614-88.759508-118.345559-12.678188-5.283369-11.62314-10.566737 8.453931-30.643809 20.075717-21.13212 33.813017-25.359086 79.249174-23.24628 49.663123 1.056403 58.117054 5.283369 88.759509 42.266949 19.020669 22.189877 42.266949 54.946491 50.719525 73.965805 14.793703 31.700211 14.793703 39.096386-4.226965 95.09928l-21.13212 61.286263 36.982225 71.853c39.096386 79.249174 43.323351 97.212086 20.077072 88.758154-8.453931-4.224257-17.964266-2.11416-21.133474 3.171917-4.226966 6.338417-1.055048 10.565383 5.283368 10.565383s9.50898 4.226966 6.339772 9.50898c-4.226966 5.282014 0 12.680897 6.341125 14.795057 7.397529 3.169209-2.11416 3.169209-20.075717 0-22.189877-3.169209-34.870774-1.057757-34.870774 5.282014 0 7.396174 8.453931 9.50898 19.020669 5.282014 15.850106-6.338417 16.906509-5.282014 2.112805 12.680898-14.792349 17.964266-14.792349 19.019314 8.453932 6.338417 25.36044-13.734591 28.529649-9.507626 12.679542 21.134828-7.396174 12.678188-7.396174 20.074363-1.056402 20.074363 5.283369 0 15.850106-16.905154 23.24628-36.98358 12.679543-34.86942 30.643809-49.661768 30.643808-26.415488 0 15.850106 24.302683 12.680897 48.605366-5.282015 19.022023-13.7373 19.022023-14.795057-6.339772-9.50898-23.24628 4.226966-23.24628 3.169209-5.283368-5.284723 11.62314-5.282014 25.361794-5.282014 30.645163-1.055048 14.792349 14.792349-14.795057 113.062191-47.550317 157.4433-31.698857 45.437511-79.249174 63.399068-127.855895 48.60672-35.924468-11.62314-115.176351-79.249174-107.778822-91.931426 4.226966-6.341126 1.056403-9.50898-6.339772-6.341126-8.453931 2.11416-16.906509 10.568091-19.020668 19.023378-3.169209 7.396174 0 10.565383 7.397528 6.341125 17.962911-11.62314 13.735946 21.130766-4.226965 35.924469-9.50898 7.396174-14.793703 20.077071-11.62314 28.528294 3.169209 8.453931 1.056403 11.62314-4.226966 8.453931-6.339771-3.169209-10.566737-12.678188-10.566737-21.133474 0-7.396174-12.679543-28.528294-27.473246-47.550317-23.24628-26.416843-26.416843-39.09774-22.189877-71.854354 6.339771-35.924468 4.226966-40.151434-27.4746-54.943783-32.756614-14.795057-33.813017-19.022023-36.98358-85.5903l-3.169209-70.796597-39.096385 9.510334c-21.133474 4.226966-81.363334 22.189877-134.195666 40.152789-124.686686 41.210546-185.972948 36.98358-203.93586-13.735946-7.396174-17.962911-33.813017-57.059297-60.229859-85.5903-62.345374-68.681083-77.139077-119.400608-50.722235-172.234294C52.319028 148.988014 61.828008 142.648243 93.528219 139.479034c21.133474-2.11416 63.400423 6.339771 94.042877 17.962911 71.853 27.473246 80.306931 21.133474 15.850106-9.510334l-48.60672-23.24628 29.587406-33.813017C256.253533 9.50898 273.161396 6.339771 388.336393 56.002894z m26.416843 426.891034c12.679543 52.832331 91.930071 203.934505 114.119948 219.784611 11.62314 8.453931 19.019314 19.022023 14.792349 22.191232-8.452577 8.453931-115.174997-61.288972-147.931611-96.158392-27.473246-29.584697-46.493914-68.681083-54.946492-113.062191-6.339771-34.86942-4.226966-39.095031 23.24628-48.605366 42.266949-15.850106 42.266949-15.850106 50.719526 15.850106zM715.902536 755.512225c-7.396174 8.453931-21.133474 15.850106-30.642455 15.850105-11.62314 0-8.453931-5.282014 9.50898-14.795057 34.86942-20.074363 36.98358-20.074363 21.133475-1.055048z"  /><path d="M737.034656 141.59184c0 12.679543 52.833686 105.666017 52.833685 92.986474 0-20.077071-27.471891-83.47614-41.210545-90.872314-6.338417-4.226966-11.62314-5.283369-11.62314-2.11416zM509.852516 247.257857c59.173457 10.566737 61.286263 12.679543 36.98358 24.304037l-26.416843 12.679543h31.700211c22.191231 1.056403 40.152789 11.62314 61.286263 34.86942l29.587406 34.86942-26.416843-53.888735c-30.642454-62.34402-40.152789-67.626034-115.176351-66.569631l-54.946492 1.056403 63.399069 12.679543zM700.05243 444.853945c-11.62314 17.962911 0 21.133474 22.189877 4.226966 17.964266-13.7373 17.964266-14.793703 2.115514-15.850106-9.511689 0-21.134829 5.283369-24.305391 11.62314zM712.733327 504.026048c-12.680897 12.680897-7.398883 24.304037 11.62314 25.36044 14.793703 0 14.793703 2.11416-3.171917 9.50898-15.850106 6.341126-11.62314 8.453931 19.020668 7.396174 27.473246-2.111451 38.039983-6.338417 33.813018-15.850106-3.170563-8.451223-5.282014-19.016606-5.282015-24.299974 0-10.568091-45.436157-12.680897-56.002894-2.115514zM813.114621 910.841365c3.169209 103.553211 4.226966 108.835226 27.473246 112.007142 23.24628 3.169209 23.24628 2.11416 23.24628-107.780177v-112.007142h-53.890089l3.170563 107.780177zM878.62785 826.310176c10.568091 47.547608 38.039983 190.19856 38.039983 195.480574 0 2.11416 12.679543 3.171917 28.529648 1.057757 26.415488-3.171917 30.642454-9.50898 42.265594-60.22986 6.339771-31.700211 15.850106-80.306931 19.020669-108.835225 7.396174-49.664477 6.339771-50.722234-20.077072-50.722234-25.359086 0-27.473246 4.226966-27.473245 42.268302 0 23.24628-4.226966 42.265594-10.566737 42.265595-5.283369 0-10.566737-11.62314-10.566738-25.36044 0-42.265594-11.62314-59.173457-38.039982-59.173457-21.13212 0-25.359086 4.226966-21.13212 23.248988zM1026.560815 910.841365l3.170563 108.835225h51.775929c48.608074 0 51.777283-2.11416 54.946491-29.584697 3.170563-25.36044 0-28.531003-28.528294-28.531003-17.964266 0-32.757969-5.282014-32.757969-10.565383 0-6.341126 7.396174-10.568091 15.850106-10.568091 9.50898 0 15.850106-9.50898 15.850106-26.418197 0-14.792349-4.226966-26.415488-10.566737-26.415489-5.283369 0-10.568091-7.396174-10.568092-15.850105 0-9.50898 9.510334-15.847397 26.416843-15.847397 21.133474 0 26.418197-5.284723 26.418197-26.418198 0-25.36044-3.171917-26.418197-57.062006-26.418197h-57.059297l2.11416 107.781532z"  /><path d="M301.704588 766.837405c8.669275 11.585218 22.082882 19.808908 47.423007 33.054574 28.529649 13.7373 85.5903 32.759323 127.855895 41.210546 70.796597 14.795057 96.158391 29.587406 84.533897 48.60672-9.510334 14.795057-73.96716 9.50898-143.706-12.678189-47.000446-14.461884-67.181803-20.108222-70.441754-18.449127-30.561192-26.670109-45.665044-91.744524-45.665045-91.744524zM465.031239 935.432527c21.848578 5.286077 36.757401 5.674779 49.18097 4.818822 18.019795-2.054568 28.131466-3.257242 50.676186-9.45616 26.416843-7.396174 34.870774-6.341126 40.152789 7.396174 4.226966 10.568091-1.055048 23.24628-11.62314 30.642454-8.267029 6.10953-12.863736 10.01822-13.173885 11.769412-96.171935-9.644416-115.212919-45.170702-115.21292-45.170702z" fill="#FFF200" /></svg>