<?xml version="1.0" encoding="UTF-8"?>
<svg width="16px" height="16px" viewBox="0 0 16 16" version="1.1" xmlns="http://www.w3.org/2000/svg" xmlns:xlink="http://www.w3.org/1999/xlink">
    <title>画板</title>
    <defs>
        <filter id="filter-1">
            <feColorMatrix in="SourceGraphic" type="matrix" values="0 0 0 0 1.000000 0 0 0 0 1.000000 0 0 0 0 1.000000 0 0 0 1.000000 0"></feColorMatrix>
        </filter>
    </defs>
    <g id="设计图" stroke="none" stroke-width="1" fill="none" fill-rule="evenodd">
        <g id="左边tab-icon" transform="translate(-20.000000, -504.000000)">
            <g id="数据管理备份-8" transform="translate(20.000000, 504.000000)" filter="url(#filter-1)">
                <g>
                    <path d="M3,2.5 L3,13 L3,13 L13.5,13 C13.7761424,13 14,13.2238576 14,13.5 C14,13.7761424 13.7761424,14 13.5,14 L2.5,14 L2.5,14 C2.22385763,14 2,13.7761424 2,13.5 L2,2.5 C2,2.22385763 2.22385763,2 2.5,2 C2.77614237,2 3,2.22385763 3,2.5 Z" id="路径" fill="#0F0F0F"></path>
                    <rect id="矩形" fill="#0F0F0F" x="13" y="2" width="1" height="10" rx="0.5"></rect>
                    <rect id="矩形备份-3" fill="#0F0F0F" x="10" y="4" width="1" height="8" rx="0.5"></rect>
                    <rect id="矩形备份-6" fill="#0F0F0F" x="7" y="6" width="1" height="6" rx="0.5"></rect>
                    <rect id="矩形备份-7" fill="#0F0F0F" x="4" y="8" width="1" height="4" rx="0.5"></rect>
                </g>
            </g>
        </g>
    </g>
</svg>