<?xml version="1.0" encoding="UTF-8"?>
<svg width="16px" height="16px" viewBox="0 0 16 16" version="1.1" xmlns="http://www.w3.org/2000/svg" xmlns:xlink="http://www.w3.org/1999/xlink">
    <title>画板</title>
    <defs>
        <filter id="filter-1">
            <feColorMatrix in="SourceGraphic" type="matrix" values="0 0 0 0 1.000000 0 0 0 0 1.000000 0 0 0 0 1.000000 0 0 0 1.000000 0"></feColorMatrix>
        </filter>
    </defs>
    <g id="设计图" stroke="none" stroke-width="1" fill="none" fill-rule="evenodd">
        <g id="左边tab-icon" transform="translate(-20.000000, -312.000000)">
            <g id="数据管理备份-5" transform="translate(20.000000, 312.000000)" filter="url(#filter-1)">
                <g>
                    <path d="M3.18377223,12.6324555 L3.36754447,13.1837722 L2.81622777,13.3675445 L2.63245553,12.8162278 L3.18377223,12.6324555 Z M13.1837722,12.6324555 L13.3675445,13.1837722 L12.8162278,13.3675445 L12.6324555,12.8162278 L13.1837722,12.6324555 Z M8.18377223,12.6324555 L8.36754447,13.1837722 L7.81622777,13.3675445 L7.63245553,12.8162278 L8.18377223,12.6324555 Z M3.18377223,7.63245553 L3.36754447,8.18377223 L2.81622777,8.36754447 L2.63245553,7.81622777 L3.18377223,7.63245553 Z M13.1837722,7.63245553 L13.3675445,8.18377223 L12.8162278,8.36754447 L12.6324555,7.81622777 L13.1837722,7.63245553 Z M8.18377223,7.63245553 L8.36754447,8.18377223 L7.81622777,8.36754447 L7.63245553,7.81622777 L8.18377223,7.63245553 Z M3.18377223,2.63245553 L3.36754447,3.18377223 L2.81622777,3.36754447 L2.63245553,2.81622777 L3.18377223,2.63245553 Z M13.1837722,2.63245553 L13.3675445,3.18377223 L12.8162278,3.36754447 L12.6324555,2.81622777 L13.1837722,2.63245553 Z M8.18377223,2.63245553 L8.36754447,3.18377223 L7.81622777,3.36754447 L7.63245553,2.81622777 L8.18377223,2.63245553 Z" id="形状结合" stroke="#333333"></path>
                </g>
            </g>
        </g>
    </g>
</svg>