<?xml version="1.0" encoding="UTF-8"?>
<svg width="16px" height="16px" viewBox="0 0 16 16" version="1.1" xmlns="http://www.w3.org/2000/svg" xmlns:xlink="http://www.w3.org/1999/xlink">
    <title>画板</title>
    <defs>
        <filter id="filter-1">
            <feColorMatrix in="SourceGraphic" type="matrix" values="0 0 0 0 1.000000 0 0 0 0 1.000000 0 0 0 0 1.000000 0 0 0 1.000000 0"></feColorMatrix>
        </filter>
    </defs>
    <g id="设计图" stroke="none" stroke-width="1" fill="none" fill-rule="evenodd">
        <g id="左边tab-icon" transform="translate(-20.000000, -840.000000)">
            <g id="Json" transform="translate(20.000000, 840.000000)" filter="url(#filter-1)">
                <g>
                    <rect id="矩形" fill="#333333" x="1" y="12" width="14" height="1" rx="0.5"></rect>
                    <rect id="矩形备份-3" fill="#333333" x="1" y="4" width="14" height="1" rx="0.5"></rect>
                    <path d="M2.40669856,11 C2.93588517,11 3.32440191,10.8489011 3.56555024,10.5467033 C3.77990431,10.271978 3.88708134,9.87362637 3.88708134,9.33791209 L3.88708134,6 L3.33779904,6 L3.33779904,9.31730769 C3.33779904,9.72252747 3.26411483,10.0178571 3.12344498,10.2032967 C2.97607656,10.3956044 2.74162679,10.4986264 2.42009569,10.4986264 C1.83732057,10.4986264 1.5492823,10.1620879 1.5492823,9.50274725 L1.5492823,9.33791209 L1,9.33791209 L1,9.50961538 C1,9.99038462 1.12057416,10.3612637 1.37511962,10.6222527 C1.61626794,10.8695055 1.95789474,11 2.40669856,11 Z M6.06411483,11 C7.04210526,11 7.53110048,10.6291209 7.53110048,9.9010989 C7.53110048,9.59203297 7.39043062,9.35164835 7.11578947,9.17307692 C6.93492823,9.05631868 6.64019139,8.94642857 6.22488038,8.84340659 C5.87655502,8.74725275 5.6354067,8.6717033 5.50813397,8.60989011 C5.30717703,8.50686813 5.21339713,8.37637363 5.21339713,8.22527473 C5.21339713,8.06730769 5.28708134,7.94368132 5.43444976,7.8543956 C5.56842105,7.75824176 5.75598086,7.71703297 5.99712919,7.71703297 C6.27177033,7.71703297 6.4861244,7.77197802 6.63349282,7.88186813 C6.76746411,7.97802198 6.85454545,8.14285714 6.90143541,8.36263736 L7.42392344,8.36263736 C7.33014354,7.62087912 6.86124402,7.25686813 6.00382775,7.25686813 C5.615311,7.25686813 5.2937799,7.34615385 5.05263158,7.52472527 C4.79138756,7.7032967 4.66411483,7.93681319 4.66411483,8.23901099 C4.66411483,8.54120879 4.79138756,8.76785714 5.05933014,8.93269231 C5.22009569,9.04258242 5.50813397,9.1456044 5.91674641,9.24862637 C6.29186603,9.34478022 6.53971292,9.42032967 6.65358852,9.47527473 C6.86794258,9.58516484 6.98181818,9.73626374 6.98181818,9.93543956 C6.98181818,10.3337912 6.66698565,10.5398352 6.0507177,10.5398352 C5.75598086,10.5398352 5.53492823,10.4848901 5.38755981,10.375 C5.24019139,10.2513736 5.13971292,10.0521978 5.09952153,9.7706044 L4.57703349,9.7706044 C4.65741627,10.5879121 5.15311005,11 6.06411483,11 Z M9.70813397,11 C10.2239234,11 10.6392344,10.8145604 10.954067,10.4436813 C11.2421053,10.1002747 11.3894737,9.66071429 11.3894737,9.13186813 C11.3894737,8.59615385 11.2421053,8.15659341 10.9473684,7.80631868 C10.6392344,7.43543956 10.2239234,7.25686813 9.70813397,7.25686813 C9.18564593,7.25686813 8.77703349,7.43543956 8.46889952,7.80631868 C8.17416268,8.15659341 8.02679426,8.59615385 8.02679426,9.13186813 C8.02679426,9.66071429 8.17416268,10.1002747 8.46889952,10.4436813 C8.77703349,10.8145604 9.18564593,11 9.70813397,11 Z M9.70813397,10.5398352 C9.33971292,10.5398352 9.05167464,10.3956044 8.8507177,10.1071429 C8.66315789,9.84615385 8.57607656,9.52335165 8.57607656,9.13186813 C8.57607656,8.73351648 8.66315789,8.41071429 8.8507177,8.14972527 C9.05167464,7.86126374 9.33971292,7.71703297 9.70813397,7.71703297 C10.0698565,7.71703297 10.3578947,7.86126374 10.5722488,8.14972527 C10.75311,8.41071429 10.84689,8.73351648 10.84689,9.13186813 C10.84689,9.51648352 10.75311,9.84615385 10.5722488,10.1071429 C10.3578947,10.3956044 10.0698565,10.5398352 9.70813397,10.5398352 Z M12.6220096,10.9038462 L12.6220096,8.76098901 C12.6421053,8.43818681 12.7425837,8.18406593 12.9301435,7.99175824 C13.1043062,7.81318681 13.3119617,7.7239011 13.55311,7.7239011 C14.1559809,7.7239011 14.4641148,8.06730769 14.4641148,8.76098901 L14.4641148,10.9038462 L15,10.9038462 L15,8.71978022 C15,7.74450549 14.5645933,7.25686813 13.707177,7.25686813 C13.4794258,7.25686813 13.2717703,7.31181319 13.0842105,7.4217033 C12.8966507,7.52472527 12.7425837,7.67582418 12.6220096,7.875 L12.6220096,7.35302198 L12.0861244,7.35302198 L12.0861244,10.9038462 L12.6220096,10.9038462 Z" fill="#333333" fill-rule="nonzero"></path>
                </g>
            </g>
        </g>
    </g>
</svg>