<?xml version="1.0" encoding="UTF-8"?>
<svg width="16px" height="16px" viewBox="0 0 16 16" version="1.1" xmlns="http://www.w3.org/2000/svg" xmlns:xlink="http://www.w3.org/1999/xlink">
    <title>画板</title>
    <defs>
        <filter id="filter-1">
            <feColorMatrix in="SourceGraphic" type="matrix" values="0 0 0 0 1.000000 0 0 0 0 1.000000 0 0 0 0 1.000000 0 0 0 1.000000 0"></feColorMatrix>
        </filter>
    </defs>
    <g id="设计图" stroke="none" stroke-width="1" fill="none" fill-rule="evenodd">
        <g id="左边tab-icon" transform="translate(-20.000000, -552.000000)">
            <g id="数据管理备份-9" transform="translate(20.000000, 552.000000)" filter="url(#filter-1)">
                <g id="编组" transform="translate(2.000000, 2.000000)" fill="#0F0F0F">
                    <path d="M6.4998,3.857 L-0.0002,2 L-0.0002,10 L6.4998,11.857 L12.9998,10 L12.9998,2 L6.4998,3.857 Z M6.9998,4.754 L11.9998,3.326 L11.9998,9.245 L6.9998,10.675 L6.9998,4.754 Z M0.9998,9.245 L0.9998,3.326 L6.0008,4.754 L6.0008,10.675 L0.9998,9.245 Z" id="Fill-1"></path>
                    <path d="M6.4998,-0.0004 L-0.0002,1.8576 L-0.0002,9.8576 L6.4998,7.9996 L12.9998,9.8576 L12.9998,1.8576 L6.4998,-0.0004 Z M6.9998,7.1036 L6.9998,1.1826 L11.9998,2.6116 L11.9998,8.5316 L6.9998,7.1036 Z M0.9998,2.6116 L6.0008,1.1826 L6.0008,7.1036 L0.9998,8.5316 L0.9998,2.6116 Z" id="Fill-2"></path>
                </g>
            </g>
        </g>
    </g>
</svg>