<?xml version="1.0" encoding="UTF-8"?>
<svg width="16px" height="16px" viewBox="0 0 16 16" version="1.1" xmlns="http://www.w3.org/2000/svg" xmlns:xlink="http://www.w3.org/1999/xlink">
    <title>画板</title>
    <defs>
        <filter id="filter-1">
            <feColorMatrix in="SourceGraphic" type="matrix" values="0 0 0 0 1.000000 0 0 0 0 1.000000 0 0 0 0 1.000000 0 0 0 1.000000 0"></feColorMatrix>
        </filter>
    </defs>
    <g id="设计图" stroke="none" stroke-width="1" fill="none" fill-rule="evenodd">
        <g id="左边tab-icon" transform="translate(-20.000000, -696.000000)">
            <g id="数据管理备份-10" transform="translate(20.000000, 696.000000)" filter="url(#filter-1)">
                <g>
                    <path d="M13,2 C13.5522847,2 14,2.44771525 14,3 L14,9.5 C14,9.77614237 13.7761424,10 13.5,10 C13.2238576,10 13,9.77614237 13,9.5 L13,3 L13,3 L3,3 L3,13 L9.5,13 C9.77614237,13 10,13.2238576 10,13.5 C10,13.7761424 9.77614237,14 9.5,14 L3,14 L3,14 C2.44771525,14 2,13.5522847 2,13 L2,3 C2,2.44771525 2.44771525,2 3,2 L13,2 Z" id="路径" fill="#333333"></path>
                    <circle id="椭圆形" stroke="#333333" cx="8" cy="8" r="3"></circle>
                    <line x1="10.1963371" y1="10.1132453" x2="13.5" y2="13.5" id="路径-3" stroke="#333333"></line>
                </g>
            </g>
        </g>
    </g>
</svg>