<?xml version="1.0" encoding="UTF-8"?>
<svg width="16px" height="16px" viewBox="0 0 16 16" version="1.1" xmlns="http://www.w3.org/2000/svg" xmlns:xlink="http://www.w3.org/1999/xlink">
    <title>画板</title>
    <defs>
        <filter id="filter-1">
            <feColorMatrix in="SourceGraphic" type="matrix" values="0 0 0 0 1.000000 0 0 0 0 1.000000 0 0 0 0 1.000000 0 0 0 1.000000 0"></feColorMatrix>
        </filter>
    </defs>
    <g id="设计图" stroke="none" stroke-width="1" fill="none" fill-rule="evenodd">
        <g id="左边tab-icon" transform="translate(-20.000000, -456.000000)">
            <g id="数据管理备份-7" transform="translate(20.000000, 456.000000)" filter="url(#filter-1)">
                <g>
                    <rect id="矩形" stroke="#0F0F0F" x="1.5" y="3.5" width="13" height="9" rx="1"></rect>
                    <path d="M10,5 L12.712,7.712 C12.953,7.953 12.953,8.343 12.712,8.584 L12.712,8.584 L10,11.295 L10,9.881 L11.734,8.148 L10,6.414 L10,5 Z" id="形状结合" fill="#0F0F0F"></path>
                    <path d="M3,5 L5.712,7.712 C5.953,7.953 5.953,8.343 5.712,8.584 L5.712,8.584 L3,11.295 L3,9.881 L4.734,8.148 L3,6.414 L3,5 Z" id="形状结合备份" fill="#0F0F0F" transform="translate(4.446375, 8.147500) scale(-1, 1) translate(-4.446375, -8.147500) "></path>
                    <polygon id="Fill-1" fill="#0F0F0F" points="8.02778606 5 6.983 11.295 8 11.295 9.04478606 5"></polygon>
                </g>
            </g>
        </g>
    </g>
</svg>