<?xml version="1.0" encoding="UTF-8"?>
<svg width="16px" height="16px" viewBox="0 0 16 16" version="1.1" xmlns="http://www.w3.org/2000/svg" xmlns:xlink="http://www.w3.org/1999/xlink">
    <title>画板</title>
    <defs>
        <filter id="filter-1">
            <feColorMatrix in="SourceGraphic" type="matrix" values="0 0 0 0 1.000000 0 0 0 0 1.000000 0 0 0 0 1.000000 0 0 0 1.000000 0"></feColorMatrix>
        </filter>
    </defs>
    <g id="设计图" stroke="none" stroke-width="1" fill="none" fill-rule="evenodd">
        <g id="左边tab-icon" transform="translate(-20.000000, -120.000000)">
            <g id="数据管理" transform="translate(20.000000, 120.000000)" filter="url(#filter-1)">
                <g>
                    <path d="M10,1 C10.553,1 11,1.448 11,2 L11,10 C11,10.552 10.553,11 10,11 L2,11 C1.448,11 1,10.552 1,10 L1,2 C1,1.448 1.448,1 2,1 L10,1 Z M10,2 L2,2 L2,10 L10,10 L10,2 Z" id="形状结合" fill="#0F0F0F"></path>
                    <path d="M4,11 L4,12 L12,12 L12,4 L11,4 L11,3 L12,3 C12.553,3 13,3.448 13,4 L13,12 C13,12.552 12.553,13 12,13 L4,13 C3.448,13 3,12.552 3,12 L3,11 L4,11 Z" id="形状结合" fill="#0F0F0F"></path>
                    <path d="M6,13 L6,14 L14,14 L14,6 L13,6 L13,5 L14,5 C14.553,5 15,5.448 15,6 L15,14 C15,14.552 14.553,15 14,15 L6,15 C5.448,15 5,14.552 5,14 L5,13 L6,13 Z" id="形状结合备份-2" fill="#0F0F0F"></path>
                </g>
            </g>
        </g>
    </g>
</svg>