<?xml version="1.0" encoding="UTF-8"?>
<svg width="16px" height="16px" viewBox="0 0 16 16" version="1.1" xmlns="http://www.w3.org/2000/svg" xmlns:xlink="http://www.w3.org/1999/xlink">
    <title>画板</title>
    <defs>
        <filter id="filter-1">
            <feColorMatrix in="SourceGraphic" type="matrix" values="0 0 0 0 1.000000 0 0 0 0 1.000000 0 0 0 0 1.000000 0 0 0 1.000000 0"></feColorMatrix>
        </filter>
    </defs>
    <g id="设计图" stroke="none" stroke-width="1" fill="none" fill-rule="evenodd">
        <g id="左边tab-icon" transform="translate(-20.000000, -600.000000)">
            <g id="任务管理备份-4" transform="translate(20.000000, 600.000000)" filter="url(#filter-1)">
                <g>
                    <rect id="矩形" fill="#333333" x="5" y="5" width="6" height="1" rx="0.5"></rect>
                    <rect id="矩形备份-3" fill="#333333" x="5" y="7" width="2" height="1" rx="0.5"></rect>
                    <rect id="矩形备份-4" fill="#333333" x="5" y="9" width="1" height="1" rx="0.5"></rect>
                    <path d="M13,7 L12,7 L12,3 L4,3 L4,13 L9,13 L9,14 L4,14 C3.48742857,14 3.06453061,13.6137143 3.00673178,13.1165685 L3,13 L3,3 C3,2.48742857 3.38628571,2.06453061 3.88343149,2.00673178 L4,2 L12,2 C12.5125714,2 12.9354694,2.38628571 12.9932682,2.88343149 L13,3 L13,7 Z" id="路径" fill="#333333"></path>
                    <path d="M9.5,7.5 C10.0522847,7.5 10.5522847,7.72385763 10.9142136,8.08578644 C11.2761424,8.44771525 11.5,8.94771525 11.5,9.5 C11.5,10.0518875 11.2767053,10.551684 10.9148308,10.9134118 L10.9148308,10.9134118 L11.163,11.162 L10.804221,11.0162414 C10.4978988,11.2802464 10.1106092,11.4526203 9.68474924,11.4915887 L9.5,11.5 C8.94771525,11.5 8.44771525,11.2761424 8.08578644,10.9142136 C7.72385763,10.5522847 7.5,10.0522847 7.5,9.5 C7.5,8.94771525 7.72385763,8.44771525 8.08578644,8.08578644 C8.44771525,7.72385763 8.94771525,7.5 9.5,7.5 Z" id="形状结合" stroke="#333333"></path>
                </g>
            </g>
        </g>
    </g>
</svg>