<?xml version="1.0" standalone="no"?><!DOCTYPE svg PUBLIC "-//W3C//DTD SVG 1.1//EN" "http://www.w3.org/Graphics/SVG/1.1/DTD/svg11.dtd"><svg class="icon" width="200px" height="200.00px" viewBox="0 0 1024 1024" version="1.1" xmlns="http://www.w3.org/2000/svg"><path fill="#333333" d="M634.88 1.463c11.19 50.249 29.11 104.887 34.158 160.329 5.851 64.366 8.411 131.072-55.15 179.639-18.505 14.043-31.451 35.108-44.91 54.126-44.397 63.122-58.953 127.488-7.46 194.413 22.455 29.111 15.725 57.198-0.512 88.723a379.977 379.977 0 0 0-35.548 107.227c-4.535 26.258 7.607 54.126 5.413 80.896-1.317 15.945-15.068 31.598-26.039 45.349-1.463 1.828-19.822-8.192-30.427-13.02l-17.043-7.314c17.774 27.136 73.143 37.888 28.087 71.022l28.526 42.422c15.872-19.675 38.034-36.425 45.495-57.856a1411.267 1411.267 0 0 0 40.96-154.843c10.46-46.665-0.44-99.109 44.763-135.46-32.329-35.402-30.72-60.124 15.726-92.38 56.832-39.278 68.023-91.721 65.097-159.378-14.921 19.236-24.942 33.5-36.425 46.738-21.943 25.454-43.666 51.2-67.657 74.825-7.022 7.241-21.797 8.192-32.915 11.996-2.998-10.972-10.898-23.114-8.045-32.768 6.948-23.845 15.067-48.86 29.623-68.974 22.82-31.452 51.785-59.026 77.238-88.503 9.216-10.752 21.066-22.528 22.967-35.109 18.286-115.565-4.608-222.573-75.849-312.1zM388.023 551.497c47.177-11.044 58.66-29.038 49.152-73.07-14.482-65.536-58.222-115.2-103.863-163.84a81.92 81.92 0 0 1-23.186-42.057c-4.755-40.96-10.167-82.944-5.267-123.392 6.144-51.565 22.163-102.18 32.842-148.333-58.88 71.972-86.016 159.67-82.432 254.683 1.097 31.963-3.584 67.072 28.086 94.5 61.221 53.614 104.083 117.175 104.668 201.51z m-56.174-2.121c-10.24-16.823-19.748-34.011-30.793-50.395-11.118-16.311-23.552-31.598-35.328-47.324-0.512 47.25 28.087 76.434 66.34 97.719h-0.219z m25.893 106.35l73.655 66.34c-6.071-56.32-21.943-72.63-73.509-66.34h-0.22z"  /><path fill="#333333" d="M634.88 1.463c71.314 89.527 94.354 196.608 76.069 312.32-2.048 12.507-14.117 24.356-23.04 35.035-25.454 29.77-54.419 57.125-77.24 88.503-14.628 20.114-22.674 45.202-29.695 69.047-2.78 9.435 5.12 21.577 8.045 32.768 11.191-3.803 25.674-4.827 32.988-11.995 23.99-23.699 45.714-49.445 67.657-74.826 11.483-13.165 21.504-27.501 36.498-46.811 2.78 67.51-8.338 120.027-65.17 159.451-46.519 32.183-48.055 56.906-15.726 92.38-45.202 36.352-34.304 88.722-44.763 135.387-10.679 52.297-24.357 103.936-40.96 154.844-7.46 21.43-29.623 38.4-45.495 57.783l-28.526-42.35c44.983-33.134-10.386-43.886-28.087-71.022l16.677 7.534c10.606 4.608 29.038 14.628 30.427 13.166 10.972-13.898 24.723-29.55 26.04-45.495 2.194-26.697-9.948-54.857-5.413-80.823a380.05 380.05 0 0 1 35.84-107.52c16.237-31.452 22.967-59.612 0.512-88.722-51.493-66.926-36.937-131.072 7.46-194.414 13.532-19.017 26.405-40.082 44.91-54.126 63.634-48.64 61.001-115.346 55.15-179.712-5.047-55.588-22.967-110.153-34.085-160.402zM387.95 551.497c-0.585-84.334-43.447-147.895-104.887-201.508-31.452-27.429-26.77-62.538-28.087-94.501-3.365-95.086 23.771-182.71 82.651-254.537-10.678 45.86-26.697 96.695-32.914 148.26-4.827 40.522 0.585 82.506 5.34 123.466 3.145 15.652 11.117 30.208 22.893 41.764 45.641 48.786 89.38 98.304 103.863 163.84 9.801 44.178-1.682 62.172-48.86 73.216z m-55.881-2.121c-38.327-21.211-66.926-50.469-66.414-97.719 11.922 15.726 24.649 31.013 35.694 47.324 10.971 16.384 20.48 33.645 30.72 50.468z m25.746 106.35c51.566-6.583 67.438 9.874 73.728 66.34l-73.728-66.34z"  /></svg>