<?xml version="1.0" encoding="UTF-8"?>
<svg width="16px" height="16px" viewBox="0 0 16 16" version="1.1" xmlns="http://www.w3.org/2000/svg" xmlns:xlink="http://www.w3.org/1999/xlink">
    <title>新增任务弹窗</title>
    <defs>
        <filter id="filter-1">
            <feColorMatrix in="SourceGraphic" type="matrix" values="0 0 0 0 0.000000 0 0 0 0 0.560784 0 0 0 0 0.933333 0 0 0 1.000000 0"></feColorMatrix>
        </filter>
    </defs>
    <g id="设计图" stroke="none" stroke-width="1" fill="none" fill-rule="evenodd">
        <g id="新增任务弹窗" transform="translate(-24.000000, -539.000000)">
            <g id="定位备份-14" transform="translate(24.000000, 539.000000)" filter="url(#filter-1)">
                <g>
                    <path d="M14,3 C14.5522847,3 15,3.44771525 15,4 L15,12 C15,12.5522847 14.5522847,13 14,13 L2,13 C1.44771525,13 1,12.5522847 1,12 L1,4 C1,3.44771525 1.44771525,3 2,3 L14,3 Z M14,4 L2,4 L2,12 L14,12 L14,4 Z" id="形状结合" fill="#529CE9"></path>
                    <path d="M5.68,10.824 C6.312,10.824 6.776,10.648 7.064,10.296 C7.32,9.976 7.448,9.512 7.448,8.888 L7.448,5 L6.792,5 L6.792,8.864 C6.792,9.336 6.704,9.68 6.536,9.896 C6.36,10.12 6.08,10.24 5.696,10.24 C5,10.24 4.656,9.848 4.656,9.08 L4.656,8.888 L4,8.888 L4,9.088 C4,9.648 4.144,10.08 4.448,10.384 C4.736,10.672 5.144,10.824 5.68,10.824 Z M9.728,10.824 C10.112,10.824 10.456,10.736 10.76,10.568 C11.016,10.424 11.232,10.24 11.392,10.016 L11.392,10.712 L11.992,10.712 L11.992,8.056 C11.992,7.576 11.864,7.2 11.624,6.928 C11.336,6.616 10.904,6.464 10.312,6.464 C9.816,6.464 9.424,6.56 9.12,6.752 C8.784,6.96 8.568,7.288 8.48,7.72 L9.112,7.768 C9.176,7.504 9.312,7.304 9.528,7.176 C9.72,7.048 9.968,6.992 10.272,6.992 C10.992,6.992 11.352,7.336 11.352,8.032 L11.352,8.248 L10.36,8.264 C9.736,8.272 9.256,8.392 8.92,8.616 C8.536,8.856 8.352,9.208 8.352,9.68 C8.352,10.016 8.48,10.296 8.736,10.512 C8.984,10.72 9.312,10.824 9.728,10.824 Z M9.864,10.32 C9.608,10.32 9.4,10.256 9.24,10.136 C9.08,10.008 9.008,9.856 9.008,9.664 C9.008,9.064 9.472,8.76 10.4,8.744 L11.352,8.728 L11.352,9.08 C11.352,9.4 11.2,9.688 10.904,9.936 C10.6,10.192 10.256,10.32 9.864,10.32 Z" id="Ja" fill="#529CE9" fill-rule="nonzero"></path>
                </g>
            </g>
        </g>
    </g>
</svg>