<?xml version="1.0" standalone="no"?><!DOCTYPE svg PUBLIC "-//W3C//DTD SVG 1.1//EN" "http://www.w3.org/Graphics/SVG/1.1/DTD/svg11.dtd"><svg class="icon" width="200px" height="200.00px" viewBox="0 0 1024 1024" version="1.1" xmlns="http://www.w3.org/2000/svg"><path fill="#ffffff" d="M438.272 603.648c-132.608 0-240.64-108.032-240.64-240.64s108.032-240.64 240.64-240.64 240.64 108.032 240.64 240.64-108.032 240.64-240.64 240.64z m0-419.84c-98.816 0-179.2 80.384-179.2 179.2s80.384 179.2 179.2 179.2 179.2-80.384 179.2-179.2-80.384-179.2-179.2-179.2z"  /><path fill="#ffffff" d="M832.512 955.904h-30.72c-257.536-1.536-361.984 0-363.008 0H44.032v-30.72c0-209.408 165.888-361.984 394.24-361.984s394.24 152.064 394.24 361.984v30.72z m-725.504-61.44h331.264c0.512 0 96.256-1.536 331.264 0-15.36-157.696-150.016-269.312-331.264-269.312-181.248-0.512-315.904 111.104-331.264 269.312z m608.768-356.352l-35.84-49.664c52.224-37.888 82.944-98.304 82.944-162.304 0-97.792-72.704-182.272-168.96-196.608l9.216-60.928C729.6 87.552 824.32 198.144 824.32 326.144c0 83.968-40.448 162.816-108.544 211.968z"  /><path fill="#ffffff" d="M964.096 882.176l-58.368-19.456c8.192-24.576 12.288-50.176 12.288-76.288 0-131.072-107.008-238.08-238.08-238.08V486.4c165.376 0 299.52 134.144 299.52 299.52 0.512 32.768-5.12 65.024-15.36 96.256z"  /><path fill="#ffffff" d="M964.096 881.664h-67.072l9.216-20.48h57.856z m-360.96-752.128h-9.216v-61.44l9.216 0.512z"  /></svg>