<?xml version="1.0" standalone="no"?><!DOCTYPE svg PUBLIC "-//W3C//DTD SVG 1.1//EN" "http://www.w3.org/Graphics/SVG/1.1/DTD/svg11.dtd"><svg class="icon" width="200px" height="183.35px" viewBox="0 0 1117 1024" version="1.1" xmlns="http://www.w3.org/2000/svg"><path fill="#333333" d="M646.952666 949.526841h-81.919963v-129.861759h36.770893v-33.978166a316.508947 316.508947 0 0 1 27.92726-134.050849H0.436596v31.185441a126.138124 126.138124 0 0 0 113.105403 135.912665h251.345341v130.792668H236.421944a37.701801 37.701801 0 0 0 0 74.472694H698.618097a23.272717 23.272717 0 0 0 11.170904-2.792726 279.2726 279.2726 0 0 1-62.836335-71.679968zM683.258104 572.508831A279.2726 279.2726 0 0 1 884.799831 485.003416a296.959865 296.959865 0 0 1 40.494527 3.25818V135.447211A125.67267 125.67267 0 0 0 812.188955 0h-698.181501A125.67267 125.67267 0 0 0 0.436596 135.447211v474.763421h651.636068a342.57439 342.57439 0 0 1 31.18544-37.701801zM279.709197 418.9089a37.701801 37.701801 0 0 1 4.189089 42.356345L279.709197 465.454334a25.134534 25.134534 0 0 1-39.098164 0L123.781995 329.541668a38.63271 38.63271 0 0 1-7.447269-29.323623c0-3.723635 0-9.309087 10.239995-18.618173l115.432675-117.759946A23.738171 23.738171 0 0 1 279.709197 167.56356a40.029073 40.029073 0 0 1 0 42.356345v5.585452l-93.090867 93.090866z m264.378061-212.247176l-117.294492 255.999884a33.978166 33.978166 0 0 1-22.807262 18.152719 18.152719 18.152719 0 0 1-15.825448-5.585452 39.563618 39.563618 0 0 1-11.636358-46.545433l115.432675-255.999884a25.599988 25.599988 0 0 1 39.098164-14.894539 37.701801 37.701801 0 0 1 11.636358 48.407251z m103.796317 14.894539a38.167255 38.167255 0 0 1-4.189089-46.545433c11.636358-14.894539 27.461806-18.618173 39.098164-5.585452a1279.533964 1279.533964 0 0 1 127.069033 141.963571 29.323623 29.323623 0 0 1-6.981815 29.323623l-115.898129 136.37812a24.66908 24.66908 0 0 1-39.098164 0 38.167255 38.167255 0 0 1 0-46.545433l93.090867-108.45086zM884.799831 537.599756a224.814443 224.814443 0 0 0-163.374471 71.214513 248.552614 248.552614 0 0 0-67.956333 172.218103A237.38171 237.38171 0 0 0 884.799831 1023.999535a237.38171 237.38171 0 0 0 232.727167-243.432617 237.38171 237.38171 0 0 0-232.727167-242.967162z m130.327213 325.818033a24.203625 24.203625 0 0 1-22.341808 16.290902 26.530897 26.530897 0 0 1-8.378178 0l-139.6363-53.061794a26.065443 26.065443 0 0 1-15.825447-24.203625v-139.636301a24.66908 24.66908 0 0 1 23.738171-25.599988 25.134534 25.134534 0 0 1 24.203625 25.599988v113.570858a4.189089 4.189089 0 0 0 2.792726 4.189089l116.829038 46.545433a29.323623 29.323623 0 0 1 16.290902 16.290902 33.512712 33.512712 0 0 1 3.723634 18.618173z" /></svg>