<?xml version="1.0" standalone="no"?><!DOCTYPE svg PUBLIC "-//W3C//DTD SVG 1.1//EN" "http://www.w3.org/Graphics/SVG/1.1/DTD/svg11.dtd"><svg class="icon" width="200px" height="200.00px" viewBox="0 0 1024 1024" version="1.1" xmlns="http://www.w3.org/2000/svg"><path fill="#13227a" d="M405.354667 608c-41.194667 0-74.688 33.493333-74.688 74.666667s33.493333 74.666667 74.688 74.666666c41.173333 0 74.645333-33.493333 74.645333-74.666666s-33.472-74.666667-74.645333-74.666667z m0 128c-29.418667 0-53.354667-23.936-53.354667-53.333333s23.936-53.333333 53.354667-53.333334c29.397333 0 53.312 23.936 53.312 53.333334s-23.914667 53.333333-53.312 53.333333zM543.68 298.496h-276.693333c-6.101333 0-10.986667 4.778667-10.986667 10.666667s4.885333 10.666667 10.986667 10.666666h276.672a10.837333 10.837333 0 0 0 10.986666-10.666666 10.816 10.816 0 0 0-10.965333-10.666667z"  /><path fill="#13227a" d="M576 106.666667H234.666667C199.381333 106.666667 170.666667 135.381333 170.666667 170.666667v682.666666c0 35.285333 28.714667 64 64 64h341.333333c35.285333 0 64-28.714667 64-64V170.666667c0-35.285333-28.714667-64-64-64z m21.333333 746.666666c0 11.754667-9.557333 21.333333-21.333333 21.333334H234.666667c-11.776 0-21.333333-9.578667-21.333334-21.333334V170.666667c0-11.754667 9.557333-21.333333 21.333334-21.333334h341.333333c11.776 0 21.333333 9.578667 21.333333 21.333334v682.666666zM682.666667 351.829333c0-5.888-4.992-10.666667-11.114667-10.666666H650.666667v21.333333h20.885333a10.88 10.88 0 0 0 11.114667-10.666667z"  /><path fill="#13227a" d="M693.333333 160h-42.666666v21.333333h42.666666c17.642667 0 32 12.224 32 27.264v606.805334c0 15.04-14.357333 27.264-32 27.264h-42.666666v21.333333h42.666666c29.418667 0 53.333333-21.802667 53.333334-48.597333V208.597333C746.666667 181.802667 722.752 160 693.333333 160zM789.674667 373.333333c0-5.888-4.992-10.666667-11.114667-10.666666h-20.885333v21.333333h20.885333a10.901333 10.901333 0 0 0 11.114667-10.666667z"  /><path fill="#13227a" d="M800 202.666667h-42.666667v21.333333h42.666667c17.344 0 32 10.304 32 22.528v530.965333c0 12.202667-14.656 22.528-32 22.528h-42.666667v21.333334h42.666667c29.418667 0 53.333333-19.669333 53.333333-43.861334V246.528c0-24.192-23.914667-43.861333-53.333333-43.861333z"  /></svg>