<?xml version="1.0" encoding="UTF-8"?>
<svg width="16px" height="16px" viewBox="0 0 16 16" version="1.1" xmlns="http://www.w3.org/2000/svg" xmlns:xlink="http://www.w3.org/1999/xlink">
    <title>新增任务弹窗</title>
    <defs>
        <filter id="filter-1">
            <feColorMatrix in="SourceGraphic" type="matrix" values="0 0 0 0 0.000000 0 0 0 0 0.713725 0 0 0 0 0.000000 0 0 0 1.000000 0"></feColorMatrix>
        </filter>
    </defs>
    <g id="设计图" stroke="none" stroke-width="1" fill="none" fill-rule="evenodd">
        <g id="新增任务弹窗" transform="translate(-24.000000, -339.000000)">
            <g id="定位备份-8" transform="translate(24.000000, 339.000000)" filter="url(#filter-1)">
                <g>
                    <path d="M8.3,9 C8.41045695,9 8.5,9.08954305 8.5,9.2 L8.5,9.8 C8.5,9.91045695 8.41045695,10 8.3,10 L7.7,10 C7.58954305,10 7.5,9.91045695 7.5,9.8 L7.5,9.2 C7.5,9.08954305 7.58954305,9 7.7,9 L8.3,9 Z M8.3,7 C8.41045695,7 8.5,7.08954305 8.5,7.2 L8.5,7.8 C8.5,7.91045695 8.41045695,8 8.3,8 L7.7,8 C7.58954305,8 7.5,7.91045695 7.5,7.8 L7.5,7.2 C7.5,7.08954305 7.58954305,7 7.7,7 L8.3,7 Z" id="形状结合" fill="#67BB4E"></path>
                    <path d="M5,3 C5.55228475,3 6,3.44771525 6,4 L6,12 C6,12.5522847 5.55228475,13 5,13 L2,13 C1.44771525,13 1,12.5522847 1,12 L1,4 C1,3.44771525 1.44771525,3 2,3 L5,3 Z M5,4 L2,4 L2,12 L5,12 L5,4 Z" id="形状结合" fill="#67BB4E"></path>
                    <path d="M14,3 C14.5522847,3 15,3.44771525 15,4 L15,12 C15,12.5522847 14.5522847,13 14,13 L11,13 C10.4477153,13 10,12.5522847 10,12 L10,4 C10,3.44771525 10.4477153,3 11,3 L14,3 Z M14,4 L11,4 L11,12 L14,12 L14,4 Z" id="形状结合备份" fill="#67BB4E"></path>
                </g>
            </g>
        </g>
    </g>
</svg>