<?xml version="1.0" encoding="UTF-8"?>
<svg width="16px" height="16px" viewBox="0 0 16 16" version="1.1" xmlns="http://www.w3.org/2000/svg" xmlns:xlink="http://www.w3.org/1999/xlink">
    <title>新增任务弹窗备份 10</title>
    <defs>
        <filter id="filter-1">
            <feColorMatrix in="SourceGraphic" type="matrix" values="0 0 0 0 0.090196 0 0 0 0 0.454902 0 0 0 0 1.000000 0 0 0 1.000000 0"></feColorMatrix>
        </filter>
    </defs>
    <g id="设计图" stroke="none" stroke-width="1" fill="none" fill-rule="evenodd">
        <g id="新增任务弹窗" transform="translate(-24.000000, -19.000000)">
            <g id="定位备份-2" transform="translate(24.000000, 19.000000)" filter="url(#filter-1)">
                <g>
                    <path d="M12.8,2 C13.4636,2 14,2.5376 14,3.2 L14,12.8 C14,13.4624 13.4636,14 12.8,14 L3.2,14 C2.5376,14 2,13.4624 2,12.8 L2,3.2 C2,2.5376 2.5376,2 3.2,2 L5,2 L5,3 L3,3 L3,13 L13,13 L13,3 L11,3 L11,2 L12.8,2 Z" id="形状结合" fill="#333333"></path>
                    <rect id="矩形" stroke="#333333" x="5.5" y="1.5" width="5" height="2" rx="1"></rect>
                    <rect id="矩形" fill="#333333" x="5" y="5" width="6" height="3" rx="1"></rect>
                    <rect id="矩形备份-3" fill="#333333" x="5" y="9" width="6" height="1" rx="0.5"></rect>
                    <rect id="矩形备份-4" fill="#333333" x="5" y="11" width="4" height="1" rx="0.5"></rect>
                </g>
            </g>
        </g>
    </g>
</svg>