<?xml version="1.0" standalone="no"?><!DOCTYPE svg PUBLIC "-//W3C//DTD SVG 1.1//EN" "http://www.w3.org/Graphics/SVG/1.1/DTD/svg11.dtd"><svg class="icon" width="200px" height="200.00px" viewBox="0 0 1024 1024" version="1.1" xmlns="http://www.w3.org/2000/svg"><path fill="#13227a" d="M0 0h1024v1024H0V0z m85.435733 349.320533a142.848 142.848 0 0 0 143.701334 143.735467 143.189333 143.189333 0 0 0 144.145066-143.701333A143.872 143.872 0 0 0 229.137067 204.8c-80.042667 0-143.701333 64.443733-143.701334 144.520533z m52.0192 0c0-50.449067 41.2672-92.501333 91.682134-92.501333 50.449067 0 92.091733 42.052267 92.091733 92.501333s-41.642667 91.682133-92.091733 91.682134a91.921067 91.921067 0 0 1-91.682134-91.682134z m288.290134 132.130134c0 3.9936 3.1744 7.611733 7.5776 7.611733h36.864a7.850667 7.850667 0 0 0 7.5776-7.611733v-102.0928H522.24l53.248 106.0864a6.8608 6.8608 0 0 0 6.417067 3.618133h42.052266c6.792533 0 9.591467-6.417067 6.792534-11.605333l-54.852267-101.717334c34.816-13.994667 59.255467-44.032 59.255467-80.861866 0-47.650133-39.253333-86.084267-87.278934-86.084267h-114.517333a7.611733 7.611733 0 0 0-7.5776 7.611733v265.045334z m52.4288-144.930134V256.853333h65.262933c21.230933 0 39.6288 17.6128 39.6288 38.843734 0 22.391467-18.432 40.823467-39.6288 40.823466h-65.262933zM75.298133 815.5136h32.1536c5.905067 0 9.216-3.720533 10.717867-7.406933l18.090667-39.936H246.784l18.090667 39.936c2.594133 5.188267 5.188267 7.406933 10.717866 7.406933h32.1536c5.5296 0 8.4992-4.8128 6.280534-9.6256l-113.834667-248.695467c-1.092267-2.218667-2.56-4.096-6.280533-4.096h-3.6864c-3.310933 0-5.188267 1.877333-6.280534 4.096L69.0176 805.888c-2.218667 4.8128 0.7168 9.6256 6.280533 9.6256z m79.086934-88.337067l36.181333-81.3056h1.1264L228.693333 727.176533H154.385067z m172.578133-40.618666A132.5056 132.5056 0 0 0 460.3904 819.2c32.8704 0 64.648533-11.4688 89.770667-35.84 2.594133-2.594133 3.345067-7.406933 0.375466-10.001067l-22.869333-23.620266a6.826667 6.826667 0 0 0-9.284267 0c-15.496533 12.561067-34.372267 21.060267-56.5248 21.060266-47.3088 0-82.773333-39.185067-82.773333-85.367466 0-46.592 35.089067-86.1184 82.397867-86.1184 20.6848 0 41.403733 8.123733 56.900266 21.8112 2.9696 2.935467 6.656 2.935467 9.250134 0l22.528-23.278934a6.8608 6.8608 0 0 0-0.341334-10.376533c-25.156267-22.528-52.1216-34.338133-89.429333-34.338133a133.12 133.12 0 0 0-133.4272 133.393066z m271.633067 121.924266c0 3.6864 2.935467 7.031467 7.031466 7.031467h135.236267c4.096 0 7.031467-3.345067 7.031467-7.031467v-30.3104a7.031467 7.031467 0 0 0-7.031467-7.031466h-94.208v-207.325867a7.2704 7.2704 0 0 0-7.031467-6.997333h-33.9968a7.031467 7.031467 0 0 0-7.031466 6.997333v244.667733z m186.641066 0c0 3.6864 2.935467 7.031467 6.997334 7.031467h150.4256c4.061867 0 7.031467-3.345067 7.031466-7.031467v-30.3104a7.031467 7.031467 0 0 0-7.031466-7.031466h-109.397334v-64.648534h91.272534a7.031467 7.031467 0 0 0 7.031466-7.031466v-30.685867a7.2704 7.2704 0 0 0-7.031466-6.997333h-91.272534v-60.6208h109.397334c4.061867 0 7.031467-3.310933 7.031466-7.031467v-30.3104a7.031467 7.031467 0 0 0-7.031466-6.997333H792.234667a7.031467 7.031467 0 0 0-6.997334 6.997333v244.667733z"  /></svg>