<?xml version="1.0" encoding="UTF-8"?>
<svg width="16px" height="16px" viewBox="0 0 16 16" version="1.1" xmlns="http://www.w3.org/2000/svg" xmlns:xlink="http://www.w3.org/1999/xlink">
    <title>新增任务弹窗</title>
    <defs>
        <filter id="filter-1">
            <feColorMatrix in="SourceGraphic" type="matrix" values="0 0 0 0 0.000000 0 0 0 0 0.713725 0 0 0 0 0.427451 0 0 0 1.000000 0"></feColorMatrix>
        </filter>
    </defs>
    <g id="设计图" stroke="none" stroke-width="1" fill="none" fill-rule="evenodd">
        <g id="新增任务弹窗" transform="translate(-24.000000, -419.000000)">
            <g id="定位备份-11" transform="translate(24.000000, 419.000000)" filter="url(#filter-1)">
                <g>
                    <path d="M14,3 C14.5522847,3 15,3.44771525 15,4 L15,12 C15,12.5522847 14.5522847,13 14,13 L2,13 C1.44771525,13 1,12.5522847 1,12 L1,4 C1,3.44771525 1.44771525,3 2,3 L14,3 Z M14,4 L2,4 L2,12 L14,12 L14,4 Z" id="形状结合" fill="#65BA85"></path>
                    <path d="M4.156,10.824 L4.156,8.488 L5.828,8.488 C7.14,8.488 7.804,7.92 7.804,6.792 C7.804,5.672 7.148,5.112 5.836,5.112 L3.5,5.112 L3.5,10.824 L4.156,10.824 Z M5.796,7.92 L4.156,7.92 L4.156,5.68 L5.796,5.68 C6.252,5.68 6.588,5.768 6.812,5.96 C7.036,6.128 7.148,6.408 7.148,6.792 C7.148,7.176 7.036,7.456 6.82,7.64 C6.596,7.824 6.26,7.92 5.796,7.92 Z M10.644,10.936 C11.324,10.936 11.86,10.792 12.26,10.512 C12.66,10.224 12.86,9.824 12.86,9.328 C12.86,8.808 12.62,8.408 12.148,8.12 C11.908,7.976 11.412,7.792 10.66,7.568 C10.108,7.408 9.756,7.288 9.612,7.208 C9.284,7.032 9.124,6.8 9.124,6.512 C9.124,6.184 9.26,5.944 9.532,5.784 C9.772,5.64 10.1,5.576 10.524,5.576 C10.988,5.576 11.348,5.672 11.604,5.88 C11.852,6.08 12.012,6.384 12.084,6.8 L12.732,6.8 C12.676,6.2 12.46,5.744 12.076,5.44 C11.708,5.144 11.196,5 10.556,5 C9.964,5 9.476,5.128 9.1,5.384 C8.676,5.656 8.468,6.048 8.468,6.544 C8.468,7.024 8.684,7.392 9.124,7.648 C9.308,7.744 9.748,7.904 10.436,8.112 C11.076,8.296 11.484,8.432 11.644,8.528 C12.02,8.728 12.212,9.008 12.212,9.368 C12.212,9.672 12.068,9.912 11.78,10.088 C11.492,10.264 11.108,10.352 10.644,10.352 C10.132,10.352 9.748,10.24 9.484,10.032 C9.196,9.8 9.02,9.432 8.964,8.936 L8.316,8.936 C8.364,9.64 8.612,10.16 9.06,10.504 C9.444,10.792 9.972,10.936 10.644,10.936 Z" id="PS" fill="#65BA85" fill-rule="nonzero"></path>
                </g>
            </g>
        </g>
    </g>
</svg>