<?xml version="1.0" encoding="UTF-8"?>
<svg width="16px" height="16px" viewBox="0 0 16 16" version="1.1" xmlns="http://www.w3.org/2000/svg" xmlns:xlink="http://www.w3.org/1999/xlink">
    <title>新增任务弹窗</title>
    <defs>
        <filter id="filter-1">
            <feColorMatrix in="SourceGraphic" type="matrix" values="0 0 0 0 0.247059 0 0 0 0 0.247059 0 0 0 0 1.000000 0 0 0 1.000000 0"></feColorMatrix>
        </filter>
    </defs>
    <g id="设计图" stroke="none" stroke-width="1" fill="none" fill-rule="evenodd">
        <g id="新增任务弹窗" transform="translate(-24.000000, -619.000000)">
            <g id="定位备份-16" transform="translate(24.000000, 619.000000)" filter="url(#filter-1)">
                <g>
                    <path d="M14,3 C14.5522847,3 15,3.44771525 15,4 L15,12 C15,12.5522847 14.5522847,13 14,13 L2,13 C1.44771525,13 1,12.5522847 1,12 L1,4 C1,3.44771525 1.44771525,3 2,3 L14,3 Z M14,4 L2,4 L2,12 L14,12 L14,4 Z" id="形状结合" fill="#525DF6"></path>
                    <path d="M3.492,9.868 L3.492,8.116 L4.746,8.116 C5.73,8.116 6.228,7.69 6.228,6.844 C6.228,6.004 5.736,5.584 4.752,5.584 L3,5.584 L3,9.868 L3.492,9.868 Z M4.722,7.69 L3.492,7.69 L3.492,6.01 L4.722,6.01 C5.064,6.01 5.316,6.076 5.484,6.22 C5.652,6.346 5.736,6.556 5.736,6.844 C5.736,7.132 5.652,7.342 5.49,7.48 C5.322,7.618 5.07,7.69 4.722,7.69 Z M7.668,11.056 L9.366,6.766 L8.838,6.766 L7.92,9.214 L6.972,6.766 L6.45,6.766 L7.68,9.796 L7.146,11.056 L7.668,11.056 Z M11.334,9.952 C11.844,9.952 12.246,9.844 12.546,9.634 C12.846,9.418 12.996,9.118 12.996,8.746 C12.996,8.356 12.816,8.056 12.462,7.84 C12.282,7.732 11.91,7.594 11.346,7.426 C10.932,7.306 10.668,7.216 10.56,7.156 C10.314,7.024 10.194,6.85 10.194,6.634 C10.194,6.388 10.296,6.208 10.5,6.088 C10.68,5.98 10.926,5.932 11.244,5.932 C11.592,5.932 11.862,6.004 12.054,6.16 C12.24,6.31 12.36,6.538 12.414,6.85 L12.9,6.85 C12.858,6.4 12.696,6.058 12.408,5.83 C12.132,5.608 11.748,5.5 11.268,5.5 C10.824,5.5 10.458,5.596 10.176,5.788 C9.858,5.992 9.702,6.286 9.702,6.658 C9.702,7.018 9.864,7.294 10.194,7.486 C10.332,7.558 10.662,7.678 11.178,7.834 C11.658,7.972 11.964,8.074 12.084,8.146 C12.366,8.296 12.51,8.506 12.51,8.776 C12.51,9.004 12.402,9.184 12.186,9.316 C11.97,9.448 11.682,9.514 11.334,9.514 C10.95,9.514 10.662,9.43 10.464,9.274 C10.248,9.1 10.116,8.824 10.074,8.452 L9.588,8.452 C9.624,8.98 9.81,9.37 10.146,9.628 C10.434,9.844 10.83,9.952 11.334,9.952 Z" id="PyS" fill="#525DF6" fill-rule="nonzero"></path>
                </g>
            </g>
        </g>
    </g>
</svg>