<?xml version="1.0" encoding="UTF-8"?>
<svg width="16px" height="16px" viewBox="0 0 16 16" version="1.1" xmlns="http://www.w3.org/2000/svg" xmlns:xlink="http://www.w3.org/1999/xlink">
    <title>新增任务弹窗</title>
    <defs>
        <filter id="filter-1">
            <feColorMatrix in="SourceGraphic" type="matrix" values="0 0 0 0 0.529412 0 0 0 0 0.215686 0 0 0 0 1.000000 0 0 0 1.000000 0"></feColorMatrix>
        </filter>
    </defs>
    <g id="设计图" stroke="none" stroke-width="1" fill="none" fill-rule="evenodd">
        <g id="新增任务弹窗" transform="translate(-24.000000, -659.000000)">
            <g id="定位备份-17" transform="translate(24.000000, 659.000000)" filter="url(#filter-1)">
                <g>
                    <rect id="矩形" stroke="#8A5AF6" x="2.5" y="2.5" width="11" height="11" rx="1"></rect>
                    <path d="M6.32,11.64 L6.32,8.57 L8.48,8.57 C8.93,8.57 9.27,8.65 9.51,8.83 C9.77,9.01 9.92,9.32 9.96,9.74 L10.05,10.69 C10.08,11.09 10.18,11.4 10.34,11.64 L11.23,11.64 C11.02,11.38 10.89,11.03 10.85,10.59 L10.74,9.49 C10.66,8.77 10.28,8.34 9.6,8.19 L9.6,8.17 C10.01,8.07 10.33,7.87 10.57,7.55 C10.79,7.24 10.9,6.89 10.9,6.49 C10.9,5.83 10.68,5.33 10.26,4.99 C9.85,4.66 9.29,4.5 8.58,4.5 L5.5,4.5 L5.5,11.64 L6.32,11.64 Z M8.48,7.86 L6.32,7.86 L6.32,5.21 L8.48,5.21 C9.03,5.21 9.44,5.32 9.7,5.54 C9.94,5.75 10.07,6.08 10.07,6.52 C10.07,6.94 9.94,7.26 9.69,7.49 C9.41,7.73 9,7.86 8.48,7.86 Z" id="R" fill="#8A5AF6" fill-rule="nonzero"></path>
                </g>
            </g>
        </g>
    </g>
</svg>