<?xml version="1.0" standalone="no"?><!DOCTYPE svg PUBLIC "-//W3C//DTD SVG 1.1//EN" "http://www.w3.org/Graphics/SVG/1.1/DTD/svg11.dtd"><svg class="icon" width="200px" height="200.00px" viewBox="0 0 1024 1024" version="1.1" xmlns="http://www.w3.org/2000/svg"><path fill="#333333" d="M646.247 575.333c-3.07-11.158-7.544-21.727-13.163-31.575 6.379-8.624 28.429-40.774 12.537-56.65l-8.139-8.595c-13.568-13.58-48.244 7.619-56.667 13.112-9.958-5.657-20.677-10.137-31.978-13.186-1.804-10.779-9.72-48.438-32.053-48.438h-8.942c-19.187 0-30.19 38.941-32.635 48.707-11.167 3.108-21.723 7.602-31.532 13.238-7.751-5.762-40.967-28.72-57.172-12.515l-8.617 7.238c-14.118 14.134 9.348 51.396 13.656 57.918-5.44 9.692-9.793 20.06-12.806 31.024-9.36 1.476-49.347 9.198-49.347 32.217v8.936c0 19.94 41.952 31.017 49.613 32.866 3.028 10.859 7.395 21.169 12.838 30.777-4.503 7.065-27.075 44.165-13.075 58.179l8.155 6.775c18.426 18.411 56.92-11.843 56.92-11.843l-1.79-1.908a137.473 137.473 0 0 0 32.948 14.103c1.923 7.856 12.984 49.508 32.844 49.508h8.942c26.06 0 32.515-48.643 32.515-48.643l-2.385-0.046c11.808-3.005 23.019-7.566 33.38-13.38 8.155 5.404 42.25 26.76 55.845 13.143l9.064-9.058c18.173-18.166-11.39-55.34-12.21-56.375 5.621-9.832 10.107-20.38 13.207-31.531 10.17-2.586 48.407-13.552 48.407-32.567v-8.936c0.001-25.241-45.512-32.07-48.36-32.495z m-134.19 111.23c-40.831 0-73.914-33.072-73.914-73.9s33.083-73.908 73.915-73.908c40.804 0 73.885 33.082 73.885 73.909s-33.08 73.9-73.885 73.9z m294.782-498.35v-48.161c0-47.422-29.935-75.747-80.057-75.747-50.09 0-80.027 28.326-80.027 75.747v48.16h-54.236v-48.16c0-47.422-29.906-75.747-80.028-75.747-50.12 0-80.027 28.326-80.027 75.747v48.16h-54.266v-48.16c0-47.422-29.905-75.747-80.027-75.747-50.09 0-80.026 28.326-80.026 75.747v48.16H126.25v771.484h771.5V188.213h-90.912zM689.63 140.052c0-23.398 10.734-32.887 37.152-32.887 26.476 0 37.181 9.488 37.181 32.887v128.83c0 23.39-10.705 32.888-37.18 32.888-26.418 0-37.153-9.496-37.153-32.888v-128.83z m-214.29 0c0-23.398 10.704-32.887 37.15-32.887 26.449 0 37.183 9.488 37.183 32.887v128.83c0 23.39-10.734 32.888-37.182 32.888-26.447 0-37.151-9.496-37.151-32.888v-128.83z m-214.35 0c0-23.398 10.734-32.887 37.18-32.887 26.449 0 37.212 9.488 37.212 32.887v128.83c0 23.39-10.764 32.888-37.212 32.888-26.446 0-37.18-9.496-37.18-32.888v-128.83z m572.475 755.37H190.534V359.657h642.932v535.765z"  /></svg>