<?xml version="1.0" encoding="UTF-8"?>
<svg width="16px" height="16px" viewBox="0 0 16 16" version="1.1" xmlns="http://www.w3.org/2000/svg" xmlns:xlink="http://www.w3.org/1999/xlink">
    <title>新增任务弹窗</title>
    <defs>
        <filter id="filter-1">
            <feColorMatrix in="SourceGraphic" type="matrix" values="0 0 0 0 0.149020 0 0 0 0 0.321569 0 0 0 0 1.000000 0 0 0 1.000000 0"></feColorMatrix>
        </filter>
    </defs>
    <g id="设计图" stroke="none" stroke-width="1" fill="none" fill-rule="evenodd">
        <g id="新增任务弹窗" transform="translate(-24.000000, -579.000000)">
            <g id="定位备份-15" transform="translate(24.000000, 579.000000)" filter="url(#filter-1)">
                <g>
                    <path d="M14,3 C14.5522847,3 15,3.44771525 15,4 L15,12 C15,12.5522847 14.5522847,13 14,13 L2,13 C1.44771525,13 1,12.5522847 1,12 L1,4 C1,3.44771525 1.44771525,3 2,3 L14,3 Z M14,4 L2,4 L2,12 L14,12 L14,4 Z" id="形状结合" fill="#456BF6"></path>
                    <path d="M5.828,10.936 C6.508,10.936 7.044,10.792 7.444,10.512 C7.844,10.224 8.044,9.824 8.044,9.328 C8.044,8.808 7.804,8.408 7.332,8.12 C7.092,7.976 6.596,7.792 5.844,7.568 C5.292,7.408 4.94,7.288 4.796,7.208 C4.468,7.032 4.308,6.8 4.308,6.512 C4.308,6.184 4.444,5.944 4.716,5.784 C4.956,5.64 5.284,5.576 5.708,5.576 C6.172,5.576 6.532,5.672 6.788,5.88 C7.036,6.08 7.196,6.384 7.268,6.8 L7.916,6.8 C7.86,6.2 7.644,5.744 7.26,5.44 C6.892,5.144 6.38,5 5.74,5 C5.148,5 4.66,5.128 4.284,5.384 C3.86,5.656 3.652,6.048 3.652,6.544 C3.652,7.024 3.868,7.392 4.308,7.648 C4.492,7.744 4.932,7.904 5.62,8.112 C6.26,8.296 6.668,8.432 6.828,8.528 C7.204,8.728 7.396,9.008 7.396,9.368 C7.396,9.672 7.252,9.912 6.964,10.088 C6.676,10.264 6.292,10.352 5.828,10.352 C5.316,10.352 4.932,10.24 4.668,10.032 C4.38,9.8 4.204,9.432 4.148,8.936 L3.5,8.936 C3.548,9.64 3.796,10.16 4.244,10.504 C4.628,10.792 5.156,10.936 5.828,10.936 Z M10.572,10.936 C11.084,10.936 11.492,10.8 11.804,10.536 C12.124,10.264 12.324,9.856 12.42,9.328 L11.78,9.328 C11.684,10.04 11.276,10.4 10.572,10.4 C10.156,10.4 9.836,10.248 9.62,9.96 C9.396,9.672 9.292,9.272 9.292,8.768 C9.292,8.264 9.404,7.864 9.628,7.568 C9.86,7.264 10.18,7.112 10.58,7.112 C10.908,7.112 11.172,7.184 11.38,7.344 C11.58,7.504 11.708,7.744 11.764,8.064 L12.396,8.064 C12.324,7.56 12.132,7.184 11.812,6.936 C11.5,6.696 11.092,6.576 10.58,6.576 C9.964,6.576 9.476,6.792 9.124,7.232 C8.796,7.632 8.636,8.144 8.636,8.776 C8.636,9.408 8.796,9.92 9.124,10.312 C9.468,10.728 9.948,10.936 10.572,10.936 Z" id="Sc" fill="#456BF6" fill-rule="nonzero"></path>
                </g>
            </g>
        </g>
    </g>
</svg>