<?xml version="1.0" standalone="no"?><!DOCTYPE svg PUBLIC "-//W3C//DTD SVG 1.1//EN" "http://www.w3.org/Graphics/SVG/1.1/DTD/svg11.dtd"><svg class="icon" width="200px" height="200.00px" viewBox="0 0 1024 1024" version="1.1" xmlns="http://www.w3.org/2000/svg"><path fill="#ffffff" d="M1011.987 960.178l-107.81-108.256A237.231 237.231 0 0 0 880.2 544.864a236.208 236.208 0 0 0-167.533-69.379 236.911 236.911 0 1 0 140.037 428.167l107.681 108.065a36.448 36.448 0 1 0 51.603-51.539z m-299.385-83.766a162.929 162.929 0 0 1-115.93-47.958 162.673 162.673 0 0 1-47.957-115.93c0-43.865 17.009-84.98 47.957-115.93a162.673 162.673 0 0 1 115.93-47.957c43.866 0 84.918 17.009 115.866 47.958s47.958 72.064 47.958 115.93c0 43.865-17.009 84.917-47.958 115.865a162.929 162.929 0 0 1-115.866 47.958z"  /><path fill="#ffffff" d="M469.169 877.5H117.095c-29.542 0-43.354-6.97-43.354-36.513 0-29.606 13.812-36.575 43.354-36.575h316.201a296.57 296.57 0 0 1-14.067-73.088H219.916V73.664h511.55v345.423c24.746 1.599 49.236 6.266 73.023 14.068V0.512H73.741C33.456 0.575 0.653 33.25 0.653 73.663V877.5c0 40.285 32.74 73.088 73.088 73.088h466.15a302.262 302.262 0 0 1-35.17-30.118 305.459 305.459 0 0 1-35.552-42.97zM73.74 73.662h73.088v657.661H73.74V73.664z"  /></svg>