<?xml version="1.0" standalone="no"?><!DOCTYPE svg PUBLIC "-//W3C//DTD SVG 1.1//EN" "http://www.w3.org/Graphics/SVG/1.1/DTD/svg11.dtd"><svg class="icon" width="200px" height="200.00px" viewBox="0 0 1024 1024" version="1.1" xmlns="http://www.w3.org/2000/svg"><path fill="#333333" d="M926.8 908.8H97.2C78.9 908.8 64 894 64 875.6V211.9c0-18.3 14.9-33.2 33.2-33.2s33.2 14.9 33.2 33.2v630.5h796.4c18.3 0 33.2 14.9 33.2 33.2 0 18.4-14.9 33.2-33.2 33.2zM528.6 759.7c-18.3 0-33.2-14.9-33.2-33.2V343.3c0-18.3 14.9-33.2 33.2-33.2 18.3 0 33.2 14.9 33.2 33.2v383.2c0 18.3-14.9 33.2-33.2 33.2z m-199.1 0.4c-18.3 0-33.2-14.9-33.2-33.2V510.6c0-18.3 14.9-33.2 33.2-33.2 18.3 0 33.2 14.9 33.2 33.2v216.3c0 18.3-14.9 33.2-33.2 33.2z m597.3 0.1c-18.3 0-33.2-14.9-33.2-33.2V149.2c0-18.3 14.9-33.2 33.2-33.2s33.2 14.9 33.2 33.2V727c0 18.3-14.9 33.2-33.2 33.2z m-199.1 0.1c-18.3 0-33.2-14.9-33.2-33.2V211.9c0-18.3 14.9-33.2 33.2-33.2 18.3 0 33.2 14.9 33.2 33.2V727c0 18.4-14.9 33.3-33.2 33.3z" /></svg>