<?xml version="1.0" encoding="UTF-8"?>
<svg width="16px" height="16px" viewBox="0 0 16 16" version="1.1" xmlns="http://www.w3.org/2000/svg" xmlns:xlink="http://www.w3.org/1999/xlink">
    <title>新增任务弹窗</title>
    <defs>
        <filter id="filter-1">
            <feColorMatrix in="SourceGraphic" type="matrix" values="0 0 0 0 0.972549 0 0 0 0 0.745098 0 0 0 0 0.000000 0 0 0 1.000000 0"></feColorMatrix>
        </filter>
    </defs>
    <g id="设计图" stroke="none" stroke-width="1" fill="none" fill-rule="evenodd">
        <g id="新增任务弹窗" transform="translate(-24.000000, -219.000000)">
            <g id="定位备份-5" transform="translate(24.000000, 219.000000)" filter="url(#filter-1)">
                <g>
                    <path d="M14,3 C14.5522847,3 15,3.44771525 15,4 L15,12 C15,12.5522847 14.5522847,13 14,13 L2,13 C1.44771525,13 1,12.5522847 1,12 L1,4 C1,3.44771525 1.44771525,3 2,3 L14,3 Z M14,4 L2,4 L2,12 L14,12 L14,4 Z" id="形状结合" fill="#333333"></path>
                    <path d="M5.328,10.936 C6.008,10.936 6.544,10.792 6.944,10.512 C7.344,10.224 7.544,9.824 7.544,9.328 C7.544,8.808 7.304,8.408 6.832,8.12 C6.592,7.976 6.096,7.792 5.344,7.568 C4.792,7.408 4.44,7.288 4.296,7.208 C3.968,7.032 3.808,6.8 3.808,6.512 C3.808,6.184 3.944,5.944 4.216,5.784 C4.456,5.64 4.784,5.576 5.208,5.576 C5.672,5.576 6.032,5.672 6.288,5.88 C6.536,6.08 6.696,6.384 6.768,6.8 L7.416,6.8 C7.36,6.2 7.144,5.744 6.76,5.44 C6.392,5.144 5.88,5 5.24,5 C4.648,5 4.16,5.128 3.784,5.384 C3.36,5.656 3.152,6.048 3.152,6.544 C3.152,7.024 3.368,7.392 3.808,7.648 C3.992,7.744 4.432,7.904 5.12,8.112 C5.76,8.296 6.168,8.432 6.328,8.528 C6.704,8.728 6.896,9.008 6.896,9.368 C6.896,9.672 6.752,9.912 6.464,10.088 C6.176,10.264 5.792,10.352 5.328,10.352 C4.816,10.352 4.432,10.24 4.168,10.032 C3.88,9.8 3.704,9.432 3.648,8.936 L3,8.936 C3.048,9.64 3.296,10.16 3.744,10.504 C4.128,10.792 4.656,10.936 5.328,10.936 Z M9.032,10.824 L9.032,8.488 L10.704,8.488 C12.016,8.488 12.68,7.92 12.68,6.792 C12.68,5.672 12.024,5.112 10.712,5.112 L8.376,5.112 L8.376,10.824 L9.032,10.824 Z M10.672,7.92 L9.032,7.92 L9.032,5.68 L10.672,5.68 C11.128,5.68 11.464,5.768 11.688,5.96 C11.912,6.128 12.024,6.408 12.024,6.792 C12.024,7.176 11.912,7.456 11.696,7.64 C11.472,7.824 11.136,7.92 10.672,7.92 Z" id="SP" fill="#333333" fill-rule="nonzero"></path>
                </g>
            </g>
        </g>
    </g>
</svg>