<?xml version="1.0" standalone="no"?><!DOCTYPE svg PUBLIC "-//W3C//DTD SVG 1.1//EN" "http://www.w3.org/Graphics/SVG/1.1/DTD/svg11.dtd"><svg class="icon" width="200px" height="200.00px" viewBox="0 0 1024 1024" version="1.1" xmlns="http://www.w3.org/2000/svg"><path d="M176.64 527.36l36.693333-29.866667a68.693333 68.693333 0 0 0-60.586666-34.986666 80.213333 80.213333 0 0 0-62.293334 30.293333c-16.213333 19.2-14.506667 45.653333-14.506666 50.346667a93.013333 93.013333 0 0 0 10.666666 23.893333c6.4 8.533333 46.933333 50.773333 54.613334 58.88 0 0 8.96 23.893333-2.133334 32.853333a47.786667 47.786667 0 0 1-31.146666 11.52s-26.88-7.68-26.88-32.853333L37.546667 661.333333s6.826667 49.066667 63.146666 49.066667 67.413333-27.733333 67.413334-27.733333 21.333333-21.333333 21.333333-51.626667c0 0 6.4-25.173333-30.72-61.44 0 0-37.12-28.586667-37.12-48.64 0 0 3.84-21.333333 25.173333-17.493333s29.866667 23.893333 29.866667 23.893333z m132.693333-1.706667s-78.506667-5.546667-99.413333 75.093334C195.84 656.64 187.733333 759.466667 187.733333 759.466667h38.826667l7.253333-66.133334s56.32 40.533333 121.173334-9.813333c29.44-31.573333 30.293333-49.066667 34.986666-66.133333 4.266667-31.146667-9.813333-90.026667-80.64-92.16z m-16.213333 143.786667a48.64 48.64 0 0 1-48.64-48.64c0-28.16 32.426667-55.466667 58.026667-55.466667A48.64 48.64 0 0 1 350.293333 614.4c0 28.16-31.573333 54.613333-57.173333 54.613333z m285.866667 34.56h-36.693334l8.533334-74.24s4.693333-66.133333-45.226667-66.133333-58.88 53.333333-58.88 53.333333-2.133333 44.373333 34.133333 52.48a52.48 52.48 0 0 0 54.613334-19.2l-8.106667 47.786667s-49.92 31.146667-100.266667-13.653334c0 0-20.906667-18.773333-20.906666-61.013333 0 0-2.133333-39.253333 37.546666-72.533333s75.52-25.6 75.52-25.6 48.64-0.426667 71.68 61.013333a221.44 221.44 0 0 1 0 35.413333c0 4.693333-12.373333 81.92-12.373333 81.92zM699.733333 530.773333l-4.693333 37.546667h-25.6a19.2 19.2 0 0 0-13.653333 12.373333l-17.066667 122.88h-37.973333l14.506666-122.453333s-0.853333-17.92 17.493334-35.84c0 0 12.8-14.08 26.88-14.506667z m26.026667-30.72l-27.306667 203.52h42.666667l13.226667-93.44 65.28 93.44h49.92l-80.64-112.213333 49.066666-53.76-7.253333-42.24-70.826667 77.653333 11.52-105.386666-45.653333 32.426666z" fill="#414042" /><path d="M843.52 497.066667l63.573333 17.92-37.973333-75.093334 57.6-70.826666-86.186667 20.906666-42.24-69.973333-17.066666 87.466667-86.186667 29.44 63.573333 27.306666-43.093333 29.013334-51.2-21.76s-28.16-12.8-28.16-34.56 28.586667-29.866667 28.586667-29.866667l85.333333-26.453333 14.08-82.773334s6.826667-33.28 29.44-33.28 32 26.453333 43.52 43.52l23.466667 39.68 84.48-22.186666s69.546667-14.506667 28.16 44.373333L913.066667 440.32l35.413333 69.546667s27.733333 56.32-37.546667 49.066666l-61.44-19.626666-6.826666-42.24z" fill="#E06A1A" /></svg>