<?xml version="1.0" encoding="UTF-8"?>
<svg width="16px" height="16px" viewBox="0 0 16 16" version="1.1" xmlns="http://www.w3.org/2000/svg" xmlns:xlink="http://www.w3.org/1999/xlink">
    <title>新增任务弹窗</title>
    <defs>
        <filter id="filter-1">
            <feColorMatrix in="SourceGraphic" type="matrix" values="0 0 0 0 1.000000 0 0 0 0 0.384980 0 0 0 0 0.234451 0 0 0 1.000000 0"></feColorMatrix>
        </filter>
    </defs>
    <g id="设计图" stroke="none" stroke-width="1" fill="none" fill-rule="evenodd">
        <g id="新增任务弹窗" transform="translate(-24.000000, -179.000000)">
            <g id="定位备份-4" transform="translate(24.000000, 179.000000)" filter="url(#filter-1)">
                <g>
                    <path d="M14,3 C14.5522847,3 15,3.44771525 15,4 L15,12 C15,12.5522847 14.5522847,13 14,13 L2,13 C1.44771525,13 1,12.5522847 1,12 L1,4 C1,3.44771525 1.44771525,3 2,3 L14,3 Z M14,4 L2,4 L2,12 L14,12 L14,4 Z" id="形状结合" fill="#333333"></path>
                    <path d="M4.94204202,10.8616631 C5.62204202,10.8616631 6.15804202,10.7176631 6.55804202,10.4376631 C6.95804202,10.1496631 7.15804202,9.74966308 7.15804202,9.25366308 C7.15804202,8.73366308 6.91804202,8.33366308 6.44604202,8.04566308 C6.20604202,7.90166308 5.71004202,7.71766308 4.95804202,7.49366308 C4.40604202,7.33366308 4.05404202,7.21366308 3.91004202,7.13366308 C3.58204202,6.95766308 3.42204202,6.72566308 3.42204202,6.43766308 C3.42204202,6.10966308 3.55804202,5.86966308 3.83004202,5.70966308 C4.07004202,5.56566308 4.39804202,5.50166308 4.82204202,5.50166308 C5.28604202,5.50166308 5.64604202,5.59766308 5.90204202,5.80566308 C6.15004202,6.00566308 6.31004202,6.30966308 6.38204202,6.72566308 L7.03004202,6.72566308 C6.97404202,6.12566308 6.75804202,5.66966308 6.37404202,5.36566308 C6.00604202,5.06966308 5.49404202,4.92566308 4.85404202,4.92566308 C4.26204202,4.92566308 3.77404202,5.05366308 3.39804202,5.30966308 C2.97404202,5.58166308 2.76604202,5.97366308 2.76604202,6.46966308 C2.76604202,6.94966308 2.98204202,7.31766308 3.42204202,7.57366308 C3.60604202,7.66966308 4.04604202,7.82966308 4.73404202,8.03766308 C5.37404202,8.22166308 5.78204202,8.35766308 5.94204202,8.45366308 C6.31804202,8.65366308 6.51004202,8.93366308 6.51004202,9.29366308 C6.51004202,9.59766308 6.36604202,9.83766308 6.07804202,10.0136631 C5.79004202,10.1896631 5.40604202,10.2776631 4.94204202,10.2776631 C4.43004202,10.2776631 4.04604202,10.1656631 3.78204202,9.95766308 C3.49404202,9.72566308 3.31804202,9.35766308 3.26204202,8.86166308 L2.61404202,8.86166308 C2.66204202,9.56566308 2.91004202,10.0856631 3.35804202,10.4296631 C3.74204202,10.7176631 4.27004202,10.8616631 4.94204202,10.8616631 Z M12.694042,11.3336631 L13.126042,10.9576631 C12.910042,10.6456631 12.694042,10.3416631 12.470042,10.0536631 C12.478042,10.0376631 12.494042,10.0216631 12.510042,10.0056631 C12.974042,9.46166308 13.214042,8.76566308 13.214042,7.90166308 C13.214042,7.02966308 12.974042,6.32566308 12.510042,5.78166308 C12.014042,5.20566308 11.334042,4.92566308 10.486042,4.92566308 C9.62204202,4.92566308 8.95004202,5.21366308 8.45404202,5.78966308 C7.98204202,6.33366308 7.75004202,7.03766308 7.75004202,7.90166308 C7.75004202,8.75766308 7.98204202,9.46166308 8.45404202,10.0056631 C8.95004202,10.5736631 9.62204202,10.8616631 10.478042,10.8616631 C11.086042,10.8616631 11.606042,10.7096631 12.038042,10.4216631 C12.254042,10.7096631 12.470042,11.0136631 12.694042,11.3336631 Z M10.478042,10.2776631 C9.82204202,10.2776631 9.30204202,10.0536631 8.93404202,9.60566308 C8.58204202,9.17366308 8.40604202,8.60566308 8.40604202,7.90166308 C8.40604202,7.18966308 8.58204202,6.62166308 8.93404202,6.18966308 C9.31004202,5.73366308 9.83004202,5.50966308 10.486042,5.50966308 C11.142042,5.50966308 11.654042,5.72566308 12.022042,6.16566308 C12.374042,6.59766308 12.558042,7.17366308 12.558042,7.90166308 C12.558042,8.58166308 12.398042,9.13366308 12.078042,9.55766308 C11.758042,9.16566308 11.430042,8.79766308 11.102042,8.44566308 L10.710042,8.82166308 C11.030042,9.15766308 11.350042,9.53366308 11.670042,9.94166308 C11.350042,10.1656631 10.950042,10.2776631 10.478042,10.2776631 Z" id="SQ" fill="#333333" fill-rule="nonzero"></path>
                </g>
            </g>
        </g>
    </g>
</svg>