<?xml version="1.0" standalone="no"?><!DOCTYPE svg PUBLIC "-//W3C//DTD SVG 1.1//EN" "http://www.w3.org/Graphics/SVG/1.1/DTD/svg11.dtd"><svg class="icon" width="200px" height="52.15px" viewBox="0 0 3927 1024" version="1.1" xmlns="http://www.w3.org/2000/svg"><path fill="#333333" d="M1016.81693576 210.90547029a23.19751073 23.19751073 0 0 1-11.41561707 4.02904154 9.67580389 9.67580389 0 0 0-7.56971353 2.47236571 16.63505668 16.63505668 0 0 1-8.91272797 3.99851873 150.02074227 150.02074227 0 0 0-30.52304008 12.63653854c-2.16713594 1.37353664-9.40109632 4.94473263-16.20773452 8.33279003a265.18417316 265.18417316 0 0 0-48.59268017 34.55208103c0 1.06830627 16.20773452 18.03911671 35.92561883 38.09275419 48.40954161 48.59268019 51.46184585 54.75833428 52.62172113 106.4338415 0.7630759 29.91257934 0.30523038 39.49681423-3.23544223 45.96769809-3.54067259 7.08134518-6.77611481 14.34582893-10.01155705 21.5797893a254.10430925 254.10430925 0 0 1-34.58260499 53.65950461 422.22521441 422.22521441 0 0 1-59.7030663 57.9937765c-52.34701415 42.12179573-71.54600613 68.3410867-70.93554541 97.67372872 0.30523038 19.74840712 10.80515634 35.62038788 35.92561824 54.75833426a222.81819326 222.81819326 0 0 0 79.5735658 38.55059975 704.41072081 704.41072081 0 0 0 153.62246106 23.44169489 56.62023926 56.62023926 0 0 0 17.88650155-30.85879383 3.05230425 3.05230425 0 0 1 2.77759667-2.77759668c1.70929041 0 2.62498149-1.86190559 2.6249815-3.99851816a133.44673178 133.44673178 0 0 1 12.48392335-31.92710009 36.62764797 36.62764797 0 0 0 3.84590296-10.80515635 34.15528166 34.15528166 0 0 1 3.5406726-10.01155705 474.81641274 474.81641274 0 0 0 26.21929156-156.85790328 155.66750461 155.66750461 0 0 0-8.18017486-52.13335276c-4.30374849-4.63950226-8.6380204 10.01155705-7.08134517 23.74692525 2.16713594 19.44317676-0.7630759 22.98384934-12.2092158 14.80367449-17.88650153-12.63653854-26.52452193-17.2760408-28.84427308-14.80367449-1.86190559 2.16713594 12.63653854 14.8036745 17.27604081 15.26152003 6.1046079 0 20.20625267 8.6380204 19.1379458 11.56823226a123.52674372 123.52674372 0 0 1-26.98236748 16.81819527 254.95895474 254.95895474 0 0 0-29.45473379 16.81819466 15.59727381 15.59727381 0 0 1-16.51296431 1.86190557c-0.7630759-1.06830627 0.30523038-5.40257817 2.47236633-9.70632667a87.81478686 87.81478686 0 0 0 3.05230363-44.25840829c-3.05230425-3.05230425-7.23396036 3.99851813-7.23396035 12.20921639a180.51325954 180.51325954 0 0 1-10.80515636 44.25840829c-1.06830627 1.37353664-6.77611481-3.54067259-12.48392336-10.49992599-21.91554306-26.67713711-25.45621566-29.4547338-25.45621566-19.44317675a62.02281744 62.02281744 0 0 0 20.20625266 29.14950343c3.99851813 0 10.34731079 11.11038672 7.56971414 13.58275302a87.87583245 87.87583245 0 0 1-18.3138243 6.47088446 271.65505762 271.65505762 0 0 0-48.28744922 18.31382428c-3.99851813 3.23544223-15.26152002 2.77759668-15.26152003-1.06830687a30.88931662 30.88931662 0 0 1 6.10460789-11.41561708c16.81819526-22.22077343 31.31663939-67.70010317 15.26152005-47.49385051a433.42717072 433.42717072 0 0 0-33.57534432 56.43710126c-1.37353664 3.99851813-3.54067259 5.70780853-7.56971414 5.09734783-4.94473263-0.61046072-6.47088446-3.69328777-9.70632665-19.13794579-3.84590296-18.31382429-8.94325077-23.44169489-12.20921581-12.20921639a36.35294099 36.35294099 0 0 0 2.47236631 28.08119716 23.56378728 23.56378728 0 0 1 3.99851814 12.48392336c0 7.23396036-0.61046072 7.56971413-12.48392335 7.56971412a52.71329011 52.71329011 0 0 0-17.58127117 2.77759667 73.43843452 73.43843452 0 0 1-16.5129649 5.40257759 70.66083784 70.66083784 0 0 0-34.09423606 13.27752265c-2.16713594 6.47088446 25.45621566 2.47236632 54.75833428-8.33279003 11.56823227-3.99851813 25.60883084-6.1046079 25.60883083-3.05230363a40.32093635 40.32093635 0 0 1-8.33279002 11.41561706c-20.05363747 21.91554306-42.09127235 55.82664054-38.85583011 59.36731314a174.71388201 174.71388201 0 0 0 35.92561823-38.39798455 31.28611599 31.28611599 0 0 1 8.94325078-10.01155765c1.37353664 0 2.47236632-1.55667523 2.4723663-3.54067258a30.2178097 30.2178097 0 0 1 6.47088446-11.11038673l6.10460792-8.18017425 11.87346261 12.20921579a185.91583772 185.91583772 0 0 0 24.84575493 21.12194375c12.48392336 8.33279003 14.34582893 13.73536822 5.0973478 13.73536822a76.91806151 76.91806151 0 0 0-15.41413521 3.69328776c-6.1046079 2.16713594-18.03911671 6.1046079-26.98236748 8.63802041a97.42954395 97.42954395 0 0 0-20.20625267 8.18017487 24.75418535 24.75418535 0 0 1-10.49992599 4.30374849 10.53044878 10.53044878 0 0 0-7.87494449 3.99851814c-1.37353664 4.94473263 10.34731079 4.30374849 27.28759785-0.7630759 7.8749445-2.16713594 20.8167134-6.1046079 28.84427307-8.6380204a114.61401576 114.61401576 0 0 0 20.20625266-7.8749445c5.86042372-3.84590296 17.58127117-4.94473263 17.58127116-1.37353663a83.05319221 83.05319221 0 0 1-10.01155702 15.87198075c-5.70780853 7.56971413-13.58275303 19.44317676-17.58127118 26.21929157-8.18017486 13.73536822-14.6510593 15.71936559-29.91257934 8.6380204-4.94473263-1.86190559-15.41413522-6.47088446-23.44169489-9.70632668a61.56497189 61.56497189 0 0 1-17.88650155-9.70632668 91.90487397 91.90487397 0 0 0-25.12046249-17.3065636 107.34953198 107.34953198 0 0 1-26.52452194-29.91257934 33.88057469 33.88057469 0 0 1-5.00577821-25.0288935 40.41250533 40.41250533 0 0 1 3.84590295-18.31382369 11.07986332 11.07986332 0 0 0 3.26596563-6.10460791c0-10.49992599 42.09127235-45.35723796 73.40791111-61.22921872a120.87123884 120.87123884 0 0 0 15.71936618-9.15691214 194.52333473 194.52333473 0 0 1 51.88916802-24.41843218 30.15676352 30.15676352 0 0 0 13.27752265-5.40257817 10.68306396 10.68306396 0 0 1 6.77611483-3.84590295 45.32671456 45.32671456 0 0 0 13.73536822-5.40257818 58.42109865 58.42109865 0 0 1 12.94176889-5.40257818 66.60127351 66.60127351 0 0 0 13.73536822-5.0973478 156.85790328 156.85790328 0 0 1 22.67861839-8.33279004 165.52644709 165.52644709 0 0 0 18.98533118-6.47088445 545.14149743 545.14149743 0 0 1 68.79893286-21.91554247 310.38879534 310.38879534 0 0 0 31.01140842-10.01155765 106.40331811 106.40331811 0 0 1 17.58127116-5.09734721c6.1046079-1.37353664 18.64957745-3.99851813 28.38642751-6.47088446 37.48229347-9.15691214 82.41220868-18.31382429 114.73610817-23.28907969 19.1379464-3.05230425 25.60883084-5.86042372 25.60883024-11.56823227a254.22640163 254.22640163 0 0 0-55.3687944-59.36731313 381.72114009 381.72114009 0 0 0-128.19676879-56.92547024c-11.11038672-2.47236632-26.21929157-6.1046079-33.7890057-8.18017485a177.91880144 177.91880144 0 0 0-26.98236748-5.40257819 640.06815226 640.06815226 0 0 1-29.75996417-5.40257757 198.39976108 198.39976108 0 0 0-29.75996417-3.69328837 126.3959094 126.3959094 0 0 1-30.52304006-5.40257758 61.3513105 61.3513105 0 0 0-21.12194375-3.84590354 48.83686435 48.83686435 0 0 1-17.27604081-3.23544224 51.64498384 51.64498384 0 0 0-19.44317674-3.23544222 38.123277 38.123277 0 0 1-16.81819527-2.16713595 161.22269798 161.22269798 0 0 0-21.12194376-5.09734722c-8.6380204-1.70929041-12.9417689-5.70780853-12.94176892-12.48392395 0-1.37353664 5.70780853-5.70780853 12.48392336-9.70632668l12.2092164-7.23396036 5.40257816 6.47088445c4.79211744 6.1046079 5.09734781 6.1046079 3.5406726 0.76307591-0.9156911-6.77611481 15.41413522-25.1509853 23.59431007-25.15098468A8.6990666 8.6990666 0 0 0 978.57156638 236.81953149a16.05511935 16.05511935 0 0 1 8.94325077-3.99851814 134.69817605 134.69817605 0 0 0 18.98533122-7.26448376c16.20773452-7.8749445 20.05363747-6.1046079 23.74692525 9.70632669a94.62142447 94.62142447 0 0 0 6.77611482 19.44317674c6.77611481 10.49992599 0.7630759 12.20921579-22.98384934 6.10460788a102.34375377 102.34375377 0 0 0-53.99525778-3.05230423c-0.7630759 1.70929041 3.05230425 3.54067259 8.63802041 4.30374911s16.20773452 3.54067259 23.44169489 5.70780853a124.41191202 124.41191202 0 0 0 29.14950285 3.84590297c11.56823227 0 16.20773452 1.06830627 17.2760408 3.99851812 1.06830627 2.16713594 3.05230425 3.99851813 4.79211743 3.99851815a37.57386246 37.57386246 0 0 1 10.34731081 10.80515635c3.99851813 6.1046079 8.94325077 10.80515634 10.49992598 10.80515635 3.54067259 0 1.37353664-7.23396036-7.08134577-25.91406121a354.58615744 354.58615744 0 0 1-16.81819466-42.73225645c-3.72381117-13.79641441-10.19469563-25.66987703-14.04059859-25.66987645a19.50422295 19.50422295 0 0 0-9.40109631 3.99851815zM960.68506486 309.15913633a17.88650153 17.88650153 0 0 1 6.10460789 14.8036745c0 5.40257817-0.61046072 9.70632668-1.37353663 9.70632668a188.44925023 188.44925023 0 0 1-25.15098472-27.28759785c-1.86190559-4.48688708 14.8036745-2.31975113 20.51148244 2.77759668z m47.18862014 7.41709895a104.08356697 104.08356697 0 0 1 21.57978931 6.47088445c1.37353664 1.06830627-3.54067259 5.70780853-10.80515575 10.01155705a192.60038355 192.60038355 0 0 0-20.8167134 15.41413521c-9.40109632 8.94325077-13.58275303 7.8749445-14.6510593-3.99851814a30.79774764 30.79774764 0 0 0-4.63950226-13.27752206 24.11320182 24.11320182 0 0 1-4.30374852-16.97081044c0.7630759-3.05230425 12.63653854-2.31975113 33.57534373 2.31975113z m38.09275419 11.26300191a218.66705993 218.66705993 0 0 1 6.1046079 25.9140612c3.23544223 16.20773452 3.69328777 24.41843218 1.86190559 26.21929157s-9.70632668 0.45784554-25.45621565-4.30374909l-25.91406062-8.33279006c-6.47088446-1.70929041-3.54067259-5.70780853 13.58275243-18.98533059a137.35368093 137.35368093 0 0 0 20.20625267-17.88650154c3.84590296-5.09734781 7.56971413-6.1046079 9.70632667-2.62498149z m51.67550725 4.94473261a189.24284894 189.24284894 0 0 0 26.21929157 3.84590297c12.20921579 0 11.11038672 4.94473263-2.47236632 10.80515634a177.94932424 177.94932424 0 0 0-41.02296606 23.4416949c-6.47088446 4.94473263-12.63653854 8.18017486-14.04059858 7.23396036a39.49681423 39.49681423 0 0 1-2.47236632-17.88650153 33.30063675 33.30063675 0 0 0-4.3037485-21.36612793 9.43161971 9.43161971 0 0 1-2.62498149-9.15691216c1.55667523-4.48688708 3.38805741-4.48688708 40.7177357 3.05230366z m47.98221884 23.13646453a69.65357775 69.65357775 0 0 1-5.09734781 15.71936558 250.71625183 250.71625183 0 0 0-13.27752208 31.62186974 10.408357 10.408357 0 0 1-15.87198135 6.1046079 200.29218946 200.29218946 0 0 0-20.20625206-10.80515635 97.94843569 97.94843569 0 0 1-16.51296489-9.15691213 211.73832994 211.73832994 0 0 1 25.91406121-16.97081046c14.04059858-8.6380204 28.84427306-17.88650153 32.99540638-20.20625265 11.2630019-7.08134518 13.8879834-6.31826927 12.02607781 3.69328837z m29.91257936-5.86042374a364.10934613 364.10934613 0 0 1 65.86872098 23.74692528c0.7630759 2.77759668-13.58275303 8.6380204-21.12194375 8.6380204a281.51399947 281.51399947 0 0 0-69.40939359 23.74692526c-4.94473263 2.47236632-9.40109632 3.54067259-10.49992599 2.47236572a36.62764797 36.62764797 0 0 1 6.1046085-17.27604021 73.25529653 73.25529653 0 0 0 8.33278943-29.14950342c0.30523038-7.23396036 0.61046072-13.73536822 0.76307652-14.34582896 0.45784554-1.70929041 12.48392336-0.30523038 20.05363689 2.16713594z m-152.21840103 39.9851826a88.69995456 88.69995456 0 0 1 16.97081045 6.1046079c1.37353664 0.7630759-3.54067259 6.47088446-10.80515635 12.20921579s-16.20773452 14.04059858-20.20625266 18.31382429c-8.94325077 9.40109632-11.56823227 7.8749445-11.87346264-7.23396038a155.36227425 155.36227425 0 0 0-2.47236631-24.41843218l-2.16713595-12.91124611 7.8749445 1.70929041c4.30374849 1.06830627 14.6510593 3.69328777 22.67861896 6.10460789z m227.94606386-2.47236631c1.37353664 2.16713594-7.8749445 15.71936559-14.6510593 21.91554247-0.7630759 0.7630759-8.18017486 9.70632668-16.20773451 20.20625267s-16.51296489 20.51148303-18.3138237 22.37338862a69.50096257 69.50096257 0 0 0-7.23396095 11.56823226c-5.40257817 10.34731079-10.34731079 10.01155705-17.88650155-1.06830629a127.1589853 127.1589853 0 0 0-28.69165727-28.08119716c-12.48392336-8.18017486-7.8749445-12.48392336 22.98384873-22.22077343 15.87198077-5.09734781 34.09423606-11.41561707 40.25989015-14.04059798a54.11735015 54.11735015 0 0 1 15.26152005-5.09734781 11.53770947 11.53770947 0 0 0 7.23396036-3.99851874c3.84590296-4.48688708 15.26152002-5.249963 17.42865598-1.55667461z m74.20151045 42.73225587c7.8749445 7.56971413 13.58275303 14.8036745 12.63653854 16.51296488a47.89064988 47.89064988 0 0 1-21.91554248 3.05230425 156.67476531 156.67476531 0 0 0-31.62186974 2.77759667c-6.47088446 1.37353664-26.67713711 6.1046079-45.35723796 10.4999254a341.0644506 341.0644506 0 0 1-34.55208101 7.08134578 89.43250768 89.43250768 0 0 1 14.34582893-16.5129649 203.64972407 203.64972407 0 0 0 39.16106047-55.82664055 13.46066064 13.46066064 0 0 1 5.70780855-8.33279002c5.40257817-3.69328777 7.08134518-3.05230425 26.52452195 11.56823226 11.2630019 8.6380204 26.82975229 21.73240449 35.00992714 29.3021186z m-240.00266448-16.26878013c18.03911671 8.33279003 21.36612792 15.71936559 8.94325077 18.64957745a147.79256073 147.79256073 0 0 0-34.55208161 17.2760408 31.74396153 31.74396153 0 0 1-11.41561708 5.09734781c-3.54067259 0.30523038-1.70929041-9.40109632 3.69328777-17.27604081a28.29485853 28.29485853 0 0 0 3.5406726-12.9417689c0-9.70632668 4.30374849-18.03911671 9.4010963-18.03911672a80.82501067 80.82501067 0 0 1 20.35886786 7.23396037z m-37.78752384 1.55667522a216.07260125 216.07260125 0 0 1-24.41843217 53.20165906c-2.5944587 1.40406005-7.50866793-0.7630759-14.8036745-7.23396098l-10.80515635-9.15691214 18.98533121-16.81819466c10.34731079-9.15691214 20.51148303-18.9853312 22.67861899-21.36612852 3.99851813-4.79211744 8.33279003-3.99851813 8.33278943 1.37353724z m111.6532811 48.83686376c13.27752267 11.56823227 14.6510593 17.88650153 3.99851815 17.88650214a414.93020786 414.93020786 0 0 0-78.8104899 24.41843157c-22.22077343 8.94325077-29.91257934 7.8749445-17.88650154-2.47236573a401.28640925 401.28640925 0 0 0 47.79908088-55.67402535l8.63802041-12.63653855 11.56823226 8.33278944c6.31826927 4.63950226 17.42865599 13.58275303 24.66261636 20.05363748z m-60.43562001-17.52022498a399.14979608 399.14979608 0 0 1-38.0927542 48.25692702 21.36612792 21.36612792 0 0 0-5.09734721 8.18017425 36.01718724 36.01718724 0 0 1-5.40257818 8.18017486c-6.1046079 7.23396036-10.80515634 5.70780853-10.80515634-3.05230364a23.3806487 23.3806487 0 0 0-4.30374852-12.20921639c-7.08134518-10.19469563-3.84590296-17.2760408 11.11038672-25.15098529a393.74721851 393.74721851 0 0 0 37.78752324-21.36612793c8.94325077-5.55519337 14.8036745-6.77611481 14.80367449-3.05230367z m-96.84960603 27.28759784c2.62498149 1.70929041 5.09734781 4.63950226 5.09734722 6.47088507a47.49385051 47.49385051 0 0 1-20.51148303 17.88650152c-1.06830627 0-3.23544223 1.86190559-5.0973472 4.63950166-4.79211744 6.77611481-7.08134518 0-2.47236633-8.33279003a45.26566838 45.26566838 0 0 0 3.84590296-11.11038613 16.78767187 16.78767187 0 0 1 11.11038673-12.20921637 22.5565266 22.5565266 0 0 1 8.02755965 2.6249815z m24.72366256 32.0797153c7.23396036 14.6510593 5.40257817 19.44317676-9.15691214 24.41843218a489.65061063 489.65061063 0 0 0-46.42554424 20.81671339c-15.71936559 8.33279003-11.87346263-0.7630759 6.47088445-15.71936558a258.46910394 258.46910394 0 0 0 28.38642752-27.77596679c5.09734781-6.77611481 10.80515634-12.48392336 12.63653855-12.48392335s5.40257817 4.94473263 8.18017485 10.65254117z m-37.23810931 2.80812008a165.61801607 165.61801607 0 0 1-39.06949148 40.07675156c-15.71936559 9.40109632-6.47088446-7.23396036 12.2092164-22.98384933 7.08134518-5.70780853 14.6510593-12.20921579 16.97080983-14.8036745 5.40257817-5.09734781 7.72232931-5.55519337 9.85894245-2.16713595z m137.71995748 70.20299229a243.78752184 243.78752184 0 0 1-8.63802039 68.34108669 19.77892991 19.77892991 0 0 0-1.86190557 13.27752268c1.70929041 5.09734781 0.30523038 10.80515634-8.18017487 38.55059974-12.48392336 39.95465979-13.58275303 41.78604198-18.0391167 41.78604198a46.57815942 46.57815942 0 0 0-16.5129649 7.87494448 67.91376454 67.91376454 0 0 1-21.12194375 9.15691215 235.94310074 235.94310074 0 0 0-39.16106048 10.34731021c-3.05230425 1.06830627-10.49992599 3.54067259-16.81819527 5.09734781-15.71936559 3.99851813-14.49844413 8.18017486 2.16713596 8.18017486a143.702473 143.702473 0 0 0 50.27144719-12.63653855 49.26418711 49.26418711 0 0 1 11.56823227-3.5406726 36.81078654 36.81078654 0 0 0 12.20921638-7.08134518c5.09734781-3.84590296 10.49992599-6.1046079 12.20921579-5.09734781 3.69328777 2.47236632 3.54067259 12.63653854-1.06830628 18.98533061a52.95747488 52.95747488 0 0 0-5.40257818 13.58275303 46.97495878 46.97495878 0 0 1-6.7761148 14.65105931c-5.09734781 6.47088446-5.40257817 6.47088446-23.4416949 3.23544223a1447.64674954 1447.64674954 0 0 0-65.44139823-7.99703628c-2.16713594-0.30523038-2.77759668-2.47236632-1.70929041-7.23396098 1.70929041-6.47088446 1.37353664-7.08134518-4.63950167-5.70780852-17.58127117 3.99851813-26.67713711 5.09734781-26.67713711 2.47236632a4.70054846 4.70054846 0 0 1 2.16713535-3.84590296 263.71906693 263.71906693 0 0 0 35.65091129-47.76855749c2.62498149-7.08134518 4.79211744-8.33279003 12.20921577-8.33279003a18.31382429 18.31382429 0 0 1 12.20921641 3.99851813 13.85746001 13.85746001 0 0 0 9.15691212 3.99851814 38.79478393 38.79478393 0 0 1 12.48392337 3.99851814c7.56971413 4.30374849 40.56512051 5.40257817 40.5651199 1.37353724 0-1.37353664-3.23544223-3.23544223-7.23396035-3.99851873a203.80233925 203.80233925 0 0 1-20.05363748-5.40257818 98.92517298 98.92517298 0 0 0-16.81819466-3.99851814c-6.1046079 0-23.28907972-8.94325077-23.44169489-12.20921579 0-1.70929041 7.56971413-5.09734781 16.97080984-7.8749445s18.64957745-6.1046079 20.81671339-7.23396036a272.72336391 272.72336391 0 0 1 31.01140902-13.27752266 144.46554892 144.46554892 0 0 0 18.03911671-10.80515635c12.48392336-8.18017486 15.41413522-11.11038672 11.87346264-12.48392337a8.79063559 8.79063559 0 0 0-7.87494449 1.06830628 71.60705233 71.60705233 0 0 1-16.81819465 7.23396097c-7.56971413 2.47236632-18.31382429 6.77611481-24.4184322 9.40109632-28.08119714 12.9417689-41.63342678 18.9853312-42.73225647 18.98533061-3.23544223 0-1.37353664-6.1046079 7.08134519-21.12194377a192.69195252 192.69195252 0 0 0 14.49844412-32.99540639c6.77611481-20.05363747 9.70632668-21.12194376 26.52452194-9.70632668a178.46821598 178.46821598 0 0 0 48.13483463 17.73388636c4.94473263 0 1.70929041-5.09734781-5.0973478-7.87494449a834.49991859 834.49991859 0 0 1-41.32819642-20.05363749c-10.34731079-5.09734781-8.18017486-9.70632668 6.77611481-16.20773392a138.11675684 138.11675684 0 0 0 41.69447298-26.12772259c0-1.86190559 4.30374849-3.99851813 11.41561709-5.09734781a4.76159405 4.76159405 0 0 1 3.5406726 2.6249815z m-98.86412735 53.29322805a460.22639962 460.22639962 0 0 1-40.25989016 73.25529653 198.39976108 198.39976108 0 0 1-53.20165905-43.49533238 30.33990209 30.33990209 0 0 1 15.71936618-6.77611482 318.29426263 318.29426263 0 0 0 59.06208277-19.44317674c9.85894186-5.249963 18.9853312-6.77611481 18.64957746-3.38805742z m0 0"  /><path fill="#333333" d="M957.02230047 278.45295828c9.15691214 8.6380204 11.41561707 8.6380204 5.09734722 0-2.77759668-3.54067259-6.47088446-6.77611481-8.6380204-6.77611481s-0.7630759 2.77759668 3.54067318 6.77611481z m73.56052631 5.40257817a14.6815821 14.6815821 0 0 1-7.08134519 3.99851815 5.49414716 5.49414716 0 0 0-4.30374849 2.6249815c-0.7630759 1.37353664 0 2.77759668 1.86190558 2.77759667 4.30374849-0.30523038 16.97081044-10.49992599 15.26152004-12.48392336-0.61046072-0.7630759-3.38805741 0.61046072-5.55519336 3.05230366z m910.74647259 24.41843217a23.07541833 23.07541833 0 0 0-13.58275243 23.28907913c0 8.6380204-1.06830627 10.49992599-6.77611483 11.87346262-8.6380204 2.16713594-8.6380204 7.23396036 0.30523036 13.27752267 7.08134518 4.63950226 7.08134518 4.94473263 6.1046079 33.14802157l-1.06830627 28.84427306 7.56971352 0.76307593 7.23396096 0.76307591V389.34316287c0-28.84427306 0.30523038-31.31663939 5.09734721-31.31663879 6.1046079 0 12.20921579-6.77611481 9.70632729-10.80515634a11.3240481 11.3240481 0 0 0-8.18017486-2.6249815c-7.56971413 0-9.40109632-4.30374849-6.10460789-14.04059858a12.97229231 12.97229231 0 0 1 11.87346262-9.15691214c10.49992599-1.86190559 12.63653854-9.70632668 3.99851814-14.6510593-6.31826927-3.23544223-7.56971413-3.23544223-16.20773452 1.55667521z m-392.37368127 3.05230367a14.34582893 14.34582893 0 0 0 1.70929039 16.51296489 12.20921579 12.20921579 0 0 0 16.81819526-3.99851815 9.76737287 9.76737287 0 0 0-9.15691215-14.34582893 16.78767187 16.78767187 0 0 0-9.40109631 1.86190558z m-127.40316948 3.23544222c-0.7630759 1.37353664-1.86190559 25.1509853-2.77759669 52.43858314-1.06830627 53.6595046-0.30523038 57.53593095 11.56823227 52.89642868 6.47088446-2.47236632 6.47088446-2.47236632 4.63950226-34.85731196-1.86190559-28.38642753-1.70929041-32.38494566 2.16713535-32.38494567 2.47236632 0 5.09734781 2.62498149 6.10460849 6.10460791a282.85701333 282.85701333 0 0 0 13.58275244 33.14802156c1.86190559 4.30374849 5.70780853 12.63653854 8.18017485 18.31382429 7.8749445 18.31382429 14.34582893 11.41561707 32.38494565-35.92561826 6.47088446-17.2760408 8.18017486-19.74840712 12.2092164-21.12194375 3.05230425-1.06830627 3.23544223 4.79211744 1.86190498 31.62186975-1.37353664 32.69017601-1.37353664 32.69017601 4.94473263 34.24685124a17.03185663 17.03185663 0 0 0 8.94325078 0 554.48154754 554.48154754 0 0 0-1.70928982-104.7245511c-7.56971413-7.56971413-19.1379464 7.56971413-34.85731197 45.7845601-15.26152002 37.02444792-15.71936559 37.48229347-22.37338861 19.74840713-6.1046079-15.87198077-13.58275303-33.57534432-17.58127118-41.02296606a30.52304008 30.52304008 0 0 1-3.99851814-10.80515636c-0.15261518-9.15691214-18.80219262-19.74840712-23.13646453-13.27752205z m555.51933101 11.72084745a17.30656358 17.30656358 0 0 0-3.23544223 9.70632667 7.26448375 7.26448375 0 0 1-5.40257817 7.87494448c-3.05230425 0.7630759-5.40257817 3.05230425-5.40257817 4.94473264a17.73388636 17.73388636 0 0 0 5.40257817 8.18017486c4.63950226 3.99851813 5.40257817 8.33279003 5.40257817 28.08119656 0 26.21929157 2.77759668 32.38494566 16.20773452 38.0927542 7.56971413 3.23544223 8.94325077 3.05230425 14.80367449-2.77759668 7.8749445-7.23396036 6.77611481-10.01155705-4.94473263-12.94176891-8.6380204-2.16713594-8.6380204-2.47236632-10.3473108-22.37338861-1.55667523-24.05215562-1.06830627-26.67713711 7.08134519-26.67713712 8.6380204 0 13.73536822-6.77611481 9.40109691-12.20921579a11.17143291 11.17143291 0 0 0-9.15691213-3.54067259c-4.63950226 0.61046072-5.86042372-0.7630759-7.08134579-8.6380204-1.06830627-10.19469563-7.08134518-13.43013785-12.63653854-7.72232931z m-380.50021865 21.36612853a40.19884395 40.19884395 0 0 0-16.51296488 40.56511991 31.62186974 31.62186974 0 0 0 19.44317676 31.31663937c16.20773452 8.33279003 40.56512051 1.86190559 37.48229346-10.01155702-1.37353664-4.63950226-3.05230425-5.09734781-11.87346262-3.69328779-14.6510593 2.47236632-21.91554306-0.30523038-27.47073644-9.4010963a23.71640245 23.71640245 0 0 1-0.61046072-26.52452194 22.03763485 22.03763485 0 0 1 28.69165788-11.56823227c6.77611481 3.05230425 8.6380204 3.05230425 10.49992539 0a11.53770947 11.53770947 0 0 0-3.69328778-14.04059857 46.60868222 46.60868222 0 0 0-35.77300306 3.3880574z m57.84116132-2.47236631c-3.99851813 3.23544223-4.63950226 7.8749445-3.99851873 38.55059974l0.76307591 35.16254175h6.77611541c6.47088446 0 6.77611481-0.61046072 8.18017486-24.4184316a129.35664406 129.35664406 0 0 1 3.99851815-28.69165787 35.80352586 35.80352586 0 0 1 12.94176889-8.94325078c7.23396036-3.05230425 10.34731079-5.70780853 9.40109632-8.94325076-1.06830627-6.47088446-11.56823227-7.56971413-19.44317676-2.47236632-5.40257817 3.54067259-6.77611481 3.54067259-10.34731021 0-3.05230425-3.05230425-4.63950226-3.05230425-8.33279003-0.30523037z m51.88916802 7.56971353a44.77730002 44.77730002 0 0 0-12.087124 41.02296605 45.78456012 45.78456012 0 0 0 24.41843217 26.52452193 37.36020109 37.36020109 0 0 0 49.96621683-37.78752383c0-26.21929157-13.27752267-40.56512051-37.32967829-40.56511991a24.90680052 24.90680052 0 0 0-25.15098471 10.80515576z m39.16106046 9.4010963c5.70780853 5.40257817 7.08134518 8.94325077 7.08134519 20.20625266 0 23.74692526-17.88650153 34.5520816-34.09423547 20.51148304-6.47088446-5.40257817-7.56971413-8.33279003-7.56971412-20.51148304s1.06830627-15.26152002 7.56971412-20.51148302a17.70336356 17.70336356 0 0 1 26.98236748 0.30523036z m41.02296608-11.87346263c-12.20921579 14.34582893-8.18017486 26.21929157 13.27752266 38.55059977 13.27752267 7.8749445 13.73536822 8.94325077 8.33279004 16.51296486-3.05230425 4.30374849-4.94473263 4.63950226-15.41413582 1.8619056-13.43013785-3.54067259-19.1379464-0.7630759-14.34582836 7.08134518a30.76722426 30.76722426 0 0 0 41.6334268 0 21.73240449 21.73240449 0 0 0-1.86190559-30.52304008 26.1277226 26.1277226 0 0 0-10.49992599-6.77611481 19.99259129 19.99259129 0 0 1-8.94325075-6.47088445c-5.70780853-5.86042372-5.70780853-6.47088446-1.37353666-11.11038672s6.77611481-4.30374849 22.67861899-0.76307591c5.09734781 1.06830627 7.08134518-11.41561707 2.16713536-14.34582894a40.22936676 40.22936676 0 0 0-16.20773394-2.47236632 19.47369956 19.47369956 0 0 0-19.44317674 8.48540522z m64.7698913-2.62498089a47.79908089 47.79908089 0 0 0-16.97081043 36.23084862c5.09734781 32.07971529 27.47073643 46.42554424 54.60571908 35.31515751 14.8036745-6.1046079 20.8167134-18.31382429 19.74840653-40.56512052-1.06830627-17.2760408-1.55667523-18.9853312-11.11038612-27.47073643a26.67713711 26.67713711 0 0 0-24.41843218-9.15691213 33.57534432 33.57534432 0 0 0-21.7324045 5.86042373z m36.4139866 16.20773392a25.36464666 25.36464666 0 0 1 3.69328836 32.0797153 19.44317676 19.44317676 0 0 1-22.37338861 12.20921639 23.44169489 23.44169489 0 0 1-18.03911671-26.52452194c0-11.11038672 1.06830627-14.34582893 7.56971412-19.74840712a18.31382429 18.31382429 0 0 1 29.14950284 2.01452077z m-337.92057736-17.27604079l-0.61046072 37.32967828-0.61046073 35.16254234h16.20773392v-73.25529654l-7.23396037-0.76307591c-4.30374849-0.45784554-7.56971413 0-7.72232931 1.37353664z m-78.04741399 103.16787587a76.73492293 76.73492293 0 0 0-44.56363865 25.9140612 45.41828356 45.41828356 0 0 0-16.97081044 31.01140903 75.23929391 75.23929391 0 0 0 9.15691215 54.30048811 171.72262397 171.72262397 0 0 0 49.3557561 40.71773571c6.1046079 3.54067259 13.73536822 7.56971413 16.81819526 9.15691214a131.79848759 131.79848759 0 0 1 41.63342678 37.78752384 43.95317792 43.95317792 0 0 1-6.77611482 47.03600496 83.0837156 83.0837156 0 0 1-95.32345477-3.5406732 36.16980243 36.16980243 0 0 0-15.71936559-7.23396036c-5.40257817 0-5.70780853 0.7630759-3.99851814 12.48392338 0.7630759 7.08134518 1.70929041 15.41413522 1.70929039 19.13794637 0 4.94473263 2.77759668 7.56971413 11.56823228 11.41561708a128.86827572 128.86827572 0 0 0 111.50066532-1.86190558 71.72914411 71.72914411 0 0 0 31.62186974-86.07497306 151.97421684 151.97421684 0 0 0-69.86723913-63.09112431c-38.09275419-19.74840712-52.13335278-38.85583011-48.13483403-65.38035205a45.99822149 45.99822149 0 0 1 28.3864275-30.85879323 92.5763809 92.5763809 0 0 1 69.86723855 8.63802041 12.60601574 12.60601574 0 0 0 9.70632666 3.23544221c3.99851813-0.7630759 4.94473263-3.23544223 3.99851874-16.97081044-1.37353664-23.44169489-3.54067259-25.1509853-41.02296606-26.67713712a321.22447449 321.22447449 0 0 0-43.19010201 0.76307592z m226.72514241 0.15261519a88.242109 88.242109 0 0 0-38.39798456 12.94176889 11.14090951 11.14090951 0 0 1-6.77611482 3.23544223 154.019261 154.019261 0 0 0-45.02148419 50.27144719 181.58156582 181.58156582 0 0 0-12.63653856 119.03985666 108.47888507 108.47888507 0 0 0 22.22077344 50.72929274 114.15617021 114.15617021 0 0 0 76.64335335 49.66098646c10.49992599 1.86190559 21.57978931 3.99851813 24.84575493 4.63950225a94.62142447 94.62142447 0 0 1 25.15098528 24.84575493c34.85731198 42.73225645 32.69017601 41.02296607 56.92546963 41.02296607s26.67713711-2.77759668 13.27752267-15.41413581c-44.86886902-41.63342678-57.84116132-54.75833428-55.368795-56.92546962a69.62305436 69.62305436 0 0 1 16.20773452-6.1046079c50.42406237-13.58275303 82.41220868-66.63179691 82.41220809-137.87257268a132.80574765 132.80574765 0 0 0-74.5067408-131.70691859 91.23336708 91.23336708 0 0 0-43.190102-9.15691153 268.90798373 268.90798373 0 0 0-41.63342679 0.76307591z m55.36879502 30.85879384a82.19854731 82.19854731 0 0 1 55.67402534 45.35723735 207.55667322 207.55667322 0 0 1 15.87198078 66.47918171 227.61031071 227.61031071 0 0 1-10.80515634 57.23070059c-1.37353664 2.16713594-4.79211744 8.6380204-8.18017486 14.34582835a73.07215797 73.07215797 0 0 1-25.45621507 27.77596679 81.06919482 81.06919482 0 0 1-52.43858313 16.51296489 82.62586946 82.62586946 0 0 1-69.40939359-24.84575493 102.80159933 102.80159933 0 0 1-29.91257934-59.36731314 144.46554892 144.46554892 0 0 1 8.94325077-90.22610637 116.53696753 116.53696753 0 0 1 39.67995221-45.02148481 110.09660588 110.09660588 0 0 1 76.03289323-8.18017425z m434.64809217-31.01140903a82.1375011 82.1375011 0 0 0-57.99377652 42.73225647 83.69417633 83.69417633 0 0 0 0 59.36731314 129.11245988 129.11245988 0 0 0 45.96769871 44.86886902c2.16713594 1.06830627 6.47088446 3.54067259 9.4010963 5.0973478l23.28907972 14.80367449a146.05274693 146.05274693 0 0 1 27.77596619 22.67861838 31.28611599 31.28611599 0 0 1 9.70632727 27.28759844 34.91835817 34.91835817 0 0 1-6.10460849 24.05215563c-18.03911671 24.41843218-71.27129857 24.84575494-101.48910827 0.61046073-14.04059858-11.41561707-16.81819526-9.40109632-16.81819527 12.94176891 0 18.03911671 0.30523038 18.64957745 8.63802041 22.98384934a181.70365821 181.70365821 0 0 0 68.31056391 12.9417689 89.79878423 89.79878423 0 0 0 73.71314208-40.25989014c6.1046079-9.40109632 6.77611481-13.73536822 7.0813452-33.7890051a65.96028998 65.96028998 0 0 0-5.70780855-33.78900568 156.6137191 156.6137191 0 0 0-61.53444908-52.43858315 174.62231302 174.62231302 0 0 1-15.71936559-9.40109633 59.64202071 59.64202071 0 0 0-12.20921579-7.08134517 75.78870904 75.78870904 0 0 1-23.28907972-26.21929157 41.11453505 41.11453505 0 0 1 22.67861898-54.30048874 85.76974269 85.76974269 0 0 1 68.31056391 3.23544223 36.78026317 36.78026317 0 0 0 17.58127057 5.86042373c4.30374849-2.77759668 0.61046072-31.92710011-4.63950167-37.32967769-3.54067259-3.84590296-10.49992599-5.09734781-35.31515751-5.86042373a314.38731348 314.38731348 0 0 0-41.78604198 0.9156911z m-287.49651558 2.16713595c-0.7630759 15.41413522 0.30523038 279.92680147 1.06830628 280.81196976 1.86190559 1.86190559 143.88561159 1.70929041 147.15157658-0.30523037 3.99851813-2.77759668 3.69328777-21.12194376-0.30523036-26.52452193-3.23544223-3.84590296-9.40109632-3.99851813-54.75833368-2.47236631a368.26047946 368.26047946 0 0 1-56.43710127-0.45784555c-4.30374849-2.16713594-4.94473263-4.63950226-3.23544222-21.91554307 1.06830627-14.04059858 2.62498149-195.71373339 1.7092898-227.79344869a60.80189598 60.80189598 0 0 0-35.16254174-1.22092146z m480.58526748 76.94858431a101.70276966 101.70276966 0 0 0-64.46466096 50.42406237 144.37397991 144.37397991 0 0 0 0.76307651 112.93524877 85.46451233 85.46451233 0 0 0 60.46614221 45.35723735 69.62305436 69.62305436 0 0 0 42.09127235 0.61046073c28.84427306-5.70780853 46.42554424-13.58275303 48.59268018-21.36612794a92.24062715 92.24062715 0 0 0 1.7092904-16.51296488c0-8.18017486-1.06830627-10.01155705-5.09734782-10.01155705a12.88072272 12.88072272 0 0 0-8.94325077 3.84590295 99.07778815 99.07778815 0 0 1-15.4141352 9.40109633 96.9716984 96.9716984 0 0 1-69.71462396 0 69.65357775 69.65357775 0 0 1-27.77596678-33.14802158 48.40954161 48.40954161 0 0 0-3.84590295-13.73536761c-3.54067259-8.33279003-3.54067259-9.70632668 0.30523035-13.73536821a11.47666328 11.47666328 0 0 1 10.01155705-2.77759668c3.23544223 0.45784554 33.7890057 1.70929041 67.70010317 1.86190558l62.14490983 0.76307591 0.76307591-22.98384936a82.10697831 82.10697831 0 0 0-62.63327817-90.37872214 59.55045112 59.55045112 0 0 0-36.62764797-0.61046073z m38.55059973 30.70617865a43.37323999 43.37323999 0 0 1 23.28907971 23.74692527 47.24966634 47.24966634 0 0 1 6.77611483 26.98236748c-0.7630759 2.47236632-15.87198077 3.23544223-55.82664055 3.05230364h-54.60571851l0.76307593-6.47088445a68.85997846 68.85997846 0 0 1 31.62186973-44.25840828 52.22492177 52.22492177 0 0 1 47.98221886-3.05230366z m481.04311303-30.52304068a100.4818482 100.4818482 0 0 0-56.92546962 40.25989016 96.33071487 96.33071487 0 0 0-15.26152004 65.56349063 89.61564564 89.61564564 0 0 0 6.77611482 50.27144658 85.46451233 85.46451233 0 0 0 62.93850854 52.43858315 65.04459889 65.04459889 0 0 0 42.09127293 0.61046073 89.64616903 89.64616903 0 0 0 49.20314031-19.74840652 72.40065104 72.40065104 0 0 0 1.70929041-16.20773453c0-10.01155705-0.7630759-11.87346263-5.09734781-11.87346263a12.88072272 12.88072272 0 0 0-8.94325078 3.84590296 109.08934579 109.08934579 0 0 1-15.26152003 9.40109632 107.19691682 107.19691682 0 0 1-68.00533356 1.06830627 72.00385168 72.00385168 0 0 1-33.57534431-47.03600437c-2.77759668-14.49844413 0-19.44317676 10.3473108-17.58127116 4.63950226 0.7630759 35.62038788 1.70929041 68.79893287 1.86190498 49.96621682 0.61046072 60.77137318 0 62.29752499-3.23544222a175.38538894 175.38538894 0 0 0-7.56971412-63.24373889 73.83523447 73.83523447 0 0 0-60.16091245-47.03600497 278.88901798 278.88901798 0 0 0-18.9853306-2.77759669 147.0905304 147.0905304 0 0 1-14.8036745 3.38805741z m44.25840829 32.69017605a47.09705115 47.09705115 0 0 1 22.67861898 38.55059973l0.61046073 12.63653854-53.99525777 0.30523097h-53.99525836l0.45784555-7.23396097a77.71166023 77.71166023 0 0 1 30.21780972-42.09127233 50.72929274 50.72929274 0 0 1 53.99525835-2.16713594z m-357.36375412-31.31663879a51.40079965 51.40079965 0 0 0-26.98236747 24.41843217c-11.56823227 19.44317676-15.71936559 18.03911671-14.34582896-4.63950226l0.76307592-18.03911671h-31.31663938l-0.61046072 100.420802c-0.45784554 110.73759-1.86190559 103.35101387 16.97081042 103.35101385s17.88650153 2.77759668 16.81819526-56.92546963c-1.37353664-59.06208278 1.37353664-80.5197797 11.56823226-96.84960661a40.04622877 40.04622877 0 0 1 45.9676981-21.57978931c14.6510593 4.94473263 16.97081044 2.77759668 15.41413582-14.04059858a35.07097334 35.07097334 0 0 0-4.3037491-16.20773452 60.80189598 60.80189598 0 0 0-29.91257936-1e-8z m520.53992726-0.30523036a64.09838439 64.09838439 0 0 0-27.77596679 26.67713711 21.91554306 21.91554306 0 0 1-8.33279003 9.15691155c-5.70780853 3.23544223-5.70780853 3.05230425-3.69328778-10.01155706 3.54067259-25.60883084 4.63950226-23.74692526-13.58275303-24.41843218l-16.20773393-0.76307591v204.04652344h32.38494508l0.30523095-66.17395076c0-61.53444908 0.61046072-66.93702727 5.70780855-78.35264435 11.87346263-24.84575494 31.62186974-35.62038788 52.13335216-28.38642751 6.77611481 2.47236632 12.63653854 3.23544223 14.04059858 1.86190557a40.38198194 40.38198194 0 0 0 1.55667523-18.31382427l-0.76307592-15.87198078-14.80367448-0.30523037a123.98458928 123.98458928 0 0 0-20.96932859 0.91569111z m-473.80915266 2.4723657c-1.86190559 1.70929041 0.30523038 9.40109632 8.6380204 30.85879383 3.23544223 8.18017486 6.77611481 17.88650153 8.18017486 21.57978931s4.94473263 13.58275303 8.18017426 21.57978931 6.77611481 17.88650153 8.18017485 21.5797899 4.79211744 13.58275303 8.18017486 21.57978931 6.77611481 17.88650153 8.18017485 21.57978932 4.94473263 13.58275303 8.18017486 21.57978929 7.08134518 19.1379464 8.63802041 24.41843219c4.30374849 14.8036745 9.40109632 18.9853312 24.05215561 18.9853312s19.1379464-4.30374849 22.98384935-20.20625266a79.35990443 79.35990443 0 0 1 5.09734721-14.8036745c1.86190559-3.69328777 5.40257817-12.20921579 8.18017486-18.98533119s6.1046079-15.87198077 8.18017485-20.20625267 5.40257817-13.27752267 7.8749445-19.74840712 6.1046079-16.51296489 8.63802039-22.98384876 6.1046079-15.26152002 7.8749445-19.44317674 5.70780853-13.58275303 8.18017484-20.20625267 8.18017486-19.1379464 12.48392335-27.77596679a93.70573338 93.70573338 0 0 0 7.8749439-18.31382368c0-4.63950226-35.62038788-1.86190559-37.78752324 3.05230364a286.91657766 286.91657766 0 0 0-10.80515635 31.01140902c-2.47236632 8.18017486-5.09734781 15.87198077-16.20773452 44.56363866-3.23544223 8.18017486-6.77611481 18.31382429-8.18017486 22.98384934s-4.94473263 14.8036745-8.18017484 22.98384934a131.67639518 131.67639518 0 0 0-7.56971354 28.08119655c-1.06830627 7.23396036-3.23544223 13.73536822-5.09734781 14.34582896-3.84590296 1.37353664-11.56823227-12.63653854-11.56823226-21.36612794a227.88501767 227.88501767 0 0 0-11.11038672-37.3296783c-5.86042372-16.97081044-11.87346263-34.85731198-13.27752266-39.16106045a231.05941431 231.05941431 0 0 0-8.18017426-22.98384935 268.69432237 268.69432237 0 0 1-8.18017485-24.41843218 109.24196097 109.24196097 0 0 0-5.40257817-16.97081043c-3.23544223-6.77611481-4.94473263-7.23396036-18.98533122-7.23396038a56.10134812 56.10134812 0 0 0-17.2760408 1.37353664z m0 0"  /></svg>