<?xml version="1.0" standalone="no"?><!DOCTYPE svg PUBLIC "-//W3C//DTD SVG 1.1//EN" "http://www.w3.org/Graphics/SVG/1.1/DTD/svg11.dtd"><svg class="icon" width="200px" height="200.00px" viewBox="0 0 1024 1024" version="1.1" xmlns="http://www.w3.org/2000/svg"><path fill="#13227a" d="M330.2 355h1.6v4.8h-1.6z"  /><path fill="#13227a" d="M896 620V272c0-79.2-64.8-144-144-144H272c-79.2 0-144 64.8-144 144v480c0 79.2 64.8 144 144 144h480c79.2 0 144-64.8 144-144v-132zM366 840h-94c-23.4 0-45.4-9.2-62.2-25.8C193.2 797.4 184 775.4 184 752v-76h182v164z m0-220H184v-164h182v164z m236 220h-180v-164h180v164z m0-220h-180v-164h180v164z m238 132c0 23.4-9.2 45.4-25.8 62.2-16.8 16.8-38.8 25.8-62.2 25.8h-94v-164h182v76z m0-132h-182v-164h182v164z m0-220H184v-128c0-23.4 9.2-45.4 25.8-62.2C226.6 193.2 248.6 184 272 184h480c23.4 0 45.4 9.2 62.2 25.8 16.8 16.8 25.8 38.8 25.8 62.2v128z"  /></svg>