<?xml version="1.0" encoding="UTF-8"?>
<svg width="16px" height="16px" viewBox="0 0 16 16" version="1.1" xmlns="http://www.w3.org/2000/svg" xmlns:xlink="http://www.w3.org/1999/xlink">
    <title>虚任务</title>
    <g id="任务管理" stroke="none" stroke-width="1" fill="none" fill-rule="evenodd">
        <g id="虚任务" transform="translate(-929.000000, -225.000000)">
            <g id="编组" transform="translate(929.000000, 225.000000)">
                <path d="M13.3176971,2.96556453 L14.9584,4.15977696 L14.9584,4.15977696 C14.9864,4.17614623 15,4.2066727 15,4.23719917 C15,4.25976221 14.99235,4.28232526 14.9767125,4.29928902 L14.9584,4.31417897 L13.31741,5.50415187 C13.2279895,5.56899563 13.1029336,5.54907225 13.0380899,5.45965176 C13.0133318,5.42550996 13,5.38441552 13,5.34224175 L13,3.12726607 C13,3.01680912 13.0895431,2.92726607 13.2,2.92726607 C13.242295,2.92726607 13.2835013,2.94067451 13.3176971,2.96556453 Z" id="路径备份" fill="#333333" transform="translate(14.000000, 4.234323) rotate(-90.000000) translate(-14.000000, -4.234323) "></path>
                <path d="M10.9275129,7.19045684 L12.2435129,8.04145684 C12.4755129,8.19145684 12.5415129,8.50045684 12.3915129,8.73245684 C12.3661796,8.77179018 12.3355129,8.80756795 12.3001055,8.83860499 L12.2435129,8.88145684 L11.3451575,9.46045684 L12.2435129,10.0414568 C12.4497352,10.1747902 12.5247969,10.4337531 12.4335815,10.6525954 L12.3915129,10.7324568 C12.3661796,10.7717902 12.3355129,10.807568 12.3001055,10.838605 L12.2435129,10.8814568 L7.77951295,13.7674568 C7.61451295,13.8744568 7.42551295,13.9274568 7.23651295,13.9274568 C7.08531295,13.9274568 6.93411295,13.8935368 6.79520095,13.8251848 L6.69351295,13.7674568 L2.22851295,10.8814568 C1.99651295,10.7304568 1.93051295,10.4214568 2.08051295,10.1894568 C2.10584628,10.1501235 2.13695739,10.1143457 2.1723648,10.083605 L2.22851295,10.0414568 L3.12615745,9.46145684 L2.22851295,8.88145684 C2.02229072,8.74723462 1.947229,8.48817289 2.03844436,8.26931967 L2.08051295,8.18945684 C2.10584628,8.15012351 2.13695739,8.11434573 2.1723648,8.08360499 L2.22851295,8.04145684 L3.54551295,7.19045684 L4.46651295,7.78545684 L3.42151295,8.46145684 L7.23651295,10.9274568 L11.0515129,8.46145684 L10.0065129,7.78545684 L10.9275129,7.19045684 Z M10.4251575,10.0554568 L7.77951295,11.7674568 C7.61451295,11.8744568 7.42551295,11.9274568 7.23651295,11.9274568 C7.08531295,11.9274568 6.93411295,11.8935368 6.79520095,11.8251848 L6.69351295,11.7674568 L4.04715745,10.0564568 L3.42151295,10.4614568 L7.23651295,12.9274568 L11.0515129,10.4614568 L10.4251575,10.0554568 Z" id="形状备份" fill="#000000"></path>
                <path d="M7.23605745,3 C7.04705745,3 6.85905745,3.053 6.69305745,3.16 L2.22905745,6.046 C2.16905745,6.084 2.11905745,6.135 2.08005745,6.195 C1.93005745,6.427 1.99705745,6.736 2.22905745,6.886 L6.69305745,9.772 C6.85905745,9.879 7.04705745,9.932 7.23605745,9.932 C7.42505745,9.932 7.61405745,9.879 7.77905745,9.772 L12.2430575,6.886 C12.3030575,6.848 12.3530575,6.797 12.3920575,6.738 C12.5420575,6.506 12.4750575,6.196 12.2430575,6.046 L7.77905745,3.16 C7.61405745,3.053 7.42505745,3 7.23605745,3" id="Fill-1备份" fill="#000000"></path>
                <line x1="14" y1="5" x2="14" y2="8.42171914" id="路径-6" stroke="#333333" stroke-linecap="round"></line>
            </g>
        </g>
    </g>
</svg>