<?xml version="1.0" encoding="UTF-8"?>
<svg width="16px" height="16px" viewBox="0 0 16 16" version="1.1" xmlns="http://www.w3.org/2000/svg" xmlns:xlink="http://www.w3.org/1999/xlink">
    <title>虚任务</title>
    <g id="任务管理" stroke="none" stroke-width="1" fill="none" fill-rule="evenodd">
        <g id="虚任务" transform="translate(-592.000000, -225.000000)" fill="#333333">
            <g id="路径" transform="translate(592.000000, 225.000000)">
                <path d="M7.5,4 C9.47534487,4 11.2448869,4.88114683 12.4370124,6.27182695 L13.141469,5.56773426 C13.2195738,5.4896294 13.3462068,5.4896294 13.4243117,5.56773426 C13.4519446,5.5953672 13.4708768,5.63049015 13.4787691,5.66876376 L14.5875308,11.045662 C14.6108653,11.1213224 14.5861166,11.1941544 14.5373262,11.2429448 C14.5012638,11.2790072 14.4516779,11.3015463 14.3969214,11.3010251 L14.3407506,11.2924423 L8.97146535,10.1756627 C8.86332284,10.1531697 8.79389019,10.0472687 8.8163832,9.93912622 C8.82431732,9.90098033 8.84322068,9.86598254 8.87077118,9.83843205 L9.65898534,9.05065865 C8.80177409,7.81165833 7.37067353,7 5.75,7 C3.32016781,7 1.31646147,8.82446164 1.03406386,11.178202 C1.01184315,10.9552517 1,10.7290089 1,10.5 C1,6.91014913 3.91014913,4 7.5,4 Z" transform="translate(7.798202, 7.650513) scale(-1, 1) translate(-7.798202, -7.650513) "></path>
            </g>
        </g>
    </g>
</svg>