<?xml version="1.0" encoding="UTF-8"?>
<svg width="16px" height="16px" viewBox="0 0 16 16" version="1.1" xmlns="http://www.w3.org/2000/svg" xmlns:xlink="http://www.w3.org/1999/xlink">
    <title>新增任务弹窗</title>
    <defs>
        <filter id="filter-1">
            <feColorMatrix in="SourceGraphic" type="matrix" values="0 0 0 0 0.000000 0 0 0 0 0.666667 0 0 0 0 0.835294 0 0 0 1.000000 0"></feColorMatrix>
        </filter>
    </defs>
    <g id="设计图" stroke="none" stroke-width="1" fill="none" fill-rule="evenodd">
        <g id="新增任务弹窗" transform="translate(-24.000000, -499.000000)">
            <g id="定位备份-13" transform="translate(24.000000, 499.000000)" filter="url(#filter-1)">
                <g>
                    <path d="M12,13 L13.9832263,13.0011431 C13.8876395,13.5678919 13.3949397,14 12.8,14 L12,14 L12,13 Z M5,13 L5,14 L4,14 L4,13 L5,13 Z M7,13 L7,14 L6,14 L6,13 L7,13 Z M9,13 L9,14 L8,14 L8,13 L9,13 Z M11,13 L11,14 L10,14 L10,13 L11,13 Z M3,12 L2.99985307,13.9833596 C2.43261453,13.8879952 2,13.3942118 2,12.8 L2,12 L3,12 Z M14,11 L14,12 L13,12 L13,11 L14,11 Z M3,10 L3,11 L2,11 L2,10 L3,10 Z M14,9 L14,10 L13,10 L13,9 L14,9 Z M3,8 L3,9 L2,9 L2,8 L3,8 Z M14,7 L14,8 L13,8 L13,7 L14,7 Z M3,6 L3,7 L2,7 L2,6 L3,6 Z M14,5 L14,6 L13,6 L13,5 L14,5 Z M3,4 L3,5 L2,5 L2,4 L3,4 Z M13.0007942,2.01669903 C13.568528,2.11220722 14,2.60591 14,3.2 L14,4 L13,4 L13.0007942,2.01669903 Z M12,2 L12,3 L11,3 L11,2 L12,2 Z M4,2 L4,3 L2.01664035,2.99985307 C2.11200484,2.43261453 2.60578824,2 3.2,2 L4,2 Z M8,2 L8,3 L7,3 L7,2 L8,2 Z M6,2 L6,3 L5,3 L5,2 L6,2 Z M10,2 L10,3 L9,3 L9,2 L10,2 Z" id="形状结合" fill="#5FB1D6"></path>
                    <rect id="矩形" fill="#5FB1D6" x="5" y="5" width="6" height="1" rx="0.5"></rect>
                    <rect id="矩形备份-3" fill="#5FB1D6" x="5" y="7" width="6" height="1" rx="0.5"></rect>
                    <rect id="矩形备份-4" fill="#5FB1D6" x="5" y="9" width="4" height="1" rx="0.5"></rect>
                </g>
            </g>
        </g>
    </g>
</svg>