<?xml version="1.0" standalone="no"?><!DOCTYPE svg PUBLIC "-//W3C//DTD SVG 1.1//EN" "http://www.w3.org/Graphics/SVG/1.1/DTD/svg11.dtd"><svg t="1611816751172" class="icon" viewBox="0 0 1024 1024" version="1.1" xmlns="http://www.w3.org/2000/svg" p-id="2594" xmlns:xlink="http://www.w3.org/1999/xlink" width="200" height="200"><defs><style type="text/css"></style></defs><path d="M822 402H202V262c0-11 9-20 20-20h223.2c7.8 0 14.9 4.5 18.2 11.6l26.3 36.8c3.3 7.1 10.4 11.6 18.2 11.6H802c11 0 20 9 20 20v80z" fill="#003DF0" p-id="2595"></path><path d="M802 782H222c-11 0-20-9-20-20V402h620v360c0 11-9 20-20 20z" fill="#3A6EFF" p-id="2596"></path><path d="M782 402H242v-30c0-11 9-20 20-20h500c11 0 20 9 20 20v30z" fill="#EBF1F7" p-id="2597"></path><path d="M574.9 297h-60c-6.4 0-12.5-3.1-16.2-8.3l-30-41.7h74.9c3.2 0 6.2 1.5 8.1 4.2l27.3 37.9c2.3 3.3 0 7.9-4.1 7.9z" fill="#FFA326" p-id="2598"></path></svg>