<?xml version="1.0" standalone="no"?><!DOCTYPE svg PUBLIC "-//W3C//DTD SVG 1.1//EN" "http://www.w3.org/Graphics/SVG/1.1/DTD/svg11.dtd"><svg class="icon" width="200px" height="200.00px" viewBox="0 0 1024 1024" version="1.1" xmlns="http://www.w3.org/2000/svg"><path fill="#ffffff" d="M512 590.667c-140 0-250-110-250-250s109.999-250 250-250 250 110 250 250-109.999 250-250 250z m0-50.001c110 0 200-90 200-200s-90-200-200-200-200 90-200 200 90 200.002 200 200.002z"  /><path fill="#ffffff" d="M112 940.667c0-220 180-400 400-400s400 180 400 400h-50c0-195-155-350-350-350s-350 155-350 350h-50z"  /></svg>