<?xml version="1.0" standalone="no"?><!DOCTYPE svg PUBLIC "-//W3C//DTD SVG 1.1//EN" "http://www.w3.org/Graphics/SVG/1.1/DTD/svg11.dtd"><svg class="icon" width="200px" height="200.00px" viewBox="0 0 1024 1024" version="1.1" xmlns="http://www.w3.org/2000/svg"><path fill="#ffffff" d="M147.2 420.3c9.9 0 17.9-8 17.9-17.9V224.1l357.7-122.8L859 227.6l-0.1 174.8h0.1c0 9.9 8 17.9 17.9 17.9s17.9-8 17.9-17.9c0-0.2-0.1-0.4-0.1-0.7l0.2-186.1c0-7.3-4.4-13.9-11.2-16.6l-354-133.5c-4.2-1.7-8.8-1.8-13-0.2L140.9 194.9c-7 2.6-11.6 9.3-11.6 16.8v190.7c0 9.9 8 17.9 17.9 17.9zM877 527.8c-9.9 0-17.9 8-17.9 17.9h-0.2v66c0 0.8-0.8 76-58 138.3-102.2 111.4-257.1 160.6-291.1 173C280 836.5 223.5 751.3 195.2 712c-26.4-36.6-29.9-100.5-29.9-100.5v-65.9c0-9.9-8-17.9-17.9-17.9-9.9 0-17.9 8-17.9 17.9V612.3c0.1 3 3.9 75.2 37 120.9C196.6 775 258.7 868 503.6 958.8c2 0.7 4.1 1.1 6.2 1.1 1.9 0 3.9-0.3 5.8-1 8.5-2.9 192.5-54.6 311.9-184.9 66.9-73 67.4-159 67.4-162.6v-64.7c0-0.4 0.2-0.8 0.2-1.2-0.2-9.6-8.2-17.7-18.1-17.7z"  /><path fill="#ffffff" d="M643.9 503.3c0-23.8-3.1-46.4-9.3-67.9-6.2-21.5-15.4-40.3-27.6-56.4s-27.5-28.9-45.9-38.3c-18.4-9.5-40-14.2-64.7-14.2-25.1 0-46.9 4.7-65.6 14.2-18.6 9.4-34 22.2-46.2 38.3-12.2 16.1-21.2 34.9-27.1 56.4-5.9 21.5-8.8 44.1-8.8 67.9 0 24.1 3.1 46.9 9.3 68.4s15.4 40.3 27.6 56.4 27.6 28.9 46.2 38.3c18.6 9.5 40.1 14.2 64.5 14.2 20.2 0 38.1-3.1 53.7-9.3 15.7-6.2 30.3-15.5 44-27.9l21.5 21c7.5 7.5 14.1 11.5 19.8 12s10.3-1.6 13.9-6.1c8.8-9.4 6.6-20.8-6.8-34.2L618 611.7c9.4-16.6 16.1-33.9 20-52s5.9-36.9 5.9-56.4z m-41.6 43.2c-2.2 12.6-6 25.4-11.2 38.4l-29.3-29.8c-4.2-5.2-8.7-7.2-13.4-6.1-4.7 1.2-9 3.7-12.9 7.6-9.5 10.5-10 19.2-1.5 26.4l34.7 34.7c-9.8 9.7-20.6 16.8-32.5 21.2-11.9 4.4-25.2 6.6-39.8 6.6-19.2 0-35.7-4-49.7-12-13.8-8-25.1-18.6-33.9-32-8.8-13.3-15.2-28.4-19.5-45.4s-6.4-34.6-6.4-52.8c0-18.6 2.2-36.4 6.4-53.5s10.8-32.2 19.8-45.4c8.9-13.2 20.2-23.8 33.9-31.8 13.6-8 30.1-12 49.3-12 18.9 0 35.2 4 49.1 12 13.8 8 25.2 18.6 34.2 32 9 13.4 15.5 28.6 19.8 45.9 4.2 17.2 6.3 35.3 6.3 54.2 0 15.3-1.1 29.3-3.4 41.8z"  /></svg>