<?xml version="1.0" standalone="no"?><!DOCTYPE svg PUBLIC "-//W3C//DTD SVG 1.1//EN" "http://www.w3.org/Graphics/SVG/1.1/DTD/svg11.dtd"><svg class="icon" width="200px" height="190.51px" viewBox="0 0 1075 1024" version="1.1" xmlns="http://www.w3.org/2000/svg"><path fill="#ffffff" d="M739.096671 910.199822 113.777776 910.199822 113.777776 113.397248l284.455631 0L398.233407 0 93.945569 0C43.872603 0 0 40.604542 0 90.677507l0 842.644967c0 50.072966 40.604542 90.677507 90.677507 90.677507l672.459559 0c50.028198 0 90.655123-40.582158 90.655123-90.677507l0-119.194699-114.717903 0L739.074287 910.199822zM905.006738 646.337453c54.527378-61.824556 87.924278-142.697879 87.924278-231.405596 0-193.263292-157.202699-350.488375-350.465991-350.488375-193.240908 0-350.488375 157.225083-350.488375 350.488375s157.247467 350.465991 350.488375 350.465991c63.36905 0 122.731368-17.168513 174.080221-46.715368l174.326444 185.943731 83.201258-77.963406L905.006738 646.337453zM406.023032 414.931857c0-130.364306 106.055302-236.419608 236.441992-236.419608s236.419608 106.055302 236.419608 236.419608S772.806946 651.373849 642.44264 651.373849 406.023032 545.296163 406.023032 414.931857z" /></svg>